<?xml version="1.0" encoding="UTF-8" standalone="no"?>
<!DOCTYPE svg PUBLIC "-//W3C//DTD SVG 1.1//EN"
 "http://www.w3.org/Graphics/SVG/1.1/DTD/svg11.dtd">
<!-- Generated by graphviz version 14.1.1 (20251213.1925)
 -->
<!-- Title: G Pages: 1 -->
<svg width="626pt" height="719pt"
 viewBox="0.00 0.00 626.00 719.00" xmlns="http://www.w3.org/2000/svg" xmlns:xlink="http://www.w3.org/1999/xlink">
<g id="graph0" class="graph" transform="scale(1 1) rotate(0) translate(4 714.69)">
<title>G</title><style>.edge>path:hover{stroke-width:8}</style>
<polygon fill="white" stroke="none" points="-4,4 -4,-714.69 621.9,-714.69 621.9,4 -4,4"/>
<!-- canvodpy -->
<g id="node1" class="node">
<title>canvodpy</title><style>.edge>path:hover{stroke-width:8}</style>
<polygon fill="blue" stroke="black" points="461.24,-36 403.24,-36 403.24,0 461.24,0 461.24,-36"/>
<text xml:space="preserve" text-anchor="middle" x="432.24" y="-14.12" font-family="Helvetica,sans-Serif" font-size="10.00" fill="white">canvodpy</text>
</g>
<!-- canvodpy_api -->
<g id="node2" class="node">
<title>canvodpy_api</title><style>.edge>path:hover{stroke-width:8}</style>
<polygon fill="blue" stroke="black" points="115.36,-111.57 43.11,-111.57 43.11,-75.57 115.36,-75.57 115.36,-111.57"/>
<text xml:space="preserve" text-anchor="middle" x="79.24" y="-89.69" font-family="Helvetica,sans-Serif" font-size="10.00" fill="white">canvodpy.api</text>
</g>
<!-- canvodpy_api&#45;&gt;canvodpy -->
<g id="edge1" class="edge">
<title>canvodpy_api&#45;&gt;canvodpy</title><style>.edge>path:hover{stroke-width:8}</style>
<path fill="none" stroke="black" d="M115.68,-84.97C182.26,-71.1 323.05,-41.76 392.2,-27.34"/>
<polygon fill="blue" stroke="black" points="392.5,-30.86 401.57,-25.39 391.07,-24 392.5,-30.86"/>
</g>
<!-- canvodpy_globals -->
<g id="node3" class="node">
<title>canvodpy_globals</title><style>.edge>path:hover{stroke-width:8}</style>
<ellipse fill="#e72222" stroke="black" cx="365.24" cy="-689.13" rx="42.07" ry="21.57"/>
<text xml:space="preserve" text-anchor="middle" x="365.24" y="-690.88" font-family="Helvetica,sans-Serif" font-size="10.00" fill="#ffffff">canvodpy.</text>
<text xml:space="preserve" text-anchor="middle" x="365.24" y="-679.63" font-family="Helvetica,sans-Serif" font-size="10.00" fill="#ffffff">globals</text>
</g>
<!-- canvodpy_globals&#45;&gt;canvodpy -->
<g id="edge2" class="edge">
<title>canvodpy_globals&#45;&gt;canvodpy</title><style>.edge>path:hover{stroke-width:8}</style>
<path fill="none" stroke="black" d="M432.24,-320.76C362.11,-244.45 400.36,-105.9 421.37,-46.86"/>
<polygon fill="#e72222" stroke="black" points="424.62,-48.16 424.78,-37.57 418.05,-45.75 424.62,-48.16"/>
</g>
<!-- canvodpy_globals&#45;&gt;canvodpy_api -->
<g id="edge3" class="edge">
<title>canvodpy_globals&#45;&gt;canvodpy_api</title><style>.edge>path:hover{stroke-width:8}</style>
<path fill="none" stroke="black" d="M368.42,-667.17C369.3,-656.28 369.11,-642.9 365.24,-631.56"/>
<path fill="none" stroke="black" d="M47.24,-407.16C41.2,-372.97 13.47,-375.8 3.24,-342.63 -2.23,-324.9 1.23,-319.33 3.24,-300.88 10.61,-233.13 7.61,-212.98 36.24,-151.13 41.29,-140.22 48.73,-129.41 56.01,-120.22"/>
<polygon fill="#e72222" stroke="black" points="58.49,-122.71 62.17,-112.78 53.1,-118.24 58.49,-122.71"/>
<path fill="none" stroke="black" d="M365.24,-630.56C353.73,-596.93 88.89,-544.2 66.24,-516.81 35.27,-479.37 53.47,-457.34 47.24,-409.16"/>
</g>
<!-- canvodpy_logging_logging_config -->
<g id="node6" class="node">
<title>canvodpy_logging_logging_config</title><style>.edge>path:hover{stroke-width:8}</style>
<polygon fill="blue" stroke="black" points="404.36,-594.56 326.11,-594.56 326.11,-552.81 404.36,-552.81 404.36,-594.56"/>
<text xml:space="preserve" text-anchor="middle" x="365.24" y="-581.06" font-family="Helvetica,sans-Serif" font-size="10.00" fill="white">canvodpy.</text>
<text xml:space="preserve" text-anchor="middle" x="365.24" y="-569.81" font-family="Helvetica,sans-Serif" font-size="10.00" fill="white">logging.</text>
<text xml:space="preserve" text-anchor="middle" x="365.24" y="-558.56" font-family="Helvetica,sans-Serif" font-size="10.00" fill="white">logging_config</text>
</g>
<!-- canvodpy_globals&#45;&gt;canvodpy_logging_logging_config -->
<g id="edge4" class="edge">
<title>canvodpy_globals&#45;&gt;canvodpy_logging_logging_config</title><style>.edge>path:hover{stroke-width:8}</style>
<path fill="none" stroke="black" d="M365.24,-630.56C362.74,-622.87 361.87,-614.27 361.83,-606.17"/>
<polygon fill="#e72222" stroke="black" points="365.32,-606.45 362.21,-596.32 358.33,-606.18 365.32,-606.45"/>
</g>
<!-- canvodpy_orchestrator_pipeline -->
<g id="node10" class="node">
<title>canvodpy_orchestrator_pipeline</title><style>.edge>path:hover{stroke-width:8}</style>
<polygon fill="blue" stroke="black" points="145.24,-264.88 75.24,-264.88 75.24,-223.13 145.24,-223.13 145.24,-264.88"/>
<text xml:space="preserve" text-anchor="middle" x="110.24" y="-251.38" font-family="Helvetica,sans-Serif" font-size="10.00" fill="white">canvodpy.</text>
<text xml:space="preserve" text-anchor="middle" x="110.24" y="-240.13" font-family="Helvetica,sans-Serif" font-size="10.00" fill="white">orchestrator.</text>
<text xml:space="preserve" text-anchor="middle" x="110.24" y="-228.88" font-family="Helvetica,sans-Serif" font-size="10.00" fill="white">pipeline</text>
</g>
<!-- canvodpy_globals&#45;&gt;canvodpy_orchestrator_pipeline -->
<g id="edge5" class="edge">
<title>canvodpy_globals&#45;&gt;canvodpy_orchestrator_pipeline</title><style>.edge>path:hover{stroke-width:8}</style>
<path fill="none" stroke="black" d="M432.24,-320.76C403.15,-274.41 238.91,-255.09 156.87,-248.24"/>
<polygon fill="#e72222" stroke="black" points="157.38,-244.77 147.14,-247.46 156.82,-251.75 157.38,-244.77"/>
<path fill="none" stroke="black" d="M365.24,-630.56C357,-605.2 400.49,-617.98 413.24,-594.56 471.14,-488.2 496.61,-425.33 432.24,-322.76"/>
</g>
<!-- canvodpy_orchestrator_processor -->
<g id="node11" class="node">
<title>canvodpy_orchestrator_processor</title><style>.edge>path:hover{stroke-width:8}</style>
<polygon fill="blue" stroke="black" points="82.24,-342.63 12.24,-342.63 12.24,-300.88 82.24,-300.88 82.24,-342.63"/>
<text xml:space="preserve" text-anchor="middle" x="47.24" y="-329.13" font-family="Helvetica,sans-Serif" font-size="10.00" fill="white">canvodpy.</text>
<text xml:space="preserve" text-anchor="middle" x="47.24" y="-317.88" font-family="Helvetica,sans-Serif" font-size="10.00" fill="white">orchestrator.</text>
<text xml:space="preserve" text-anchor="middle" x="47.24" y="-306.63" font-family="Helvetica,sans-Serif" font-size="10.00" fill="white">processor</text>
</g>
<!-- canvodpy_globals&#45;&gt;canvodpy_orchestrator_processor -->
<g id="edge6" class="edge">
<title>canvodpy_globals&#45;&gt;canvodpy_orchestrator_processor</title><style>.edge>path:hover{stroke-width:8}</style>
<path fill="none" stroke="black" d="M47.24,-407.16C44.19,-389.91 43.99,-370.37 44.64,-354.44"/>
<polygon fill="#e72222" stroke="black" points="48.13,-354.74 45.19,-344.56 41.14,-354.35 48.13,-354.74"/>
</g>
<!-- canvodpy_logging -->
<g id="node4" class="node">
<title>canvodpy_logging</title><style>.edge>path:hover{stroke-width:8}</style>
<ellipse fill="#ce3b3b" stroke="black" cx="219.24" cy="-495.24" rx="42.07" ry="21.57"/>
<text xml:space="preserve" text-anchor="middle" x="219.24" y="-496.99" font-family="Helvetica,sans-Serif" font-size="10.00" fill="#ffffff">canvodpy.</text>
<text xml:space="preserve" text-anchor="middle" x="219.24" y="-485.74" font-family="Helvetica,sans-Serif" font-size="10.00" fill="#ffffff">logging</text>
</g>
<!-- canvodpy_logging&#45;&gt;canvodpy_orchestrator_pipeline -->
<g id="edge7" class="edge">
<title>canvodpy_logging&#45;&gt;canvodpy_orchestrator_pipeline</title><style>.edge>path:hover{stroke-width:8}</style>
<path fill="none" stroke="black" d="M394.24,-320.76C369.72,-280.18 231.18,-258.6 157.05,-249.82"/>
<polygon fill="#ce3b3b" stroke="black" points="157.57,-246.36 147.24,-248.69 156.77,-253.31 157.57,-246.36"/>
<path fill="none" stroke="black" d="M255.48,-483.87C280.95,-475.05 314.43,-460.18 337.24,-437.68 347.38,-427.67 401.61,-334.96 394.24,-322.76"/>
</g>
<!-- canvodpy_logging&#45;&gt;canvodpy_orchestrator_processor -->
<g id="edge8" class="edge">
<title>canvodpy_logging&#45;&gt;canvodpy_orchestrator_processor</title><style>.edge>path:hover{stroke-width:8}</style>
<path fill="none" stroke="black" d="M187.39,-480.82C158.16,-468.1 117.45,-449.27 104.24,-437.68 92.79,-427.63 93.68,-421.83 85.24,-409.16"/>
</g>
<!-- canvodpy_logging_context -->
<g id="node5" class="node">
<title>canvodpy_logging_context</title><style>.edge>path:hover{stroke-width:8}</style>
<polygon fill="blue" stroke="black" points="394.99,-516.12 335.49,-516.12 335.49,-474.37 394.99,-474.37 394.99,-516.12"/>
<text xml:space="preserve" text-anchor="middle" x="365.24" y="-502.62" font-family="Helvetica,sans-Serif" font-size="10.00" fill="white">canvodpy.</text>
<text xml:space="preserve" text-anchor="middle" x="365.24" y="-491.37" font-family="Helvetica,sans-Serif" font-size="10.00" fill="white">logging.</text>
<text xml:space="preserve" text-anchor="middle" x="365.24" y="-480.12" font-family="Helvetica,sans-Serif" font-size="10.00" fill="white">context</text>
</g>
<!-- canvodpy_logging_context&#45;&gt;canvodpy_orchestrator_pipeline -->
<g id="edge9" class="edge">
<title>canvodpy_logging_context&#45;&gt;canvodpy_orchestrator_pipeline</title><style>.edge>path:hover{stroke-width:8}</style>
<path fill="none" stroke="black" d="M394.24,-407.16C379.85,-372.51 413.51,-354.94 394.24,-322.76"/>
</g>
<!-- canvodpy_logging_context&#45;&gt;canvodpy_orchestrator_processor -->
<g id="edge10" class="edge">
<title>canvodpy_logging_context&#45;&gt;canvodpy_orchestrator_processor</title><style>.edge>path:hover{stroke-width:8}</style>
<path fill="none" stroke="black" d="M380.43,-474.03C391.56,-456.61 403.28,-430.92 394.24,-409.16"/>
<path fill="none" stroke="black" d="M394.24,-407.16C371.14,-351.54 183.25,-331.73 94,-325.41"/>
<polygon fill="blue" stroke="black" points="94.32,-321.93 84.1,-324.74 93.85,-328.91 94.32,-321.93"/>
</g>
<!-- canvodpy_logging_logging_config&#45;&gt;canvodpy_logging_context -->
<g id="edge11" class="edge">
<title>canvodpy_logging_logging_config&#45;&gt;canvodpy_logging_context</title><style>.edge>path:hover{stroke-width:8}</style>
<path fill="none" stroke="black" d="M365.24,-552.6C365.24,-545.02 365.24,-536.21 365.24,-527.83"/>
<polygon fill="blue" stroke="black" points="368.74,-527.97 365.24,-517.97 361.74,-527.97 368.74,-527.97"/>
</g>
<!-- canvodpy_orchestrator -->
<g id="node7" class="node">
<title>canvodpy_orchestrator</title><style>.edge>path:hover{stroke-width:8}</style>
<polygon fill="blue" stroke="black" points="113.11,-187.13 45.36,-187.13 45.36,-151.13 113.11,-151.13 113.11,-187.13"/>
<text xml:space="preserve" text-anchor="middle" x="79.24" y="-170.88" font-family="Helvetica,sans-Serif" font-size="10.00" fill="white">canvodpy.</text>
<text xml:space="preserve" text-anchor="middle" x="79.24" y="-159.63" font-family="Helvetica,sans-Serif" font-size="10.00" fill="white">orchestrator</text>
</g>
<!-- canvodpy_orchestrator&#45;&gt;canvodpy_api -->
<g id="edge12" class="edge">
<title>canvodpy_orchestrator&#45;&gt;canvodpy_api</title><style>.edge>path:hover{stroke-width:8}</style>
<path fill="none" stroke="black" d="M79.24,-150.7C79.24,-142.45 79.24,-132.39 79.24,-123.08"/>
<polygon fill="blue" stroke="black" points="82.74,-123.39 79.24,-113.39 75.74,-123.39 82.74,-123.39"/>
</g>
<!-- canvodpy_orchestrator_interpolator -->
<g id="node8" class="node">
<title>canvodpy_orchestrator_interpolator</title><style>.edge>path:hover{stroke-width:8}</style>
<ellipse fill="#b65353" stroke="black" cx="162.24" cy="-408.16" rx="49.5" ry="29.52"/>
<text xml:space="preserve" text-anchor="middle" x="162.24" y="-415.53" font-family="Helvetica,sans-Serif" font-size="10.00" fill="#ffffff">canvodpy.</text>
<text xml:space="preserve" text-anchor="middle" x="162.24" y="-404.28" font-family="Helvetica,sans-Serif" font-size="10.00" fill="#ffffff">orchestrator.</text>
<text xml:space="preserve" text-anchor="middle" x="162.24" y="-393.03" font-family="Helvetica,sans-Serif" font-size="10.00" fill="#ffffff">interpolator</text>
</g>
<!-- canvodpy_orchestrator_interpolator&#45;&gt;canvodpy_orchestrator_processor -->
<g id="edge13" class="edge">
<title>canvodpy_orchestrator_interpolator&#45;&gt;canvodpy_orchestrator_processor</title><style>.edge>path:hover{stroke-width:8}</style>
<path fill="none" stroke="black" d="M131.42,-384.54C116.87,-373.86 99.4,-361.04 84.15,-349.85"/>
<polygon fill="#b65353" stroke="black" points="86.35,-347.12 76.21,-344.02 82.2,-352.76 86.35,-347.12"/>
</g>
<!-- canvodpy_orchestrator_matcher -->
<g id="node9" class="node">
<title>canvodpy_orchestrator_matcher</title><style>.edge>path:hover{stroke-width:8}</style>
<ellipse fill="#b65353" stroke="black" cx="279.24" cy="-408.16" rx="49.5" ry="29.52"/>
<text xml:space="preserve" text-anchor="middle" x="279.24" y="-415.53" font-family="Helvetica,sans-Serif" font-size="10.00" fill="#ffffff">canvodpy.</text>
<text xml:space="preserve" text-anchor="middle" x="279.24" y="-404.28" font-family="Helvetica,sans-Serif" font-size="10.00" fill="#ffffff">orchestrator.</text>
<text xml:space="preserve" text-anchor="middle" x="279.24" y="-393.03" font-family="Helvetica,sans-Serif" font-size="10.00" fill="#ffffff">matcher</text>
</g>
<!-- canvodpy_orchestrator_matcher&#45;&gt;canvodpy_orchestrator_processor -->
<g id="edge14" class="edge">
<title>canvodpy_orchestrator_matcher&#45;&gt;canvodpy_orchestrator_processor</title><style>.edge>path:hover{stroke-width:8}</style>
<path fill="none" stroke="black" d="M242.13,-388.26C234.95,-384.87 227.42,-381.51 220.24,-378.63 178.07,-361.73 128.64,-346.17 93.44,-335.79"/>
<polygon fill="#b65353" stroke="black" points="94.57,-332.47 83.99,-333.03 92.6,-339.19 94.57,-332.47"/>
</g>
<!-- canvodpy_orchestrator_pipeline&#45;&gt;canvodpy_orchestrator -->
<g id="edge15" class="edge">
<title>canvodpy_orchestrator_pipeline&#45;&gt;canvodpy_orchestrator</title><style>.edge>path:hover{stroke-width:8}</style>
<path fill="none" stroke="black" d="M101.6,-222.71C98.31,-214.98 94.51,-206.03 90.98,-197.74"/>
<polygon fill="blue" stroke="black" points="94.29,-196.59 87.16,-188.76 87.85,-199.33 94.29,-196.59"/>
</g>
<!-- canvodpy_orchestrator_processor&#45;&gt;canvodpy_orchestrator -->
<g id="edge16" class="edge">
<title>canvodpy_orchestrator_processor&#45;&gt;canvodpy_orchestrator</title><style>.edge>path:hover{stroke-width:8}</style>
<path fill="none" stroke="black" d="M50.88,-300.51C54.52,-280.72 60.38,-249.78 66.24,-223.13 68.01,-215.05 70.09,-206.31 72.06,-198.31"/>
<polygon fill="blue" stroke="black" points="75.42,-199.29 74.44,-188.74 68.63,-197.59 75.42,-199.29"/>
</g>
<!-- canvodpy_orchestrator_processor&#45;&gt;canvodpy_orchestrator_pipeline -->
<g id="edge17" class="edge">
<title>canvodpy_orchestrator_processor&#45;&gt;canvodpy_orchestrator_pipeline</title><style>.edge>path:hover{stroke-width:8}</style>
<path fill="none" stroke="black" d="M64.12,-300.46C70.83,-292.39 78.67,-282.96 85.97,-274.18"/>
<polygon fill="blue" stroke="black" points="88.64,-276.45 92.34,-266.53 83.25,-271.98 88.64,-276.45"/>
</g>
<!-- canvodpy_research_sites_config -->
<g id="node12" class="node">
<title>canvodpy_research_sites_config</title><style>.edge>path:hover{stroke-width:8}</style>
<ellipse fill="#b65353" stroke="black" cx="539.24" cy="-93.57" rx="78.67" ry="21.57"/>
<text xml:space="preserve" text-anchor="middle" x="539.24" y="-95.32" font-family="Helvetica,sans-Serif" font-size="10.00" fill="#ffffff">canvodpy.</text>
<text xml:space="preserve" text-anchor="middle" x="539.24" y="-84.07" font-family="Helvetica,sans-Serif" font-size="10.00" fill="#ffffff">research_sites_config</text>
</g>
<!-- canvodpy_research_sites_config&#45;&gt;canvodpy -->
<g id="edge18" class="edge">
<title>canvodpy_research_sites_config&#45;&gt;canvodpy</title><style>.edge>path:hover{stroke-width:8}</style>
<path fill="none" stroke="black" d="M510.84,-73.05C497.36,-63.78 481.13,-52.62 466.93,-42.85"/>
<polygon fill="#b65353" stroke="black" points="468.94,-39.99 458.72,-37.21 464.98,-45.76 468.94,-39.99"/>
</g>
<!-- canvodpy_settings -->
<g id="node13" class="node">
<title>canvodpy_settings</title><style>.edge>path:hover{stroke-width:8}</style>
<ellipse fill="#b65353" stroke="black" cx="117.24" cy="-495.24" rx="42.07" ry="21.57"/>
<text xml:space="preserve" text-anchor="middle" x="117.24" y="-496.99" font-family="Helvetica,sans-Serif" font-size="10.00" fill="#ffffff">canvodpy.</text>
<text xml:space="preserve" text-anchor="middle" x="117.24" y="-485.74" font-family="Helvetica,sans-Serif" font-size="10.00" fill="#ffffff">settings</text>
</g>
<!-- canvodpy_settings&#45;&gt;canvodpy_orchestrator_processor -->
<g id="edge19" class="edge">
<title>canvodpy_settings&#45;&gt;canvodpy_orchestrator_processor</title><style>.edge>path:hover{stroke-width:8}</style>
<path fill="none" stroke="black" d="M85.24,-407.16C74.05,-390.37 64.7,-369.76 58.07,-353.11"/>
<polygon fill="#b65353" stroke="black" points="61.52,-352.31 54.66,-344.23 54.98,-354.82 61.52,-352.31"/>
<path fill="none" stroke="black" d="M112.27,-473.41C107.33,-455.37 98.54,-429.12 85.24,-409.16"/>
</g>
</g>
</svg>
