<?xml version="1.0" encoding="UTF-8" standalone="no"?>
<!DOCTYPE svg PUBLIC "-//W3C//DTD SVG 1.1//EN"
 "http://www.w3.org/Graphics/SVG/1.1/DTD/svg11.dtd">
<!-- Generated by graphviz version 14.1.1 (20251213.1925)
 -->
<!-- Title: G Pages: 1 -->
<svg width="1019pt" height="915pt"
 viewBox="0.00 0.00 1019.00 915.00" xmlns="http://www.w3.org/2000/svg" xmlns:xlink="http://www.w3.org/1999/xlink">
<g id="graph0" class="graph" transform="scale(1 1) rotate(0) translate(4 911.13)">
<title>G</title><style>.edge>path:hover{stroke-width:8}</style>
<polygon fill="white" stroke="none" points="-4,4 -4,-911.13 1014.66,-911.13 1014.66,4 -4,4"/>
<!-- canvodpy -->
<g id="node1" class="node">
<title>canvodpy</title><style>.edge>path:hover{stroke-width:8}</style>
<polygon fill="blue" stroke="black" points="169.16,-36 111.16,-36 111.16,0 169.16,0 169.16,-36"/>
<text xml:space="preserve" text-anchor="middle" x="140.16" y="-14.12" font-family="Helvetica,sans-Serif" font-size="10.00" fill="white">canvodpy</text>
</g>
<!-- canvodpy_api -->
<g id="node2" class="node">
<title>canvodpy_api</title><style>.edge>path:hover{stroke-width:8}</style>
<polygon fill="blue" stroke="black" points="214.16,-108 160.16,-108 160.16,-72 214.16,-72 214.16,-108"/>
<text xml:space="preserve" text-anchor="middle" x="187.16" y="-86.12" font-family="Helvetica,sans-Serif" font-size="10.00" fill="white">api</text>
</g>
<!-- canvodpy_api&#45;&gt;canvodpy -->
<g id="edge1" class="edge">
<title>canvodpy_api&#45;&gt;canvodpy</title><style>.edge>path:hover{stroke-width:8}</style>
<path fill="none" stroke="black" d="M175.54,-71.7C170.25,-63.81 163.86,-54.3 157.98,-45.55"/>
<polygon fill="blue" stroke="black" points="160.97,-43.71 152.49,-37.36 155.16,-47.61 160.97,-43.71"/>
</g>
<!-- canvodpy_globals -->
<g id="node3" class="node">
<title>canvodpy_globals</title><style>.edge>path:hover{stroke-width:8}</style>
<ellipse fill="#f30c0c" stroke="black" cx="403.16" cy="-673.13" rx="27.66" ry="18"/>
<text xml:space="preserve" text-anchor="middle" x="403.16" y="-669.26" font-family="Helvetica,sans-Serif" font-size="10.00" fill="#ffffff">globals</text>
</g>
<!-- canvodpy_globals&#45;&gt;canvodpy -->
<g id="edge2" class="edge">
<title>canvodpy_globals&#45;&gt;canvodpy</title><style>.edge>path:hover{stroke-width:8}</style>
<path fill="none" stroke="black" d="M175.16,-600.13C141.13,-573.23 133.58,-564.53 107.16,-530.13"/>
<path fill="none" stroke="black" d="M93.16,-233C112.61,-167.63 127.87,-88.85 135.27,-47.51"/>
<polygon fill="#f30c0c" stroke="black" points="138.67,-48.36 136.96,-37.91 131.78,-47.15 138.67,-48.36"/>
<path fill="none" stroke="black" d="M375.6,-669.39C334.12,-664.35 254.13,-651.06 194.16,-619.13 184.16,-613.81 184.05,-609.16 175.16,-602.13"/>
<path fill="none" stroke="black" d="M107.16,-528.13C37.84,-437.86 -34.18,-389.07 18.16,-288 36.93,-251.75 76.72,-272.36 93.16,-235"/>
</g>
<!-- canvodpy_globals&#45;&gt;canvodpy_api -->
<g id="edge3" class="edge">
<title>canvodpy_globals&#45;&gt;canvodpy_api</title><style>.edge>path:hover{stroke-width:8}</style>
<path fill="none" stroke="black" d="M107.16,-528.13C52.26,-450.99 150.66,-417.06 168.16,-324 181.84,-251.26 185.67,-163.93 186.74,-119.69"/>
<polygon fill="#f30c0c" stroke="black" points="190.24,-119.99 186.95,-109.92 183.24,-119.85 190.24,-119.99"/>
</g>
<!-- canvodpy_logging_logging_config -->
<g id="node6" class="node">
<title>canvodpy_logging_logging_config</title><style>.edge>path:hover{stroke-width:8}</style>
<polygon fill="blue" stroke="black" points="749.28,-547.13 671.03,-547.13 671.03,-511.13 749.28,-511.13 749.28,-547.13"/>
<text xml:space="preserve" text-anchor="middle" x="710.16" y="-530.88" font-family="Helvetica,sans-Serif" font-size="10.00" fill="white">logging.</text>
<text xml:space="preserve" text-anchor="middle" x="710.16" y="-519.63" font-family="Helvetica,sans-Serif" font-size="10.00" fill="white">logging_config</text>
</g>
<!-- canvodpy_globals&#45;&gt;canvodpy_logging_logging_config -->
<g id="edge4" class="edge">
<title>canvodpy_globals&#45;&gt;canvodpy_logging_logging_config</title><style>.edge>path:hover{stroke-width:8}</style>
<path fill="none" stroke="black" d="M403.16,-600.13C464.27,-503.97 543.96,-574.06 659.79,-547.37"/>
<polygon fill="#f30c0c" stroke="black" points="660.45,-550.81 669.28,-544.95 658.72,-544.03 660.45,-550.81"/>
</g>
<!-- canvodpy_orchestrator_pipeline -->
<g id="node10" class="node">
<title>canvodpy_orchestrator_pipeline</title><style>.edge>path:hover{stroke-width:8}</style>
<polygon fill="blue" stroke="black" points="741.16,-252 671.16,-252 671.16,-216 741.16,-216 741.16,-252"/>
<text xml:space="preserve" text-anchor="middle" x="706.16" y="-235.75" font-family="Helvetica,sans-Serif" font-size="10.00" fill="white">orchestrator.</text>
<text xml:space="preserve" text-anchor="middle" x="706.16" y="-224.5" font-family="Helvetica,sans-Serif" font-size="10.00" fill="white">pipeline</text>
</g>
<!-- canvodpy_globals&#45;&gt;canvodpy_orchestrator_pipeline -->
<g id="edge5" class="edge">
<title>canvodpy_globals&#45;&gt;canvodpy_orchestrator_pipeline</title><style>.edge>path:hover{stroke-width:8}</style>
<path fill="none" stroke="black" d="M175.16,-600.13C126.13,-555.28 184.18,-350.79 234.16,-307"/>
<path fill="none" stroke="black" d="M234.16,-305C296.89,-249.98 553.17,-238.21 659.54,-235.69"/>
<polygon fill="#f30c0c" stroke="black" points="659.42,-239.19 669.34,-235.47 659.27,-232.19 659.42,-239.19"/>
</g>
<!-- canvodpy_orchestrator_processor -->
<g id="node11" class="node">
<title>canvodpy_orchestrator_processor</title><style>.edge>path:hover{stroke-width:8}</style>
<polygon fill="blue" stroke="black" points="804.16,-324 734.16,-324 734.16,-288 804.16,-288 804.16,-324"/>
<text xml:space="preserve" text-anchor="middle" x="769.16" y="-307.75" font-family="Helvetica,sans-Serif" font-size="10.00" fill="white">orchestrator.</text>
<text xml:space="preserve" text-anchor="middle" x="769.16" y="-296.5" font-family="Helvetica,sans-Serif" font-size="10.00" fill="white">processor</text>
</g>
<!-- canvodpy_globals&#45;&gt;canvodpy_orchestrator_processor -->
<g id="edge6" class="edge">
<title>canvodpy_globals&#45;&gt;canvodpy_orchestrator_processor</title><style>.edge>path:hover{stroke-width:8}</style>
<path fill="none" stroke="black" d="M403.16,-600.13C437.01,-546.87 368.38,-510.8 403.16,-458.13"/>
<path fill="none" stroke="black" d="M398.38,-655.17C395.16,-640.05 393.13,-617.93 403.16,-602.13"/>
</g>
<!-- canvodpy_logging -->
<g id="node4" class="node">
<title>canvodpy_logging</title><style>.edge>path:hover{stroke-width:8}</style>
<ellipse fill="#db2f2f" stroke="black" cx="239.16" cy="-457.13" rx="27.66" ry="18"/>
<text xml:space="preserve" text-anchor="middle" x="239.16" y="-453.26" font-family="Helvetica,sans-Serif" font-size="10.00" fill="#ffffff">logging</text>
</g>
<!-- canvodpy_logging&#45;&gt;canvodpy_orchestrator_pipeline -->
<g id="edge7" class="edge">
<title>canvodpy_logging&#45;&gt;canvodpy_orchestrator_pipeline</title><style>.edge>path:hover{stroke-width:8}</style>
<path fill="none" stroke="black" d="M234.16,-380.57C253.02,-353.86 209.57,-328.55 234.16,-307"/>
<path fill="none" stroke="black" d="M232.39,-439.31C227.13,-423.24 222.49,-399.09 234.16,-382.57"/>
</g>
<!-- canvodpy_logging&#45;&gt;canvodpy_orchestrator_processor -->
<g id="edge8" class="edge">
<title>canvodpy_logging&#45;&gt;canvodpy_orchestrator_processor</title><style>.edge>path:hover{stroke-width:8}</style>
<path fill="none" stroke="black" d="M234.16,-380.57C262.25,-340.78 597.23,-317.11 722.39,-309.61"/>
<polygon fill="#db2f2f" stroke="black" points="722.54,-313.11 732.31,-309.02 722.13,-306.12 722.54,-313.11"/>
</g>
<!-- canvodpy_logging_context -->
<g id="node5" class="node">
<title>canvodpy_logging_context</title><style>.edge>path:hover{stroke-width:8}</style>
<polygon fill="blue" stroke="black" points="728.16,-475.13 674.16,-475.13 674.16,-439.13 728.16,-439.13 728.16,-475.13"/>
<text xml:space="preserve" text-anchor="middle" x="701.16" y="-458.88" font-family="Helvetica,sans-Serif" font-size="10.00" fill="white">logging.</text>
<text xml:space="preserve" text-anchor="middle" x="701.16" y="-447.63" font-family="Helvetica,sans-Serif" font-size="10.00" fill="white">context</text>
</g>
<!-- canvodpy_logging_context&#45;&gt;canvodpy_orchestrator_pipeline -->
<g id="edge9" class="edge">
<title>canvodpy_logging_context&#45;&gt;canvodpy_orchestrator_pipeline</title><style>.edge>path:hover{stroke-width:8}</style>
<path fill="none" stroke="black" d="M728.58,-453.3C758.57,-448.57 805.3,-436.05 827.16,-403.13 841.29,-381.86 814.86,-290.24 813.16,-288 798.16,-268.33 773.89,-255.48 752.26,-247.37"/>
<polygon fill="blue" stroke="black" points="753.6,-244.13 743,-244.15 751.3,-250.74 753.6,-244.13"/>
</g>
<!-- canvodpy_logging_context&#45;&gt;canvodpy_orchestrator_processor -->
<g id="edge10" class="edge">
<title>canvodpy_logging_context&#45;&gt;canvodpy_orchestrator_processor</title><style>.edge>path:hover{stroke-width:8}</style>
<path fill="none" stroke="black" d="M691.74,-438.95C683.49,-421.36 675.2,-394.9 692.16,-382.57"/>
</g>
<!-- canvodpy_logging_logging_config&#45;&gt;canvodpy_logging_context -->
<g id="edge11" class="edge">
<title>canvodpy_logging_logging_config&#45;&gt;canvodpy_logging_context</title><style>.edge>path:hover{stroke-width:8}</style>
<path fill="none" stroke="black" d="M707.93,-510.83C706.99,-503.46 705.86,-494.66 704.79,-486.38"/>
<polygon fill="blue" stroke="black" points="708.3,-486.21 703.55,-476.74 701.36,-487.1 708.3,-486.21"/>
</g>
<!-- canvodpy_orchestrator -->
<g id="node7" class="node">
<title>canvodpy_orchestrator</title><style>.edge>path:hover{stroke-width:8}</style>
<polygon fill="blue" stroke="black" points="740.03,-180 672.28,-180 672.28,-144 740.03,-144 740.03,-180"/>
<text xml:space="preserve" text-anchor="middle" x="706.16" y="-158.12" font-family="Helvetica,sans-Serif" font-size="10.00" fill="white">orchestrator</text>
</g>
<!-- canvodpy_orchestrator&#45;&gt;canvodpy_api -->
<g id="edge12" class="edge">
<title>canvodpy_orchestrator&#45;&gt;canvodpy_api</title><style>.edge>path:hover{stroke-width:8}</style>
<path fill="none" stroke="black" d="M672.11,-156.41C579.56,-143.92 323.82,-109.43 225.95,-96.23"/>
<polygon fill="blue" stroke="black" points="226.43,-92.76 216.05,-94.9 225.49,-99.7 226.43,-92.76"/>
</g>
<!-- canvodpy_orchestrator_interpolator -->
<g id="node8" class="node">
<title>canvodpy_orchestrator_interpolator</title><style>.edge>path:hover{stroke-width:8}</style>
<ellipse fill="#b83d3d" stroke="black" cx="961.16" cy="-381.57" rx="49.5" ry="21.57"/>
<text xml:space="preserve" text-anchor="middle" x="961.16" y="-383.32" font-family="Helvetica,sans-Serif" font-size="10.00" fill="#ffffff">orchestrator.</text>
<text xml:space="preserve" text-anchor="middle" x="961.16" y="-372.07" font-family="Helvetica,sans-Serif" font-size="10.00" fill="#ffffff">interpolator</text>
</g>
<!-- canvodpy_orchestrator_interpolator&#45;&gt;canvodpy_orchestrator_processor -->
<g id="edge13" class="edge">
<title>canvodpy_orchestrator_interpolator&#45;&gt;canvodpy_orchestrator_processor</title><style>.edge>path:hover{stroke-width:8}</style>
<path fill="none" stroke="black" d="M924.59,-366.56C893.47,-354.63 848.61,-337.44 815.07,-324.59"/>
<polygon fill="#b83d3d" stroke="black" points="816.62,-321.44 806.03,-321.13 814.11,-327.97 816.62,-321.44"/>
</g>
<!-- canvodpy_orchestrator_matcher -->
<g id="node9" class="node">
<title>canvodpy_orchestrator_matcher</title><style>.edge>path:hover{stroke-width:8}</style>
<ellipse fill="#c24747" stroke="black" cx="769.16" cy="-381.57" rx="49.5" ry="21.57"/>
<text xml:space="preserve" text-anchor="middle" x="769.16" y="-383.32" font-family="Helvetica,sans-Serif" font-size="10.00" fill="#ffffff">orchestrator.</text>
<text xml:space="preserve" text-anchor="middle" x="769.16" y="-372.07" font-family="Helvetica,sans-Serif" font-size="10.00" fill="#ffffff">matcher</text>
</g>
<!-- canvodpy_orchestrator_matcher&#45;&gt;canvodpy_orchestrator_processor -->
<g id="edge14" class="edge">
<title>canvodpy_orchestrator_matcher&#45;&gt;canvodpy_orchestrator_processor</title><style>.edge>path:hover{stroke-width:8}</style>
<path fill="none" stroke="black" d="M769.16,-359.68C769.16,-352.24 769.16,-343.71 769.16,-335.72"/>
<polygon fill="#c24747" stroke="black" points="772.66,-335.73 769.16,-325.73 765.66,-335.73 772.66,-335.73"/>
</g>
<!-- canvodpy_orchestrator_pipeline&#45;&gt;canvodpy_orchestrator -->
<g id="edge15" class="edge">
<title>canvodpy_orchestrator_pipeline&#45;&gt;canvodpy_orchestrator</title><style>.edge>path:hover{stroke-width:8}</style>
<path fill="none" stroke="black" d="M706.16,-215.7C706.16,-208.41 706.16,-199.73 706.16,-191.54"/>
<polygon fill="blue" stroke="black" points="709.66,-191.62 706.16,-181.62 702.66,-191.62 709.66,-191.62"/>
</g>
<!-- canvodpy_orchestrator_processor&#45;&gt;canvodpy_orchestrator -->
<g id="edge16" class="edge">
<title>canvodpy_orchestrator_processor&#45;&gt;canvodpy_orchestrator</title><style>.edge>path:hover{stroke-width:8}</style>
<path fill="none" stroke="black" d="M767.94,-287.81C766.08,-269.28 761.47,-239.31 750.16,-216 745.41,-206.2 738.47,-196.67 731.5,-188.45"/>
<polygon fill="blue" stroke="black" points="734.31,-186.35 725.04,-181.23 729.1,-191.01 734.31,-186.35"/>
</g>
<!-- canvodpy_orchestrator_processor&#45;&gt;canvodpy_orchestrator_pipeline -->
<g id="edge17" class="edge">
<title>canvodpy_orchestrator_processor&#45;&gt;canvodpy_orchestrator_pipeline</title><style>.edge>path:hover{stroke-width:8}</style>
<path fill="none" stroke="black" d="M753.59,-287.7C746.19,-279.47 737.19,-269.48 729.04,-260.42"/>
<polygon fill="blue" stroke="black" points="731.86,-258.32 722.57,-253.23 726.65,-263 731.86,-258.32"/>
</g>
<!-- canvodpy_research_sites_config -->
<g id="node12" class="node">
<title>canvodpy_research_sites_config</title><style>.edge>path:hover{stroke-width:8}</style>
<ellipse fill="#c04040" stroke="black" cx="93.16" cy="-306" rx="65.83" ry="18"/>
<text xml:space="preserve" text-anchor="middle" x="93.16" y="-302.12" font-family="Helvetica,sans-Serif" font-size="10.00" fill="#ffffff">research_sites_config</text>
</g>
<!-- canvodpy_research_sites_config&#45;&gt;canvodpy -->
<g id="edge18" class="edge">
<title>canvodpy_research_sites_config&#45;&gt;canvodpy</title><style>.edge>path:hover{stroke-width:8}</style>
<path fill="none" stroke="black" d="M90.45,-287.63C88.84,-273.22 88,-252.36 93.16,-235"/>
</g>
<!-- canvodpy_settings -->
<g id="node13" class="node">
<title>canvodpy_settings</title><style>.edge>path:hover{stroke-width:8}</style>
<ellipse fill="#c04040" stroke="black" cx="330.16" cy="-457.13" rx="29.88" ry="18"/>
<text xml:space="preserve" text-anchor="middle" x="330.16" y="-453.26" font-family="Helvetica,sans-Serif" font-size="10.00" fill="#ffffff">settings</text>
</g>
<!-- canvodpy_settings&#45;&gt;canvodpy_orchestrator_processor -->
<g id="edge19" class="edge">
<title>canvodpy_settings&#45;&gt;canvodpy_orchestrator_processor</title><style>.edge>path:hover{stroke-width:8}</style>
<path fill="none" stroke="black" d="M692.16,-380.57C702.22,-373.25 702.34,-368.78 711.16,-360 720.64,-350.57 731.36,-340.6 740.98,-331.87"/>
<polygon fill="#c04040" stroke="black" points="743.22,-334.57 748.32,-325.28 738.54,-329.36 743.22,-334.57"/>
<path fill="none" stroke="black" d="M356.45,-447.97C366.61,-444.97 378.37,-441.69 389.16,-439.13 522.47,-407.56 581.38,-463.16 692.16,-382.57"/>
</g>
<!-- dask -->
<g id="node14" class="node">
<title>dask</title><style>.edge>path:hover{stroke-width:8}</style>
<polygon fill="blue" stroke="black" points="897.16,-691.13 894.16,-695.13 873.16,-695.13 870.16,-691.13 843.16,-691.13 843.16,-655.13 897.16,-655.13 897.16,-691.13"/>
<text xml:space="preserve" text-anchor="middle" x="870.16" y="-669.26" font-family="Helvetica,sans-Serif" font-size="10.00" fill="white">dask</text>
</g>
<!-- dask&#45;&gt;canvodpy_orchestrator_processor -->
<g id="edge20" class="edge">
<title>dask&#45;&gt;canvodpy_orchestrator_processor</title><style>.edge>path:hover{stroke-width:8}</style>
<path fill="none" stroke="black" d="M873.08,-654.7C878.88,-618.27 891.14,-531.4 889.16,-458.13"/>
</g>
<!-- icechunk -->
<g id="node16" class="node">
<title>icechunk</title><style>.edge>path:hover{stroke-width:8}</style>
<polygon fill="blue" stroke="black" points="860.66,-547.13 857.66,-551.13 836.66,-551.13 833.66,-547.13 805.66,-547.13 805.66,-511.13 860.66,-511.13 860.66,-547.13"/>
<text xml:space="preserve" text-anchor="middle" x="833.16" y="-525.26" font-family="Helvetica,sans-Serif" font-size="10.00" fill="white">icechunk</text>
</g>
<!-- dask&#45;&gt;icechunk -->
<g id="edge21" class="edge">
<title>dask&#45;&gt;icechunk</title><style>.edge>path:hover{stroke-width:8}</style>
<path fill="none" stroke="black" d="M865.34,-654.91C861.42,-640.76 855.8,-620.18 851.16,-602.13"/>
</g>
<!-- dotenv -->
<g id="node15" class="node">
<title>dotenv</title><style>.edge>path:hover{stroke-width:8}</style>
<polygon fill="#c4af31" stroke="black" points="257.16,-619.13 254.16,-623.13 233.16,-623.13 230.16,-619.13 203.16,-619.13 203.16,-583.13 257.16,-583.13 257.16,-619.13"/>
<text xml:space="preserve" text-anchor="middle" x="230.16" y="-597.26" font-family="Helvetica,sans-Serif" font-size="10.00" fill="#000000">dotenv</text>
</g>
<!-- dotenv&#45;&gt;canvodpy_orchestrator_processor -->
<g id="edge22" class="edge">
<title>dotenv&#45;&gt;canvodpy_orchestrator_processor</title><style>.edge>path:hover{stroke-width:8}</style>
<path fill="none" stroke="black" d="M403.16,-456.13C476.2,-345.53 584.98,-460.54 692.16,-382.57"/>
<path fill="none" stroke="black" d="M221.16,-528.13C262.21,-451.81 355.4,-530.45 403.16,-458.13"/>
</g>
<!-- dotenv&#45;&gt;canvodpy_research_sites_config -->
<g id="edge23" class="edge">
<title>dotenv&#45;&gt;canvodpy_research_sites_config</title><style>.edge>path:hover{stroke-width:8}</style>
<path fill="none" stroke="black" d="M222,-582.67C199.01,-533.48 133.56,-393.44 105.83,-334.1"/>
<polygon fill="#c4af31" stroke="black" points="109.15,-332.95 101.75,-325.37 102.81,-335.91 109.15,-332.95"/>
</g>
<!-- dotenv&#45;&gt;canvodpy_settings -->
<g id="edge24" class="edge">
<title>dotenv&#45;&gt;canvodpy_settings</title><style>.edge>path:hover{stroke-width:8}</style>
<path fill="none" stroke="black" d="M222.44,-582.69C217.1,-567.85 212.4,-546.43 221.16,-530.13"/>
<path fill="none" stroke="black" d="M221.16,-528.13C236.35,-499.88 268.45,-481.38 293.9,-470.54"/>
<polygon fill="#c4af31" stroke="black" points="294.95,-473.89 302.93,-466.92 292.34,-467.39 294.95,-473.89"/>
</g>
<!-- icechunk&#45;&gt;canvodpy_orchestrator_processor -->
<g id="edge25" class="edge">
<title>icechunk&#45;&gt;canvodpy_orchestrator_processor</title><style>.edge>path:hover{stroke-width:8}</style>
<path fill="none" stroke="black" d="M858.89,-510.88C874.34,-498.22 890.73,-479.55 889.16,-458.13"/>
<path fill="none" stroke="black" d="M889.16,-456.13C885.25,-402.81 838.86,-357.61 804.93,-331.39"/>
<polygon fill="blue" stroke="black" points="807.05,-328.6 796.95,-325.41 802.86,-334.2 807.05,-328.6"/>
</g>
<!-- natsort -->
<g id="node17" class="node">
<title>natsort</title><style>.edge>path:hover{stroke-width:8}</style>
<polygon fill="blue" stroke="black" points="303.16,-547.13 300.16,-551.13 279.16,-551.13 276.16,-547.13 249.16,-547.13 249.16,-511.13 303.16,-511.13 303.16,-547.13"/>
<text xml:space="preserve" text-anchor="middle" x="276.16" y="-525.26" font-family="Helvetica,sans-Serif" font-size="10.00" fill="white">natsort</text>
</g>
<!-- natsort&#45;&gt;canvodpy_orchestrator_processor -->
<g id="edge26" class="edge">
<title>natsort&#45;&gt;canvodpy_orchestrator_processor</title><style>.edge>path:hover{stroke-width:8}</style>
<path fill="none" stroke="black" d="M303.52,-514.76C338.99,-497.17 397.04,-467.4 403.16,-458.13"/>
</g>
<!-- packaging -->
<g id="node18" class="node">
<title>packaging</title><style>.edge>path:hover{stroke-width:8}</style>
<polygon fill="#2fdb47" stroke="black" points="900.28,-907.13 897.28,-911.13 876.28,-911.13 873.28,-907.13 840.03,-907.13 840.03,-871.13 900.28,-871.13 900.28,-907.13"/>
<text xml:space="preserve" text-anchor="middle" x="870.16" y="-885.26" font-family="Helvetica,sans-Serif" font-size="10.00" fill="#000000">packaging</text>
</g>
<!-- packaging&#45;&gt;dask -->
<g id="edge27" class="edge">
<title>packaging&#45;&gt;dask</title><style>.edge>path:hover{stroke-width:8}</style>
<path fill="none" stroke="black" d="M870.16,-744.13C867.69,-730.73 867.38,-715.63 867.82,-702.9"/>
<polygon fill="#2fdb47" stroke="black" points="871.3,-703.24 868.34,-693.06 864.31,-702.87 871.3,-703.24"/>
</g>
<!-- packaging&#45;&gt;icechunk -->
<g id="edge28" class="edge">
<title>packaging&#45;&gt;icechunk</title><style>.edge>path:hover{stroke-width:8}</style>
<path fill="none" stroke="black" d="M851.16,-600.13C848.03,-586.36 844.17,-571.17 840.83,-558.47"/>
<polygon fill="#2fdb47" stroke="black" points="844.28,-557.84 838.33,-549.08 837.52,-559.64 844.28,-557.84"/>
<path fill="none" stroke="black" d="M870.16,-744.13C864.99,-716.13 842.53,-718.35 834.16,-691.13 829.46,-675.84 831.69,-670.94 834.16,-655.13 837.98,-630.69 856.65,-626.25 851.16,-602.13"/>
<path fill="none" stroke="black" d="M871.55,-871C873.42,-844.22 875.87,-790.88 870.16,-746.13"/>
</g>
<!-- pint -->
<g id="node19" class="node">
<title>pint</title><style>.edge>path:hover{stroke-width:8}</style>
<polygon fill="blue" stroke="black" points="617.16,-835.13 614.16,-839.13 593.16,-839.13 590.16,-835.13 563.16,-835.13 563.16,-799.13 617.16,-799.13 617.16,-835.13"/>
<text xml:space="preserve" text-anchor="middle" x="590.16" y="-813.26" font-family="Helvetica,sans-Serif" font-size="10.00" fill="white">pint</text>
</g>
<!-- pint&#45;&gt;canvodpy_globals -->
<g id="edge29" class="edge">
<title>pint&#45;&gt;canvodpy_globals</title><style>.edge>path:hover{stroke-width:8}</style>
<path fill="none" stroke="black" d="M567.23,-798.72C532.49,-772.34 466.69,-722.37 429.85,-694.4"/>
<polygon fill="blue" stroke="black" points="432,-691.64 421.92,-688.38 427.76,-697.21 432,-691.64"/>
</g>
<!-- pint&#45;&gt;canvodpy_orchestrator_processor -->
<g id="edge30" class="edge">
<title>pint&#45;&gt;canvodpy_orchestrator_processor</title><style>.edge>path:hover{stroke-width:8}</style>
<path fill="none" stroke="black" d="M617.64,-814.02C652.14,-809.94 711.04,-797.99 746.16,-763.13 775.89,-733.63 777.16,-716.02 777.16,-674.13 777.16,-674.13 777.16,-674.13 777.16,-600.13 777.16,-526.4 771.07,-504.6 737.16,-439.13 722.38,-410.61 666.18,-401.47 692.16,-382.57"/>
</g>
<!-- polars -->
<g id="node20" class="node">
<title>polars</title><style>.edge>path:hover{stroke-width:8}</style>
<polygon fill="blue" stroke="black" points="375.16,-547.13 372.16,-551.13 351.16,-551.13 348.16,-547.13 321.16,-547.13 321.16,-511.13 375.16,-511.13 375.16,-547.13"/>
<text xml:space="preserve" text-anchor="middle" x="348.16" y="-525.26" font-family="Helvetica,sans-Serif" font-size="10.00" fill="white">polars</text>
</g>
<!-- polars&#45;&gt;canvodpy_orchestrator_processor -->
<g id="edge31" class="edge">
<title>polars&#45;&gt;canvodpy_orchestrator_processor</title><style>.edge>path:hover{stroke-width:8}</style>
<path fill="none" stroke="black" d="M363.01,-510.9C374.58,-497.08 390.72,-476.96 403.16,-458.13"/>
</g>
<!-- pydantic_core -->
<g id="node21" class="node">
<title>pydantic_core</title><style>.edge>path:hover{stroke-width:8}</style>
<polygon fill="blue" stroke="black" points="507.53,-547.13 504.53,-551.13 483.53,-551.13 480.53,-547.13 430.78,-547.13 430.78,-511.13 507.53,-511.13 507.53,-547.13"/>
<text xml:space="preserve" text-anchor="middle" x="469.16" y="-525.26" font-family="Helvetica,sans-Serif" font-size="10.00" fill="white">pydantic_core</text>
</g>
<!-- pydantic_core&#45;&gt;canvodpy_orchestrator_processor -->
<g id="edge32" class="edge">
<title>pydantic_core&#45;&gt;canvodpy_orchestrator_processor</title><style>.edge>path:hover{stroke-width:8}</style>
<path fill="none" stroke="black" d="M434.24,-510.91C412.13,-497.57 390,-478.06 403.16,-458.13"/>
</g>
<!-- pymap3d -->
<g id="node22" class="node">
<title>pymap3d</title><style>.edge>path:hover{stroke-width:8}</style>
<polygon fill="blue" stroke="black" points="581.03,-547.13 578.03,-551.13 557.03,-551.13 554.03,-547.13 525.28,-547.13 525.28,-511.13 581.03,-511.13 581.03,-547.13"/>
<text xml:space="preserve" text-anchor="middle" x="553.16" y="-525.26" font-family="Helvetica,sans-Serif" font-size="10.00" fill="white">pymap3d</text>
</g>
<!-- pymap3d&#45;&gt;canvodpy_orchestrator_processor -->
<g id="edge33" class="edge">
<title>pymap3d&#45;&gt;canvodpy_orchestrator_processor</title><style>.edge>path:hover{stroke-width:8}</style>
<path fill="none" stroke="black" d="M524.84,-515.13C481.24,-495.07 402.7,-458.83 403.16,-458.13"/>
</g>
<!-- scipy -->
<g id="node23" class="node">
<title>scipy</title><style>.edge>path:hover{stroke-width:8}</style>
<polygon fill="blue" stroke="black" points="988.16,-619.13 985.16,-623.13 964.16,-623.13 961.16,-619.13 934.16,-619.13 934.16,-583.13 988.16,-583.13 988.16,-619.13"/>
<text xml:space="preserve" text-anchor="middle" x="961.16" y="-597.26" font-family="Helvetica,sans-Serif" font-size="10.00" fill="white">scipy</text>
</g>
<!-- scipy&#45;&gt;canvodpy_orchestrator_interpolator -->
<g id="edge34" class="edge">
<title>scipy&#45;&gt;canvodpy_orchestrator_interpolator</title><style>.edge>path:hover{stroke-width:8}</style>
<path fill="none" stroke="black" d="M961.16,-582.7C961.16,-546.24 961.16,-461.49 961.16,-414.82"/>
<polygon fill="blue" stroke="black" points="964.66,-415.07 961.16,-405.07 957.66,-415.07 964.66,-415.07"/>
</g>
<!-- structlog -->
<g id="node24" class="node">
<title>structlog</title><style>.edge>path:hover{stroke-width:8}</style>
<polygon fill="blue" stroke="black" points="737.16,-763.13 734.16,-767.13 713.16,-767.13 710.16,-763.13 683.16,-763.13 683.16,-727.13 737.16,-727.13 737.16,-763.13"/>
<text xml:space="preserve" text-anchor="middle" x="710.16" y="-741.26" font-family="Helvetica,sans-Serif" font-size="10.00" fill="white">structlog</text>
</g>
<!-- structlog&#45;&gt;canvodpy_logging_logging_config -->
<g id="edge35" class="edge">
<title>structlog&#45;&gt;canvodpy_logging_logging_config</title><style>.edge>path:hover{stroke-width:8}</style>
<path fill="none" stroke="black" d="M710.16,-726.98C710.16,-690.28 710.16,-603.79 710.16,-558.67"/>
<polygon fill="blue" stroke="black" points="713.66,-558.88 710.16,-548.88 706.66,-558.88 713.66,-558.88"/>
</g>
<!-- tqdm -->
<g id="node25" class="node">
<title>tqdm</title><style>.edge>path:hover{stroke-width:8}</style>
<polygon fill="blue" stroke="black" points="653.16,-547.13 650.16,-551.13 629.16,-551.13 626.16,-547.13 599.16,-547.13 599.16,-511.13 653.16,-511.13 653.16,-547.13"/>
<text xml:space="preserve" text-anchor="middle" x="626.16" y="-525.26" font-family="Helvetica,sans-Serif" font-size="10.00" fill="white">tqdm</text>
</g>
<!-- tqdm&#45;&gt;canvodpy_orchestrator_processor -->
<g id="edge36" class="edge">
<title>tqdm&#45;&gt;canvodpy_orchestrator_processor</title><style>.edge>path:hover{stroke-width:8}</style>
<path fill="none" stroke="black" d="M598.84,-514.66C595.94,-513.4 593.01,-512.2 590.16,-511.13 509.27,-480.81 355.55,-530.22 403.16,-458.13"/>
</g>
<!-- zarr -->
<g id="node26" class="node">
<title>zarr</title><style>.edge>path:hover{stroke-width:8}</style>
<polygon fill="blue" stroke="black" points="952.16,-763.13 949.16,-767.13 928.16,-767.13 925.16,-763.13 898.16,-763.13 898.16,-727.13 952.16,-727.13 952.16,-763.13"/>
<text xml:space="preserve" text-anchor="middle" x="925.16" y="-741.26" font-family="Helvetica,sans-Serif" font-size="10.00" fill="white">zarr</text>
</g>
<!-- zarr&#45;&gt;icechunk -->
<g id="edge37" class="edge">
<title>zarr&#45;&gt;icechunk</title><style>.edge>path:hover{stroke-width:8}</style>
<path fill="none" stroke="black" d="M924.44,-726.69C923,-707.94 918.74,-677.78 906.16,-655.13 889.67,-625.46 859.61,-635.01 851.16,-602.13"/>
</g>
</g>
</svg>
