<svg xmlns="http://www.w3.org/2000/svg" viewBox="0 0 739.8625 3780" width="739.8625" height="3780" style="--bg:#FFFFFF;--fg:#27272A;background:var(--bg)">
<style>
  @import url('https://fonts.googleapis.com/css2?family=Inter:wght@400;500;600;700&amp;display=swap');
  text { font-family: 'Inter', system-ui, sans-serif; }
  svg {
    /* Derived from --bg and --fg (overridable via --line, --accent, etc.) */
    --_text:          var(--fg);
    --_text-sec:      var(--muted, color-mix(in srgb, var(--fg) 60%, var(--bg)));
    --_text-muted:    var(--muted, color-mix(in srgb, var(--fg) 40%, var(--bg)));
    --_text-faint:    color-mix(in srgb, var(--fg) 25%, var(--bg));
    --_line:          var(--line, color-mix(in srgb, var(--fg) 30%, var(--bg)));
    --_arrow:         var(--accent, color-mix(in srgb, var(--fg) 50%, var(--bg)));
    --_node-fill:     var(--surface, color-mix(in srgb, var(--fg) 3%, var(--bg)));
    --_node-stroke:   var(--border, color-mix(in srgb, var(--fg) 20%, var(--bg)));
    --_group-fill:    var(--bg);
    --_group-hdr:     color-mix(in srgb, var(--fg) 5%, var(--bg));
    --_inner-stroke:  color-mix(in srgb, var(--fg) 12%, var(--bg));
    --_key-badge:     color-mix(in srgb, var(--fg) 10%, var(--bg));
  }
</style>
<defs>
  <marker id="arrowhead" markerWidth="8" markerHeight="4.8" refX="8" refY="2.4" orient="auto">
    <polygon points="0 0, 8 2.4, 0 4.8" fill="var(--_arrow)" />
  </marker>
  <marker id="arrowhead-start" markerWidth="8" markerHeight="4.8" refX="0" refY="2.4" orient="auto-start-reverse">
    <polygon points="8 0, 0 2.4, 8 4.8" fill="var(--_arrow)" />
  </marker>
</defs>
<rect x="64.02500000000009" y="40" width="457.2874999999999" height="424" rx="0" ry="0" fill="var(--_group-fill)" stroke="var(--_node-stroke)" stroke-width="1" />
<rect x="64.02500000000009" y="40" width="457.2874999999999" height="28" rx="0" ry="0" fill="var(--_group-hdr)" stroke="var(--_node-stroke)" stroke-width="1" />
<text x="76.02500000000009" y="54" dy="0.35em" font-size="12" font-weight="600" fill="var(--_text-sec)">&quot;Configuration&quot;</text>
<rect x="39.99999999999997" y="2068" width="217.6125" height="1672" rx="0" ry="0" fill="var(--_group-fill)" stroke="var(--_node-stroke)" stroke-width="1" />
<rect x="39.99999999999997" y="2068" width="217.6125" height="28" rx="0" ry="0" fill="var(--_group-hdr)" stroke="var(--_node-stroke)" stroke-width="1" />
<text x="51.99999999999997" y="2082" dy="0.35em" font-size="12" font-weight="600" fill="var(--_text-sec)">&quot;Initialization&quot;</text>
<rect x="288.0625" y="508" width="352.75" height="424" rx="0" ry="0" fill="var(--_group-fill)" stroke="var(--_node-stroke)" stroke-width="1" />
<rect x="288.0625" y="508" width="352.75" height="28" rx="0" ry="0" fill="var(--_group-hdr)" stroke="var(--_node-stroke)" stroke-width="1" />
<text x="300.0625" y="522" dy="0.35em" font-size="12" font-weight="600" fill="var(--_text-sec)">&quot;Discovery&quot;</text>
<rect x="480.86249999999995" y="976" width="219" height="424" rx="0" ry="0" fill="var(--_group-fill)" stroke="var(--_node-stroke)" stroke-width="1" />
<rect x="480.86249999999995" y="976" width="219" height="28" rx="0" ry="0" fill="var(--_group-hdr)" stroke="var(--_node-stroke)" stroke-width="1" />
<text x="492.86249999999995" y="990" dy="0.35em" font-size="12" font-weight="600" fill="var(--_text-sec)">&quot;Auxiliary Pipeline&quot;</text>
<rect x="249.73749999999993" y="1132" width="211.12500000000006" height="580" rx="0" ry="0" fill="var(--_group-fill)" stroke="var(--_node-stroke)" stroke-width="1" />
<rect x="249.73749999999993" y="1132" width="211.12500000000006" height="28" rx="0" ry="0" fill="var(--_group-hdr)" stroke="var(--_node-stroke)" stroke-width="1" />
<text x="261.73749999999995" y="1146" dy="0.35em" font-size="12" font-weight="600" fill="var(--_text-sec)">&quot;Parallel Processing&quot;</text>
<rect x="277.6125" y="1756" width="161.79999999999995" height="424" rx="0" ry="0" fill="var(--_group-fill)" stroke="var(--_node-stroke)" stroke-width="1" />
<rect x="277.6125" y="1756" width="161.79999999999995" height="28" rx="0" ry="0" fill="var(--_group-hdr)" stroke="var(--_node-stroke)" stroke-width="1" />
<text x="289.6125" y="1770" dy="0.35em" font-size="12" font-weight="600" fill="var(--_text-sec)">&quot;Storage&quot;</text>
<rect x="397.11249999999995" y="2380" width="176.10000000000008" height="424" rx="0" ry="0" fill="var(--_group-fill)" stroke="var(--_node-stroke)" stroke-width="1" />
<rect x="397.11249999999995" y="2380" width="176.10000000000008" height="28" rx="0" ry="0" fill="var(--_group-hdr)" stroke="var(--_node-stroke)" stroke-width="1" />
<text x="409.11249999999995" y="2394" dy="0.35em" font-size="12" font-weight="600" fill="var(--_text-sec)">&quot;Grid&quot;</text>
<rect x="315.0875" y="2848" width="330.99999999999994" height="580" rx="0" ry="0" fill="var(--_group-fill)" stroke="var(--_node-stroke)" stroke-width="1" />
<rect x="315.0875" y="2848" width="330.99999999999994" height="28" rx="0" ry="0" fill="var(--_group-hdr)" stroke="var(--_node-stroke)" stroke-width="1" />
<text x="327.0875" y="2862" dy="0.35em" font-size="12" font-weight="600" fill="var(--_text-sec)">&quot;VOD&quot;</text>
<rect x="301.7875" y="3472" width="373.9" height="112" rx="0" ry="0" fill="var(--_group-fill)" stroke="var(--_node-stroke)" stroke-width="1" />
<rect x="301.7875" y="3472" width="373.9" height="28" rx="0" ry="0" fill="var(--_group-hdr)" stroke="var(--_node-stroke)" stroke-width="1" />
<text x="313.7875" y="3486" dy="0.35em" font-size="12" font-weight="600" fill="var(--_text-sec)">&quot;Output&quot;</text>
<polyline points="339.51250000000005,132 339.51250000000005,252" fill="none" stroke="var(--_line)" stroke-width="0.75" marker-end="url(#arrowhead)" />
<polyline points="339.51250000000005,288 339.51250000000005,408" fill="none" stroke="var(--_line)" stroke-width="0.75" marker-end="url(#arrowhead)" />
<polyline points="339.51250000000005,444 339.51250000000005,464 120.90000000000009,464 120.90000000000009,2124" fill="none" stroke="var(--_line)" stroke-width="0.75" marker-end="url(#arrowhead)" />
<polyline points="120.90000000000009,2160 120.90000000000009,2180 163.13750000000005,2180 163.13750000000005,2298 110.66250000000005,2298" fill="none" stroke="var(--_line)" stroke-width="0.75" marker-end="url(#arrowhead)" />
<polyline points="120.90000000000009,2160 120.90000000000009,2180 88.66250000000002,2180 88.66250000000002,3702 62.00000000000004,3702" fill="none" stroke="var(--_line)" stroke-width="0.75" marker-end="url(#arrowhead)" />
<polyline points="339.51250000000005,444 339.51250000000005,464 474.4375,464 474.4375,564" fill="none" stroke="var(--_line)" stroke-width="0.75" marker-end="url(#arrowhead)" />
<polyline points="474.4375,600 474.4375,720" fill="none" stroke="var(--_line)" stroke-width="0.75" marker-end="url(#arrowhead)" />
<polyline points="474.4375,756 474.4375,876" fill="none" stroke="var(--_line)" stroke-width="0.75" marker-end="url(#arrowhead)" />
<polyline points="474.4375,912 474.4375,932 590.3625,932 590.3625,1032" fill="none" stroke="var(--_line)" stroke-width="0.75" marker-end="url(#arrowhead)" />
<polyline points="590.3625,1068 590.3625,1188" fill="none" stroke="var(--_line)" stroke-width="0.75" marker-end="url(#arrowhead)" />
<polyline points="590.3625,1224 590.3625,1344" fill="none" stroke="var(--_line)" stroke-width="0.75" marker-end="url(#arrowhead)" />
<polyline points="474.4375,912 474.4375,932 348.5125,932 348.5125,1188" fill="none" stroke="var(--_line)" stroke-width="0.75" marker-end="url(#arrowhead)" />
<polyline points="348.5125,1224 348.5125,1344" fill="none" stroke="var(--_line)" stroke-width="0.75" marker-end="url(#arrowhead)" />
<polyline points="348.5125,1380 348.5125,1518 281.73749999999995,1518" fill="none" stroke="var(--_line)" stroke-width="0.75" marker-end="url(#arrowhead)" />
<polyline points="358.5125,1536 358.5125,1656" fill="none" stroke="var(--_line)" stroke-width="0.75" marker-end="url(#arrowhead)" />
<polyline points="590.3625,1380 590.3625,1420 399.6875,1420 399.6875,1518 435.2875,1518" fill="none" stroke="var(--_line)" stroke-width="0.75" marker-end="url(#arrowhead)" />
<polyline points="358.5125,1692 358.5125,1812" fill="none" stroke="var(--_line)" stroke-width="0.75" marker-end="url(#arrowhead)" />
<polyline points="358.5125,1848 358.5125,1968" fill="none" stroke="var(--_line)" stroke-width="0.75" marker-end="url(#arrowhead)" />
<polyline points="358.5125,2004 358.5125,2124" fill="none" stroke="var(--_line)" stroke-width="0.75" marker-end="url(#arrowhead)" />
<polyline points="358.5125,2160 358.5125,2200 205.375,2200 205.375,2298 235.61250000000004,2298" fill="none" stroke="var(--_line)" stroke-width="0.75" marker-end="url(#arrowhead)" />
<polyline points="173.13750000000005,2316 173.13750000000005,2454 426.26250000000005,2454" fill="none" stroke="var(--_line)" stroke-width="0.75" marker-end="url(#arrowhead)" />
<polyline points="485.1625,2472 485.1625,2592" fill="none" stroke="var(--_line)" stroke-width="0.75" marker-end="url(#arrowhead)" />
<polyline points="485.1625,2628 485.1625,2748" fill="none" stroke="var(--_line)" stroke-width="0.75" marker-end="url(#arrowhead)" />
<polyline points="485.1625,2784 485.1625,2904" fill="none" stroke="var(--_line)" stroke-width="0.75" marker-end="url(#arrowhead)" />
<polyline points="485.1625,2940 485.1625,3060" fill="none" stroke="var(--_line)" stroke-width="0.75" marker-end="url(#arrowhead)" />
<polyline points="485.1625,3096 485.1625,3216" fill="none" stroke="var(--_line)" stroke-width="0.75" marker-end="url(#arrowhead)" />
<polyline points="485.1625,3252 485.1625,3372" fill="none" stroke="var(--_line)" stroke-width="0.75" marker-end="url(#arrowhead)" />
<polyline points="485.1625,3408 485.1625,3428 364.8125,3428 364.8125,3528" fill="none" stroke="var(--_line)" stroke-width="0.75" marker-end="url(#arrowhead)" />
<polyline points="364.8125,3564 364.8125,3604 191.8,3604 191.8,3702 172.65000000000003,3702" fill="none" stroke="var(--_line)" stroke-width="0.75" marker-end="url(#arrowhead)" />
<polyline points="485.1625,3408 485.1625,3528" fill="none" stroke="var(--_line)" stroke-width="0.75" marker-end="url(#arrowhead)" />
<polyline points="485.1625,3408 485.1625,3428 609.0875,3428 609.0875,3528" fill="none" stroke="var(--_line)" stroke-width="0.75" marker-end="url(#arrowhead)" />
<rect x="302.06250000000006" y="96" width="74.9" height="36" rx="0" ry="0" fill="var(--_node-fill)" stroke="var(--_node-stroke)" stroke-width="0.75" />
<rect x="287.76250000000005" y="252" width="103.5" height="36" rx="0" ry="0" fill="var(--_node-fill)" stroke="var(--_node-stroke)" stroke-width="0.75" />
<rect x="294.9125" y="408" width="89.2" height="36" rx="0" ry="0" fill="var(--_node-fill)" stroke="var(--_node-stroke)" stroke-width="0.75" />
<rect x="83.45000000000009" y="2124" width="74.9" height="36" rx="0" ry="0" fill="var(--_node-fill)" stroke="var(--_node-stroke)" stroke-width="0.75" />
<rect x="110.66250000000005" y="2280" width="124.95" height="36" rx="0" ry="0" fill="var(--_node-fill)" stroke="var(--_node-stroke)" stroke-width="0.75" />
<rect x="62.00000000000004" y="3684" width="110.65" height="36" rx="0" ry="0" fill="var(--_node-fill)" stroke="var(--_node-stroke)" stroke-width="0.75" />
<rect x="415.5375" y="564" width="117.80000000000001" height="36" rx="0" ry="0" fill="var(--_node-fill)" stroke="var(--_node-stroke)" stroke-width="0.75" />
<rect x="415.5375" y="720" width="117.80000000000001" height="36" rx="0" ry="0" fill="var(--_node-fill)" stroke="var(--_node-stroke)" stroke-width="0.75" />
<rect x="422.6875" y="876" width="103.5" height="36" rx="0" ry="0" fill="var(--_node-fill)" stroke="var(--_node-stroke)" stroke-width="0.75" />
<rect x="502.86249999999995" y="1032" width="175" height="36" rx="0" ry="0" fill="var(--_node-fill)" stroke="var(--_node-stroke)" stroke-width="0.75" />
<rect x="527.8874999999999" y="1188" width="124.95" height="36" rx="0" ry="0" fill="var(--_node-fill)" stroke="var(--_node-stroke)" stroke-width="0.75" />
<rect x="506.43749999999994" y="1344" width="167.85000000000002" height="36" rx="0" ry="0" fill="var(--_node-fill)" stroke="var(--_node-stroke)" stroke-width="0.75" />
<rect x="289.61249999999995" y="1188" width="117.80000000000001" height="36" rx="0" ry="0" fill="var(--_node-fill)" stroke="var(--_node-stroke)" stroke-width="0.75" />
<rect x="275.3125" y="1344" width="146.4" height="36" rx="0" ry="0" fill="var(--_node-fill)" stroke="var(--_node-stroke)" stroke-width="0.75" />
<rect x="281.73749999999995" y="1500" width="153.55" height="36" rx="0" ry="0" fill="var(--_node-fill)" stroke="var(--_node-stroke)" stroke-width="0.75" />
<rect x="278.16249999999997" y="1656" width="160.70000000000002" height="36" rx="0" ry="0" fill="var(--_node-fill)" stroke="var(--_node-stroke)" stroke-width="0.75" />
<rect x="299.61249999999995" y="1812" width="117.80000000000001" height="36" rx="0" ry="0" fill="var(--_node-fill)" stroke="var(--_node-stroke)" stroke-width="0.75" />
<rect x="313.91249999999997" y="1968" width="89.2" height="36" rx="0" ry="0" fill="var(--_node-fill)" stroke="var(--_node-stroke)" stroke-width="0.75" />
<rect x="313.91249999999997" y="2124" width="89.2" height="36" rx="0" ry="0" fill="var(--_node-fill)" stroke="var(--_node-stroke)" stroke-width="0.75" />
<rect x="426.26250000000005" y="2436" width="117.80000000000001" height="36" rx="0" ry="0" fill="var(--_node-fill)" stroke="var(--_node-stroke)" stroke-width="0.75" />
<rect x="440.5625" y="2592" width="89.2" height="36" rx="0" ry="0" fill="var(--_node-fill)" stroke="var(--_node-stroke)" stroke-width="0.75" />
<rect x="419.1125" y="2748" width="132.10000000000002" height="36" rx="0" ry="0" fill="var(--_node-fill)" stroke="var(--_node-stroke)" stroke-width="0.75" />
<rect x="426.26250000000005" y="2904" width="117.80000000000001" height="36" rx="0" ry="0" fill="var(--_node-fill)" stroke="var(--_node-stroke)" stroke-width="0.75" />
<rect x="429.83750000000003" y="3060" width="110.65" height="36" rx="0" ry="0" fill="var(--_node-fill)" stroke="var(--_node-stroke)" stroke-width="0.75" />
<rect x="429.83750000000003" y="3216" width="110.65" height="36" rx="0" ry="0" fill="var(--_node-fill)" stroke="var(--_node-stroke)" stroke-width="0.75" />
<rect x="422.6875" y="3372" width="124.95" height="36" rx="0" ry="0" fill="var(--_node-fill)" stroke="var(--_node-stroke)" stroke-width="0.75" />
<rect x="323.7875" y="3528" width="82.05000000000001" height="36" rx="0" ry="0" fill="var(--_node-fill)" stroke="var(--_node-stroke)" stroke-width="0.75" />
<rect x="429.83750000000003" y="3528" width="110.65" height="36" rx="0" ry="0" fill="var(--_node-fill)" stroke="var(--_node-stroke)" stroke-width="0.75" />
<rect x="564.4875" y="3528" width="89.2" height="36" rx="0" ry="0" fill="var(--_node-fill)" stroke="var(--_node-stroke)" stroke-width="0.75" />
<text x="339.51250000000005" y="114" text-anchor="middle" dy="0.35em" font-size="13" font-weight="500" fill="var(--_text)">&quot;YAML&quot;</text>
<text x="339.51250000000005" y="270" text-anchor="middle" dy="0.35em" font-size="13" font-weight="500" fill="var(--_text)">&quot;Validate&quot;</text>
<text x="339.51250000000005" y="426" text-anchor="middle" dy="0.35em" font-size="13" font-weight="500" fill="var(--_text)">&quot;Config&quot;</text>
<text x="120.90000000000009" y="2142" text-anchor="middle" dy="0.35em" font-size="13" font-weight="500" fill="var(--_text)">&quot;Site&quot;</text>
<text x="173.13750000000005" y="2298" text-anchor="middle" dy="0.35em" font-size="13" font-weight="500" fill="var(--_text)">&quot;RINEX Store&quot;</text>
<text x="117.32500000000005" y="3702" text-anchor="middle" dy="0.35em" font-size="13" font-weight="500" fill="var(--_text)">&quot;VOD Store&quot;</text>
<text x="474.4375" y="582" text-anchor="middle" dy="0.35em" font-size="13" font-weight="500" fill="var(--_text)">&quot;Match Dirs&quot;</text>
<text x="474.4375" y="738" text-anchor="middle" dy="0.35em" font-size="13" font-weight="500" fill="var(--_text)">&quot;SCS Expand&quot;</text>
<text x="474.4375" y="894" text-anchor="middle" dy="0.35em" font-size="13" font-weight="500" fill="var(--_text)">&quot;Schedule&quot;</text>
<text x="590.3625" y="1050" text-anchor="middle" dy="0.35em" font-size="13" font-weight="500" fill="var(--_text)">&quot;Download SP3 + CLK&quot;</text>
<text x="590.3625" y="1206" text-anchor="middle" dy="0.35em" font-size="13" font-weight="500" fill="var(--_text)">&quot;Interpolate&quot;</text>
<text x="590.3625" y="1362" text-anchor="middle" dy="0.35em" font-size="13" font-weight="500" fill="var(--_text)">&quot;Auxiliary Dataset&quot;</text>
<text x="348.51249999999993" y="1206" text-anchor="middle" dy="0.35em" font-size="13" font-weight="500" fill="var(--_text)">&quot;Read RINEX&quot;</text>
<text x="348.5125" y="1362" text-anchor="middle" dy="0.35em" font-size="13" font-weight="500" fill="var(--_text)">&quot;Filter Signals&quot;</text>
<text x="358.51249999999993" y="1518" text-anchor="middle" dy="0.35em" font-size="13" font-weight="500" fill="var(--_text)">&quot;Slice Auxiliary&quot;</text>
<text x="358.5125" y="1674" text-anchor="middle" dy="0.35em" font-size="13" font-weight="500" fill="var(--_text)">&quot;Spherical Coords&quot;</text>
<text x="358.51249999999993" y="1830" text-anchor="middle" dy="0.35em" font-size="13" font-weight="500" fill="var(--_text)">&quot;Hash Check&quot;</text>
<text x="358.5125" y="1986" text-anchor="middle" dy="0.35em" font-size="13" font-weight="500" fill="var(--_text)">&quot;Append&quot;</text>
<text x="358.5125" y="2142" text-anchor="middle" dy="0.35em" font-size="13" font-weight="500" fill="var(--_text)">&quot;Commit&quot;</text>
<text x="485.1625" y="2454" text-anchor="middle" dy="0.35em" font-size="13" font-weight="500" fill="var(--_text)">&quot;Build Grid&quot;</text>
<text x="485.1625" y="2610" text-anchor="middle" dy="0.35em" font-size="13" font-weight="500" fill="var(--_text)">&quot;KDTree&quot;</text>
<text x="485.1625" y="2766" text-anchor="middle" dy="0.35em" font-size="13" font-weight="500" fill="var(--_text)">&quot;Assign Cells&quot;</text>
<text x="485.1625" y="2922" text-anchor="middle" dy="0.35em" font-size="13" font-weight="500" fill="var(--_text)">&quot;Load Pairs&quot;</text>
<text x="485.1625" y="3078" text-anchor="middle" dy="0.35em" font-size="13" font-weight="500" fill="var(--_text)">&quot;Delta-SNR&quot;</text>
<text x="485.1625" y="3234" text-anchor="middle" dy="0.35em" font-size="13" font-weight="500" fill="var(--_text)">&quot;Tau-Omega&quot;</text>
<text x="485.1625" y="3390" text-anchor="middle" dy="0.35em" font-size="13" font-weight="500" fill="var(--_text)">&quot;VOD Dataset&quot;</text>
<text x="364.8125" y="3546" text-anchor="middle" dy="0.35em" font-size="13" font-weight="500" fill="var(--_text)">&quot;Store&quot;</text>
<text x="485.1625" y="3546" text-anchor="middle" dy="0.35em" font-size="13" font-weight="500" fill="var(--_text)">&quot;Visualize&quot;</text>
<text x="609.0875" y="3546" text-anchor="middle" dy="0.35em" font-size="13" font-weight="500" fill="var(--_text)">&quot;Export&quot;</text>
</svg>