<?xml version="1.0" encoding="UTF-8" standalone="no"?>
<!DOCTYPE svg PUBLIC "-//W3C//DTD SVG 1.1//EN"
 "http://www.w3.org/Graphics/SVG/1.1/DTD/svg11.dtd">
<!-- Generated by graphviz version 14.1.1 (20251213.1925)
 -->
<!-- Title: G Pages: 1 -->
<svg width="255pt" height="297pt"
 viewBox="0.00 0.00 255.00 297.00" xmlns="http://www.w3.org/2000/svg" xmlns:xlink="http://www.w3.org/1999/xlink">
<g id="graph0" class="graph" transform="scale(1 1) rotate(0) translate(4 293)">
<title>G</title><style>.edge>path:hover{stroke-width:8}</style>
<polygon fill="white" stroke="none" points="-4,4 -4,-293 251.38,-293 251.38,4 -4,4"/>
<!-- canvod -->
<g id="node1" class="node">
<title>canvod</title><style>.edge>path:hover{stroke-width:8}</style>
<polygon fill="#c24747" stroke="black" points="54,-180 51,-184 30,-184 27,-180 0,-180 0,-144 54,-144 54,-180"/>
<text xml:space="preserve" text-anchor="middle" x="27" y="-158.12" font-family="Helvetica,sans-Serif" font-size="10.00" fill="#ffffff">canvod</text>
</g>
<!-- vod -->
<g id="node5" class="node">
<title>vod</title><style>.edge>path:hover{stroke-width:8}</style>
<ellipse fill="#4c4cb3" stroke="black" cx="27" cy="-90" rx="27" ry="18"/>
<text xml:space="preserve" text-anchor="middle" x="27" y="-86.12" font-family="Helvetica,sans-Serif" font-size="10.00" fill="#ffffff">vod</text>
</g>
<!-- canvod&#45;&gt;vod -->
<g id="edge1" class="edge">
<title>canvod&#45;&gt;vod</title><style>.edge>path:hover{stroke-width:8}</style>
<path fill="none" stroke="black" d="M27,-143.7C27,-136.41 27,-127.73 27,-119.54"/>
<polygon fill="#c24747" stroke="black" points="30.5,-119.62 27,-109.62 23.5,-119.62 30.5,-119.62"/>
</g>
<!-- vod_calculator -->
<g id="node6" class="node">
<title>vod_calculator</title><style>.edge>path:hover{stroke-width:8}</style>
<ellipse fill="#43439d" stroke="black" cx="82" cy="-18" rx="45.41" ry="18"/>
<text xml:space="preserve" text-anchor="middle" x="82" y="-14.12" font-family="Helvetica,sans-Serif" font-size="10.00" fill="#ffffff">vod.calculator</text>
</g>
<!-- canvod&#45;&gt;vod_calculator -->
<g id="edge2" class="edge">
<title>canvod&#45;&gt;vod_calculator</title><style>.edge>path:hover{stroke-width:8}</style>
<path fill="none" stroke="black" d="M82,-89C79.19,-75.66 78.84,-60.58 79.34,-47.83"/>
<polygon fill="#c24747" stroke="black" points="82.82,-48.17 79.93,-37.98 75.84,-47.75 82.82,-48.17"/>
<path fill="none" stroke="black" d="M53.74,-143.67C69.83,-130.85 86.43,-112.02 82,-91"/>
</g>
<!-- numpy -->
<g id="node2" class="node">
<title>numpy</title><style>.edge>path:hover{stroke-width:8}</style>
<polygon fill="blue" stroke="black" points="109,-289 106,-293 85,-293 82,-289 55,-289 55,-253 109,-253 109,-289"/>
<text xml:space="preserve" text-anchor="middle" x="82" y="-267.12" font-family="Helvetica,sans-Serif" font-size="10.00" fill="white">numpy</text>
</g>
<!-- numpy&#45;&gt;vod_calculator -->
<g id="edge3" class="edge">
<title>numpy&#45;&gt;vod_calculator</title><style>.edge>path:hover{stroke-width:8}</style>
<path fill="none" stroke="black" d="M82,-216C94.86,-161.95 93.45,-145.36 82,-91"/>
<path fill="none" stroke="black" d="M79.74,-252.51C78.94,-242.04 78.89,-228.55 82,-217"/>
</g>
<!-- xarray -->
<g id="node7" class="node">
<title>xarray</title><style>.edge>path:hover{stroke-width:8}</style>
<polygon fill="blue" stroke="black" points="164,-180 161,-184 140,-184 137,-180 110,-180 110,-144 164,-144 164,-180"/>
<text xml:space="preserve" text-anchor="middle" x="137" y="-158.12" font-family="Helvetica,sans-Serif" font-size="10.00" fill="white">xarray</text>
</g>
<!-- numpy&#45;&gt;xarray -->
<g id="edge4" class="edge">
<title>numpy&#45;&gt;xarray</title><style>.edge>path:hover{stroke-width:8}</style>
<path fill="none" stroke="black" d="M82,-216C84.77,-204.37 92.41,-194.35 101.15,-186.26"/>
<polygon fill="blue" stroke="black" points="103.14,-189.16 108.58,-180.07 98.66,-183.78 103.14,-189.16"/>
</g>
<!-- pydantic -->
<g id="node3" class="node">
<title>pydantic</title><style>.edge>path:hover{stroke-width:8}</style>
<polygon fill="blue" stroke="black" points="236,-180 233,-184 212,-184 209,-180 182,-180 182,-144 236,-144 236,-180"/>
<text xml:space="preserve" text-anchor="middle" x="209" y="-158.12" font-family="Helvetica,sans-Serif" font-size="10.00" fill="white">pydantic</text>
</g>
<!-- pydantic&#45;&gt;vod_calculator -->
<g id="edge5" class="edge">
<title>pydantic&#45;&gt;vod_calculator</title><style>.edge>path:hover{stroke-width:8}</style>
<path fill="none" stroke="black" d="M181.76,-147.31C144.79,-128.54 83.16,-96.51 82,-91"/>
</g>
<!-- pydantic_core -->
<g id="node4" class="node">
<title>pydantic_core</title><style>.edge>path:hover{stroke-width:8}</style>
<polygon fill="blue" stroke="black" points="247.38,-289 244.38,-293 223.38,-293 220.38,-289 170.62,-289 170.62,-253 247.38,-253 247.38,-289"/>
<text xml:space="preserve" text-anchor="middle" x="209" y="-267.12" font-family="Helvetica,sans-Serif" font-size="10.00" fill="white">pydantic_core</text>
</g>
<!-- pydantic_core&#45;&gt;pydantic -->
<g id="edge6" class="edge">
<title>pydantic_core&#45;&gt;pydantic</title><style>.edge>path:hover{stroke-width:8}</style>
<path fill="none" stroke="black" d="M209,-252.81C209,-236.27 209,-210.98 209,-191.44"/>
<polygon fill="blue" stroke="black" points="212.5,-191.66 209,-181.66 205.5,-191.66 212.5,-191.66"/>
</g>
<!-- xarray&#45;&gt;vod_calculator -->
<g id="edge7" class="edge">
<title>xarray&#45;&gt;vod_calculator</title><style>.edge>path:hover{stroke-width:8}</style>
<path fill="none" stroke="black" d="M115.81,-143.67C102.26,-130.85 86.43,-112.02 82,-91"/>
</g>
</g>
</svg>
