<?xml version="1.0" encoding="UTF-8" standalone="no"?>
<!DOCTYPE svg PUBLIC "-//W3C//DTD SVG 1.1//EN"
 "http://www.w3.org/Graphics/SVG/1.1/DTD/svg11.dtd">
<!-- Generated by graphviz version 14.1.1 (20251213.1925)
 -->
<!-- Title: G Pages: 1 -->
<svg width="508pt" height="520pt"
 viewBox="0.00 0.00 508.00 520.00" xmlns="http://www.w3.org/2000/svg" xmlns:xlink="http://www.w3.org/1999/xlink">
<g id="graph0" class="graph" transform="scale(1 1) rotate(0) translate(4 516.13)">
<title>G</title><style>.edge>path:hover{stroke-width:8}</style>
<polygon fill="white" stroke="none" points="-4,4 -4,-516.13 504,-516.13 504,4 -4,4"/>
<!-- _plotly_utils -->
<g id="node1" class="node">
<title>_plotly_utils</title><style>.edge>path:hover{stroke-width:8}</style>
<polygon fill="#b4c040" stroke="black" points="296.88,-440.13 293.88,-444.13 272.88,-444.13 269.88,-440.13 229.12,-440.13 229.12,-404.13 296.88,-404.13 296.88,-440.13"/>
<text xml:space="preserve" text-anchor="middle" x="263" y="-418.26" font-family="Helvetica,sans-Serif" font-size="10.00" fill="#000000">_plotly_utils</text>
</g>
<!-- plotly -->
<g id="node10" class="node">
<title>plotly</title><style>.edge>path:hover{stroke-width:8}</style>
<polygon fill="blue" stroke="black" points="290,-368.13 287,-372.13 266,-372.13 263,-368.13 236,-368.13 236,-332.13 290,-332.13 290,-368.13"/>
<text xml:space="preserve" text-anchor="middle" x="263" y="-346.26" font-family="Helvetica,sans-Serif" font-size="10.00" fill="white">plotly</text>
</g>
<!-- _plotly_utils&#45;&gt;plotly -->
<g id="edge1" class="edge">
<title>_plotly_utils&#45;&gt;plotly</title><style>.edge>path:hover{stroke-width:8}</style>
<path fill="none" stroke="black" d="M263,-403.83C263,-396.54 263,-387.86 263,-379.67"/>
<polygon fill="#b4c040" stroke="black" points="266.5,-379.75 263,-369.75 259.5,-379.75 266.5,-379.75"/>
</g>
<!-- canvod -->
<g id="node2" class="node">
<title>canvod</title><style>.edge>path:hover{stroke-width:8}</style>
<polygon fill="#74c247" stroke="black" points="82,-368.13 79,-372.13 58,-372.13 55,-368.13 28,-368.13 28,-332.13 82,-332.13 82,-368.13"/>
<text xml:space="preserve" text-anchor="middle" x="55" y="-346.26" font-family="Helvetica,sans-Serif" font-size="10.00" fill="#000000">canvod</text>
</g>
<!-- viz -->
<g id="node11" class="node">
<title>viz</title><style>.edge>path:hover{stroke-width:8}</style>
<ellipse fill="#b34c84" stroke="black" cx="27" cy="-278.13" rx="27" ry="18"/>
<text xml:space="preserve" text-anchor="middle" x="27" y="-274.26" font-family="Helvetica,sans-Serif" font-size="10.00" fill="#ffffff">viz</text>
</g>
<!-- canvod&#45;&gt;viz -->
<g id="edge2" class="edge">
<title>canvod&#45;&gt;viz</title><style>.edge>path:hover{stroke-width:8}</style>
<path fill="none" stroke="black" d="M48.08,-331.83C45.02,-324.17 41.34,-314.98 37.92,-306.44"/>
<polygon fill="#74c247" stroke="black" points="41.17,-305.15 34.21,-297.16 34.68,-307.75 41.17,-305.15"/>
</g>
<!-- viz_hemisphere_3d -->
<g id="node13" class="node">
<title>viz_hemisphere_3d</title><style>.edge>path:hover{stroke-width:8}</style>
<ellipse fill="#96406f" stroke="black" cx="82" cy="-202.57" rx="57.98" ry="21.57"/>
<text xml:space="preserve" text-anchor="middle" x="82" y="-204.32" font-family="Helvetica,sans-Serif" font-size="10.00" fill="#ffffff">viz.</text>
<text xml:space="preserve" text-anchor="middle" x="82" y="-193.07" font-family="Helvetica,sans-Serif" font-size="10.00" fill="#ffffff">hemisphere_3d</text>
</g>
<!-- canvod&#45;&gt;viz_hemisphere_3d -->
<g id="edge3" class="edge">
<title>canvod&#45;&gt;viz_hemisphere_3d</title><style>.edge>path:hover{stroke-width:8}</style>
<path fill="none" stroke="black" d="M58.2,-331.86C62.59,-308.19 70.56,-265.24 76.06,-235.6"/>
<polygon fill="#74c247" stroke="black" points="79.45,-236.53 77.83,-226.06 72.56,-235.26 79.45,-236.53"/>
</g>
<!-- certifi -->
<g id="node3" class="node">
<title>certifi</title><style>.edge>path:hover{stroke-width:8}</style>
<polygon fill="#53b665" stroke="black" points="445,-440.13 442,-444.13 421,-444.13 418,-440.13 391,-440.13 391,-404.13 445,-404.13 445,-440.13"/>
<text xml:space="preserve" text-anchor="middle" x="418" y="-418.26" font-family="Helvetica,sans-Serif" font-size="10.00" fill="#000000">certifi</text>
</g>
<!-- matplotlib -->
<g id="node6" class="node">
<title>matplotlib</title><style>.edge>path:hover{stroke-width:8}</style>
<polygon fill="blue" stroke="black" points="443,-368.13 440,-372.13 419,-372.13 416,-368.13 385,-368.13 385,-332.13 443,-332.13 443,-368.13"/>
<text xml:space="preserve" text-anchor="middle" x="414" y="-346.26" font-family="Helvetica,sans-Serif" font-size="10.00" fill="white">matplotlib</text>
</g>
<!-- certifi&#45;&gt;matplotlib -->
<g id="edge4" class="edge">
<title>certifi&#45;&gt;matplotlib</title><style>.edge>path:hover{stroke-width:8}</style>
<path fill="none" stroke="black" d="M417.01,-403.83C416.59,-396.54 416.1,-387.86 415.63,-379.67"/>
<polygon fill="#53b665" stroke="black" points="419.13,-379.53 415.06,-369.75 412.14,-379.93 419.13,-379.53"/>
</g>
<!-- cycler -->
<g id="node4" class="node">
<title>cycler</title><style>.edge>path:hover{stroke-width:8}</style>
<polygon fill="#3bcea6" stroke="black" points="500,-512.13 497,-516.13 476,-516.13 473,-512.13 446,-512.13 446,-476.13 500,-476.13 500,-512.13"/>
<text xml:space="preserve" text-anchor="middle" x="473" y="-490.26" font-family="Helvetica,sans-Serif" font-size="10.00" fill="#000000">cycler</text>
</g>
<!-- cycler&#45;&gt;matplotlib -->
<g id="edge5" class="edge">
<title>cycler&#45;&gt;matplotlib</title><style>.edge>path:hover{stroke-width:8}</style>
<path fill="none" stroke="black" d="M473.54,-475.86C473.86,-461.68 474.02,-441.09 473,-423.13"/>
</g>
<!-- IPython -->
<g id="node5" class="node">
<title>IPython</title><style>.edge>path:hover{stroke-width:8}</style>
<polygon fill="#dd1818" stroke="black" points="496,-145 493,-149 472,-149 469,-145 442,-145 442,-109 496,-109 496,-145"/>
<text xml:space="preserve" text-anchor="middle" x="469" y="-123.12" font-family="Helvetica,sans-Serif" font-size="10.00" fill="#ffffff">IPython</text>
</g>
<!-- PIL -->
<g id="node9" class="node">
<title>PIL</title><style>.edge>path:hover{stroke-width:8}</style>
<polygon fill="#e68919" stroke="black" points="460,-36 457,-40 436,-40 433,-36 406,-36 406,0 460,0 460,-36"/>
<text xml:space="preserve" text-anchor="middle" x="433" y="-14.12" font-family="Helvetica,sans-Serif" font-size="10.00" fill="#000000">PIL</text>
</g>
<!-- IPython&#45;&gt;PIL -->
<g id="edge7" class="edge">
<title>IPython&#45;&gt;PIL</title><style>.edge>path:hover{stroke-width:8}</style>
<path fill="none" stroke="black" d="M463.22,-108.81C457.6,-92.12 448.98,-66.5 442.38,-46.89"/>
<polygon fill="#dd1818" stroke="black" points="445.76,-45.95 439.25,-37.58 439.12,-48.18 445.76,-45.95"/>
</g>
<!-- matplotlib&#45;&gt;IPython -->
<g id="edge8" class="edge">
<title>matplotlib&#45;&gt;IPython</title><style>.edge>path:hover{stroke-width:8}</style>
<path fill="none" stroke="black" d="M421.56,-320.92C423.67,-312.92 425.95,-304.19 428,-296.13 440.45,-247.12 454.25,-189.87 462.25,-156.4"/>
<polygon fill="blue" stroke="black" points="418.2,-319.94 419.01,-330.51 424.96,-321.74 418.2,-319.94"/>
<polygon fill="blue" stroke="black" points="465.65,-157.22 464.57,-146.68 458.84,-155.6 465.65,-157.22"/>
</g>
<!-- viz_hemisphere_2d -->
<g id="node12" class="node">
<title>viz_hemisphere_2d</title><style>.edge>path:hover{stroke-width:8}</style>
<ellipse fill="#883a64" stroke="black" cx="328" cy="-202.57" rx="57.98" ry="21.57"/>
<text xml:space="preserve" text-anchor="middle" x="328" y="-204.32" font-family="Helvetica,sans-Serif" font-size="10.00" fill="#ffffff">viz.</text>
<text xml:space="preserve" text-anchor="middle" x="328" y="-193.07" font-family="Helvetica,sans-Serif" font-size="10.00" fill="#ffffff">hemisphere_2d</text>
</g>
<!-- matplotlib&#45;&gt;viz_hemisphere_2d -->
<g id="edge9" class="edge">
<title>matplotlib&#45;&gt;viz_hemisphere_2d</title><style>.edge>path:hover{stroke-width:8}</style>
<path fill="none" stroke="black" d="M363,-277.13C351.7,-265.39 343.48,-249.32 337.86,-235.2"/>
<polygon fill="blue" stroke="black" points="341.15,-234 334.42,-225.82 334.58,-236.42 341.15,-234"/>
</g>
<!-- viz_visualizer -->
<g id="node14" class="node">
<title>viz_visualizer</title><style>.edge>path:hover{stroke-width:8}</style>
<ellipse fill="#883a64" stroke="black" cx="201" cy="-202.57" rx="43.19" ry="18"/>
<text xml:space="preserve" text-anchor="middle" x="201" y="-198.69" font-family="Helvetica,sans-Serif" font-size="10.00" fill="#ffffff">viz.visualizer</text>
</g>
<!-- matplotlib&#45;&gt;viz_visualizer -->
<g id="edge10" class="edge">
<title>matplotlib&#45;&gt;viz_visualizer</title><style>.edge>path:hover{stroke-width:8}</style>
<path fill="none" stroke="black" d="M403.25,-331.72C393.66,-316.91 378.75,-295.49 363,-279.13"/>
<path fill="none" stroke="black" d="M363,-277.13C345.7,-259.16 285.71,-234.57 243.81,-218.88"/>
<polygon fill="blue" stroke="black" points="245.06,-215.61 234.47,-215.42 242.63,-222.17 245.06,-215.61"/>
</g>
<!-- numpy -->
<g id="node7" class="node">
<title>numpy</title><style>.edge>path:hover{stroke-width:8}</style>
<polygon fill="blue" stroke="black" points="289,-512.13 286,-516.13 265,-516.13 262,-512.13 235,-512.13 235,-476.13 289,-476.13 289,-512.13"/>
<text xml:space="preserve" text-anchor="middle" x="262" y="-490.26" font-family="Helvetica,sans-Serif" font-size="10.00" fill="white">numpy</text>
</g>
<!-- numpy&#45;&gt;matplotlib -->
<g id="edge11" class="edge">
<title>numpy&#45;&gt;matplotlib</title><style>.edge>path:hover{stroke-width:8}</style>
<path fill="none" stroke="black" d="M325,-421.13C338.5,-402.86 357.96,-386.81 375.23,-374.71"/>
<polygon fill="blue" stroke="black" points="376.98,-377.76 383.3,-369.25 373.06,-371.96 376.98,-377.76"/>
</g>
<!-- numpy&#45;&gt;viz_hemisphere_2d -->
<g id="edge12" class="edge">
<title>numpy&#45;&gt;viz_hemisphere_2d</title><style>.edge>path:hover{stroke-width:8}</style>
<path fill="none" stroke="black" d="M279.32,-475.82C292.57,-462.13 310.91,-442.2 325,-423.13"/>
<path fill="none" stroke="black" d="M325,-421.13C346.07,-392.6 337.84,-288.85 331.96,-235.59"/>
<polygon fill="blue" stroke="black" points="335.47,-235.47 330.85,-225.93 328.52,-236.27 335.47,-235.47"/>
</g>
<!-- numpy&#45;&gt;viz_hemisphere_3d -->
<g id="edge13" class="edge">
<title>numpy&#45;&gt;viz_hemisphere_3d</title><style>.edge>path:hover{stroke-width:8}</style>
<path fill="none" stroke="black" d="M201,-277.13C191.43,-249.5 164.53,-231.58 138.73,-220.36"/>
<polygon fill="blue" stroke="black" points="140.16,-217.16 129.58,-216.66 137.54,-223.65 140.16,-217.16"/>
<path fill="none" stroke="black" d="M244.04,-475.64C235.29,-466.02 225.5,-453.36 220,-440.13 192.35,-373.6 224.59,-347.22 201,-279.13"/>
</g>
<!-- numpy&#45;&gt;viz_visualizer -->
<g id="edge14" class="edge">
<title>numpy&#45;&gt;viz_visualizer</title><style>.edge>path:hover{stroke-width:8}</style>
<path fill="none" stroke="black" d="M201,-277.13C196.05,-262.85 195.68,-246.05 196.71,-232.12"/>
<polygon fill="blue" stroke="black" points="200.18,-232.56 197.74,-222.25 193.22,-231.83 200.18,-232.56"/>
</g>
<!-- packaging -->
<g id="node8" class="node">
<title>packaging</title><style>.edge>path:hover{stroke-width:8}</style>
<polygon fill="#713bce" stroke="black" points="410.12,-512.13 407.12,-516.13 386.12,-516.13 383.12,-512.13 349.88,-512.13 349.88,-476.13 410.12,-476.13 410.12,-512.13"/>
<text xml:space="preserve" text-anchor="middle" x="380" y="-490.26" font-family="Helvetica,sans-Serif" font-size="10.00" fill="#ffffff">packaging</text>
</g>
<!-- packaging&#45;&gt;matplotlib -->
<g id="edge15" class="edge">
<title>packaging&#45;&gt;matplotlib</title><style>.edge>path:hover{stroke-width:8}</style>
<path fill="none" stroke="black" d="M410.46,-484.51C438.27,-474.57 474.82,-455.31 473,-423.13"/>
<path fill="none" stroke="black" d="M473,-421.13C472,-403.43 460.66,-387.86 448.19,-375.93"/>
<polygon fill="#713bce" stroke="black" points="450.88,-373.63 441.07,-369.63 446.24,-378.88 450.88,-373.63"/>
</g>
<!-- packaging&#45;&gt;plotly -->
<g id="edge16" class="edge">
<title>packaging&#45;&gt;plotly</title><style>.edge>path:hover{stroke-width:8}</style>
<path fill="none" stroke="black" d="M375.08,-475.9C368.98,-456.78 357.12,-425.79 339,-404.13 328.2,-391.23 313.54,-380.02 299.97,-371.28"/>
<polygon fill="#713bce" stroke="black" points="302,-368.41 291.65,-366.15 298.33,-374.37 302,-368.41"/>
</g>
<!-- PIL&#45;&gt;matplotlib -->
<g id="edge17" class="edge">
<title>PIL&#45;&gt;matplotlib</title><style>.edge>path:hover{stroke-width:8}</style>
<path fill="none" stroke="black" d="M428.01,-36.25C422.38,-57.27 414,-93.93 414,-126 414,-203.57 414,-203.57 414,-203.57 414,-244.03 414,-290.83 414,-320.2"/>
<polygon fill="#e68919" stroke="black" points="410.5,-320.14 414,-330.14 417.5,-320.14 410.5,-320.14"/>
</g>
<!-- plotly&#45;&gt;viz_hemisphere_3d -->
<g id="edge18" class="edge">
<title>plotly&#45;&gt;viz_hemisphere_3d</title><style>.edge>path:hover{stroke-width:8}</style>
<path fill="none" stroke="black" d="M259.93,-331.75C256.64,-316.76 250.29,-295.07 239,-279.13"/>
<path fill="none" stroke="black" d="M239,-277.13C226.02,-258.82 174.86,-236.87 134.42,-221.74"/>
<polygon fill="blue" stroke="black" points="135.89,-218.55 125.29,-218.38 133.47,-225.12 135.89,-218.55"/>
</g>
<!-- plotly&#45;&gt;viz_visualizer -->
<g id="edge19" class="edge">
<title>plotly&#45;&gt;viz_visualizer</title><style>.edge>path:hover{stroke-width:8}</style>
<path fill="none" stroke="black" d="M239,-277.13C228.8,-262.74 219.65,-245.24 212.88,-230.92"/>
<polygon fill="blue" stroke="black" points="216.17,-229.7 208.82,-222.07 209.81,-232.62 216.17,-229.7"/>
</g>
</g>
</svg>
