<?xml version="1.0" encoding="UTF-8" standalone="no"?>
<!DOCTYPE svg PUBLIC "-//W3C//DTD SVG 1.1//EN"
 "http://www.w3.org/Graphics/SVG/1.1/DTD/svg11.dtd">
<!-- Generated by graphviz version 14.1.1 (20251213.1925)
 -->
<!-- Title: G Pages: 1 -->
<svg width="142pt" height="188pt"
 viewBox="0.00 0.00 142.00 188.00" xmlns="http://www.w3.org/2000/svg" xmlns:xlink="http://www.w3.org/1999/xlink">
<g id="graph0" class="graph" transform="scale(1 1) rotate(0) translate(4 184)">
<title>G</title><style>.edge>path:hover{stroke-width:8}</style>
<polygon fill="white" stroke="none" points="-4,4 -4,-184 137.76,-184 137.76,4 -4,4"/>
<!-- canvod -->
<g id="node1" class="node">
<title>canvod</title><style>.edge>path:hover{stroke-width:8}</style>
<polygon fill="#b65353" stroke="black" points="54,-180 51,-184 30,-184 27,-180 0,-180 0,-144 54,-144 54,-180"/>
<text xml:space="preserve" text-anchor="middle" x="27" y="-158.12" font-family="Helvetica,sans-Serif" font-size="10.00" fill="#ffffff">canvod</text>
</g>
<!-- grids -->
<g id="node2" class="node">
<title>grids</title><style>.edge>path:hover{stroke-width:8}</style>
<ellipse fill="#4cb34c" stroke="black" cx="27" cy="-90" rx="27" ry="18"/>
<text xml:space="preserve" text-anchor="middle" x="27" y="-86.12" font-family="Helvetica,sans-Serif" font-size="10.00" fill="#000000">grids</text>
</g>
<!-- canvod&#45;&gt;grids -->
<g id="edge1" class="edge">
<title>canvod&#45;&gt;grids</title><style>.edge>path:hover{stroke-width:8}</style>
<path fill="none" stroke="black" d="M27,-143.7C27,-136.41 27,-127.73 27,-119.54"/>
<polygon fill="#b65353" stroke="black" points="30.5,-119.62 27,-109.62 23.5,-119.62 30.5,-119.62"/>
</g>
<!-- grids_core -->
<g id="node3" class="node">
<title>grids_core</title><style>.edge>path:hover{stroke-width:8}</style>
<ellipse fill="#4cb34c" stroke="black" cx="99" cy="-18" rx="34.76" ry="18"/>
<text xml:space="preserve" text-anchor="middle" x="99" y="-14.12" font-family="Helvetica,sans-Serif" font-size="10.00" fill="#000000">grids.core</text>
</g>
<!-- numpy -->
<g id="node4" class="node">
<title>numpy</title><style>.edge>path:hover{stroke-width:8}</style>
<polygon fill="blue" stroke="black" points="126,-180 123,-184 102,-184 99,-180 72,-180 72,-144 126,-144 126,-180"/>
<text xml:space="preserve" text-anchor="middle" x="99" y="-158.12" font-family="Helvetica,sans-Serif" font-size="10.00" fill="white">numpy</text>
</g>
<!-- numpy&#45;&gt;grids_core -->
<g id="edge2" class="edge">
<title>numpy&#45;&gt;grids_core</title><style>.edge>path:hover{stroke-width:8}</style>
<path fill="none" stroke="black" d="M99,-143.59C99,-119.61 99,-76.14 99,-47.42"/>
<polygon fill="blue" stroke="black" points="102.5,-47.62 99,-37.62 95.5,-47.62 102.5,-47.62"/>
</g>
</g>
</svg>
