<?xml version="1.0" encoding="UTF-8" standalone="no"?>
<!DOCTYPE svg PUBLIC "-//W3C//DTD SVG 1.1//EN"
 "http://www.w3.org/Graphics/SVG/1.1/DTD/svg11.dtd">
<!-- Generated by graphviz version 14.1.2 (20260124.0452)
 -->
<!-- Title: G Pages: 1 -->
<svg width="2502pt" height="635pt"
 viewBox="0.00 0.00 2502.00 635.00" xmlns="http://www.w3.org/2000/svg" xmlns:xlink="http://www.w3.org/1999/xlink">
<g id="graph0" class="graph" transform="scale(1 1) rotate(0) translate(4 631.35)">
<title>G</title><style>.edge>path:hover{stroke-width:8}</style>
<polygon fill="white" stroke="none" points="-4,4 -4,-631.35 2498,-631.35 2498,4 -4,4"/>
<!-- canvodpy -->
<g id="node1" class="node">
<title>canvodpy</title><style>.edge>path:hover{stroke-width:8}</style>
<polygon fill="blue" stroke="black" points="513.95,-346.61 455.95,-346.61 455.95,-310.61 513.95,-310.61 513.95,-346.61"/>
<text xml:space="preserve" text-anchor="middle" x="484.95" y="-324.73" font-family="Helvetica,sans-Serif" font-size="10.00" fill="white">canvodpy</text>
</g>
<!-- store_manager -->
<g id="node26" class="node">
<title>store_manager</title><style>.edge>path:hover{stroke-width:8}</style>
<ellipse fill="#5e3d8f" stroke="black" cx="505.95" cy="-208.09" rx="46.3" ry="18"/>
<text xml:space="preserve" text-anchor="middle" x="505.95" y="-204.21" font-family="Helvetica,sans-Serif" font-size="10.00" fill="#ffffff">store.manager</text>
</g>
<!-- canvodpy&#45;&gt;store_manager -->
<g id="edge1" class="edge">
<title>canvodpy&#45;&gt;store_manager</title><style>.edge>path:hover{stroke-width:8}</style>
<path fill="none" stroke="black" d="M493.95,-262.09C491.68,-253.93 492.47,-244.99 494.46,-236.8"/>
<polygon fill="blue" stroke="black" points="497.78,-237.94 497.43,-227.35 491.1,-235.84 497.78,-237.94"/>
</g>
<!-- store_metadata -->
<g id="node27" class="node">
<title>store_metadata</title><style>.edge>path:hover{stroke-width:8}</style>
<ellipse fill="#7149ac" stroke="black" cx="393.95" cy="-208.09" rx="48.08" ry="18"/>
<text xml:space="preserve" text-anchor="middle" x="393.95" y="-204.21" font-family="Helvetica,sans-Serif" font-size="10.00" fill="#ffffff">store.metadata</text>
</g>
<!-- canvodpy&#45;&gt;store_metadata -->
<g id="edge2" class="edge">
<title>canvodpy&#45;&gt;store_metadata</title><style>.edge>path:hover{stroke-width:8}</style>
<path fill="none" stroke="black" d="M491.12,-310.37C494.93,-297.23 498.33,-278.78 493.95,-263.09"/>
<path fill="none" stroke="black" d="M493.95,-262.09C490.44,-249.5 463.59,-235.69 438.59,-225.32"/>
<polygon fill="blue" stroke="black" points="440.06,-222.13 429.47,-221.66 437.45,-228.63 440.06,-222.13"/>
</g>
<!-- store_reader -->
<g id="node29" class="node">
<title>store_reader</title><style>.edge>path:hover{stroke-width:8}</style>
<ellipse fill="#593a88" stroke="black" cx="55.95" cy="-208.09" rx="40.09" ry="18"/>
<text xml:space="preserve" text-anchor="middle" x="55.95" y="-204.21" font-family="Helvetica,sans-Serif" font-size="10.00" fill="#ffffff">store.reader</text>
</g>
<!-- canvodpy&#45;&gt;store_reader -->
<g id="edge3" class="edge">
<title>canvodpy&#45;&gt;store_reader</title><style>.edge>path:hover{stroke-width:8}</style>
<path fill="none" stroke="black" d="M455.65,-316.14C440.4,-310.47 421.36,-303.84 403.95,-299.09 323.98,-277.26 290.5,-308.19 220.95,-263.09"/>
</g>
<!-- store_store -->
<g id="node30" class="node">
<title>store_store</title><style>.edge>path:hover{stroke-width:8}</style>
<ellipse fill="#462e6b" stroke="black" cx="1207.95" cy="-208.09" rx="36.98" ry="18"/>
<text xml:space="preserve" text-anchor="middle" x="1207.95" y="-204.21" font-family="Helvetica,sans-Serif" font-size="10.00" fill="#ffffff">store.store</text>
</g>
<!-- canvodpy&#45;&gt;store_store -->
<g id="edge4" class="edge">
<title>canvodpy&#45;&gt;store_store</title><style>.edge>path:hover{stroke-width:8}</style>
<path fill="none" stroke="black" d="M514.21,-322.96C551.49,-317.1 617.94,-306.86 674.95,-299.09 805.39,-281.31 839.96,-289.35 968.95,-263.09"/>
<path fill="none" stroke="black" d="M968.95,-262.09C1047.19,-246.16 1067.26,-244.5 1144.95,-226.09 1151.75,-224.48 1158.93,-222.65 1165.92,-220.82"/>
<polygon fill="blue" stroke="black" points="1166.43,-224.3 1175.18,-218.34 1164.62,-217.54 1166.43,-224.3"/>
</g>
<!-- canvodpy_logging -->
<g id="node2" class="node">
<title>canvodpy_logging</title><style>.edge>path:hover{stroke-width:8}</style>
<polygon fill="blue" stroke="black" points="513.7,-441.65 454.2,-441.65 454.2,-405.65 513.7,-405.65 513.7,-441.65"/>
<text xml:space="preserve" text-anchor="middle" x="483.95" y="-425.4" font-family="Helvetica,sans-Serif" font-size="10.00" fill="white">canvodpy.</text>
<text xml:space="preserve" text-anchor="middle" x="483.95" y="-414.15" font-family="Helvetica,sans-Serif" font-size="10.00" fill="white">logging</text>
</g>
<!-- canvodpy_logging&#45;&gt;canvodpy -->
<g id="edge5" class="edge">
<title>canvodpy_logging&#45;&gt;canvodpy</title><style>.edge>path:hover{stroke-width:8}</style>
<path fill="none" stroke="black" d="M484.14,-405.59C484.28,-392.29 484.48,-373.55 484.65,-358"/>
<polygon fill="blue" stroke="black" points="488.14,-358.43 484.75,-348.39 481.14,-358.36 488.14,-358.43"/>
</g>
<!-- canvodpy_logging&#45;&gt;store_manager -->
<g id="edge6" class="edge">
<title>canvodpy_logging&#45;&gt;store_manager</title><style>.edge>path:hover{stroke-width:8}</style>
<path fill="none" stroke="black" d="M541.95,-327.61C537.59,-299.27 563.81,-281.65 541.95,-263.09"/>
<path fill="none" stroke="black" d="M541.95,-262.09C533.45,-254.87 526.09,-245.17 520.27,-236.05"/>
<polygon fill="blue" stroke="black" points="523.28,-234.26 515.16,-227.45 517.27,-237.84 523.28,-234.26"/>
<path fill="none" stroke="black" d="M504.96,-405.25C523.37,-387.81 546.53,-359.33 541.95,-329.61"/>
</g>
<!-- canvodpy_logging&#45;&gt;store_metadata -->
<g id="edge7" class="edge">
<title>canvodpy_logging&#45;&gt;store_metadata</title><style>.edge>path:hover{stroke-width:8}</style>
<path fill="none" stroke="black" d="M472.87,-405.3C465.01,-392.56 454.56,-374.67 446.95,-358.13 428.12,-317.2 411.66,-267.53 402.27,-237.12"/>
<polygon fill="blue" stroke="black" points="405.73,-236.46 399.46,-227.92 399.03,-238.5 405.73,-236.46"/>
</g>
<!-- canvodpy_logging&#45;&gt;store_reader -->
<g id="edge8" class="edge">
<title>canvodpy_logging&#45;&gt;store_reader</title><style>.edge>path:hover{stroke-width:8}</style>
<path fill="none" stroke="black" d="M453.89,-420.8C384.92,-415.87 218.6,-399.81 184.95,-358.13 168.47,-337.71 174.91,-323.33 184.95,-299.09 193.61,-278.18 239.94,-275.4 220.95,-263.09"/>
</g>
<!-- canvodpy_logging&#45;&gt;store_store -->
<g id="edge9" class="edge">
<title>canvodpy_logging&#45;&gt;store_store</title><style>.edge>path:hover{stroke-width:8}</style>
<path fill="none" stroke="black" d="M514.07,-409.16C528.04,-403.51 545.05,-397.48 560.95,-394.13 625.22,-380.58 1098.01,-397 1150.95,-358.13 1161.14,-350.65 1185.75,-278.15 1199.06,-237.09"/>
<polygon fill="blue" stroke="black" points="1202.37,-238.22 1202.1,-227.63 1195.71,-236.07 1202.37,-238.22"/>
</g>
<!-- canvodpy_orchestrator -->
<g id="node3" class="node">
<title>canvodpy_orchestrator</title><style>.edge>path:hover{stroke-width:8}</style>
<ellipse fill="#b86e3d" stroke="black" cx="313.95" cy="-328.61" rx="47.91" ry="21.57"/>
<text xml:space="preserve" text-anchor="middle" x="313.95" y="-330.36" font-family="Helvetica,sans-Serif" font-size="10.00" fill="#ffffff">canvodpy.</text>
<text xml:space="preserve" text-anchor="middle" x="313.95" y="-319.11" font-family="Helvetica,sans-Serif" font-size="10.00" fill="#ffffff">orchestrator</text>
</g>
<!-- canvodpy_orchestrator&#45;&gt;store_reader -->
<g id="edge10" class="edge">
<title>canvodpy_orchestrator&#45;&gt;store_reader</title><style>.edge>path:hover{stroke-width:8}</style>
<path fill="none" stroke="black" d="M289.37,-309.93C270.78,-296.72 244.53,-278.38 220.95,-263.09"/>
</g>
<!-- canvodpy_utils -->
<g id="node4" class="node">
<title>canvodpy_utils</title><style>.edge>path:hover{stroke-width:8}</style>
<ellipse fill="#b67b53" stroke="black" cx="1517.95" cy="-328.61" rx="45.86" ry="18"/>
<text xml:space="preserve" text-anchor="middle" x="1517.95" y="-324.73" font-family="Helvetica,sans-Serif" font-size="10.00" fill="#000000">canvodpy.utils</text>
</g>
<!-- canvodpy_utils&#45;&gt;store_store -->
<g id="edge11" class="edge">
<title>canvodpy_utils&#45;&gt;store_store</title><style>.edge>path:hover{stroke-width:8}</style>
<path fill="none" stroke="black" d="M1544.32,-313.41C1553.33,-308.7 1563.51,-303.53 1572.95,-299.09 1610.08,-281.63 1686.08,-292.95 1657.95,-263.09"/>
</g>
<!-- canvodpy_utils_telemetry -->
<g id="node5" class="node">
<title>canvodpy_utils_telemetry</title><style>.edge>path:hover{stroke-width:8}</style>
<ellipse fill="#b67b53" stroke="black" cx="1877.95" cy="-423.65" rx="42.07" ry="29.52"/>
<text xml:space="preserve" text-anchor="middle" x="1877.95" y="-431.03" font-family="Helvetica,sans-Serif" font-size="10.00" fill="#000000">canvodpy.</text>
<text xml:space="preserve" text-anchor="middle" x="1877.95" y="-419.78" font-family="Helvetica,sans-Serif" font-size="10.00" fill="#000000">utils.</text>
<text xml:space="preserve" text-anchor="middle" x="1877.95" y="-408.53" font-family="Helvetica,sans-Serif" font-size="10.00" fill="#000000">telemetry</text>
</g>
<!-- canvodpy_utils_telemetry&#45;&gt;store_store -->
<g id="edge12" class="edge">
<title>canvodpy_utils_telemetry&#45;&gt;store_store</title><style>.edge>path:hover{stroke-width:8}</style>
<path fill="none" stroke="black" d="M1882.17,-394.04C1884.56,-366 1883.2,-323.94 1858.95,-299.09 1795.58,-234.13 1720.17,-329.16 1657.95,-263.09"/>
</g>
<!-- icechunk -->
<g id="node6" class="node">
<title>icechunk</title><style>.edge>path:hover{stroke-width:8}</style>
<ellipse fill="#f3c50c" stroke="black" cx="716.95" cy="-328.61" rx="32.54" ry="18"/>
<text xml:space="preserve" text-anchor="middle" x="716.95" y="-324.73" font-family="Helvetica,sans-Serif" font-size="10.00" fill="#000000">icechunk</text>
</g>
<!-- store_grid_adapters_complete_grid_vod_workflow -->
<g id="node23" class="node">
<title>store_grid_adapters_complete_grid_vod_workflow</title><style>.edge>path:hover{stroke-width:8}</style>
<ellipse fill="#6035a1" stroke="black" cx="645.95" cy="-124.57" rx="100.41" ry="29.52"/>
<text xml:space="preserve" text-anchor="middle" x="645.95" y="-131.94" font-family="Helvetica,sans-Serif" font-size="10.00" fill="#ffffff">store.</text>
<text xml:space="preserve" text-anchor="middle" x="645.95" y="-120.69" font-family="Helvetica,sans-Serif" font-size="10.00" fill="#ffffff">grid_adapters.</text>
<text xml:space="preserve" text-anchor="middle" x="645.95" y="-109.44" font-family="Helvetica,sans-Serif" font-size="10.00" fill="#ffffff">complete_grid_vod_workflow</text>
</g>
<!-- icechunk&#45;&gt;store_grid_adapters_complete_grid_vod_workflow -->
<g id="edge13" class="edge">
<title>icechunk&#45;&gt;store_grid_adapters_complete_grid_vod_workflow</title><style>.edge>path:hover{stroke-width:8}</style>
<path fill="none" stroke="black" d="M808.95,-262.09C824.89,-211.35 771.26,-174.48 721.32,-151.94"/>
<polygon fill="#f3c50c" stroke="black" points="723.03,-148.87 712.46,-148.09 720.24,-155.28 723.03,-148.87"/>
<path fill="none" stroke="black" d="M736.8,-314.19C763.72,-295.92 808.53,-265.23 808.95,-263.09"/>
</g>
<!-- store_grid_adapters_grid_storage -->
<g id="node24" class="node">
<title>store_grid_adapters_grid_storage</title><style>.edge>path:hover{stroke-width:8}</style>
<ellipse fill="#462e6b" stroke="black" cx="846.95" cy="-124.57" rx="54.8" ry="29.52"/>
<text xml:space="preserve" text-anchor="middle" x="846.95" y="-131.94" font-family="Helvetica,sans-Serif" font-size="10.00" fill="#ffffff">store.</text>
<text xml:space="preserve" text-anchor="middle" x="846.95" y="-120.69" font-family="Helvetica,sans-Serif" font-size="10.00" fill="#ffffff">grid_adapters.</text>
<text xml:space="preserve" text-anchor="middle" x="846.95" y="-109.44" font-family="Helvetica,sans-Serif" font-size="10.00" fill="#ffffff">grid_storage</text>
</g>
<!-- icechunk&#45;&gt;store_grid_adapters_grid_storage -->
<g id="edge14" class="edge">
<title>icechunk&#45;&gt;store_grid_adapters_grid_storage</title><style>.edge>path:hover{stroke-width:8}</style>
<path fill="none" stroke="black" d="M736.39,-313.91C743.41,-309.09 751.46,-303.73 758.95,-299.09 786.7,-281.9 804.11,-289.73 822.95,-263.09 843.03,-234.7 848.14,-194.94 848.76,-165.47"/>
<polygon fill="#f3c50c" stroke="black" points="852.26,-165.86 848.78,-155.85 845.26,-165.84 852.26,-165.86"/>
</g>
<!-- icechunk&#45;&gt;store_manager -->
<g id="edge15" class="edge">
<title>icechunk&#45;&gt;store_manager</title><style>.edge>path:hover{stroke-width:8}</style>
<path fill="none" stroke="black" d="M685.84,-322.85C648.06,-315.68 584.15,-298.93 541.95,-263.09"/>
</g>
<!-- icechunk&#45;&gt;store_store -->
<g id="edge16" class="edge">
<title>icechunk&#45;&gt;store_store</title><style>.edge>path:hover{stroke-width:8}</style>
<path fill="none" stroke="black" d="M734.39,-313.3C741.6,-308.07 750.29,-302.58 758.95,-299.09 846.78,-263.68 876.16,-281.98 968.95,-263.09"/>
</g>
<!-- icechunk_xarray -->
<g id="node7" class="node">
<title>icechunk_xarray</title><style>.edge>path:hover{stroke-width:8}</style>
<ellipse fill="#bf9f21" stroke="black" cx="808.95" cy="-328.61" rx="41.01" ry="21.57"/>
<text xml:space="preserve" text-anchor="middle" x="808.95" y="-330.36" font-family="Helvetica,sans-Serif" font-size="10.00" fill="#000000">icechunk.</text>
<text xml:space="preserve" text-anchor="middle" x="808.95" y="-319.11" font-family="Helvetica,sans-Serif" font-size="10.00" fill="#000000">xarray</text>
</g>
<!-- icechunk_xarray&#45;&gt;store_grid_adapters_complete_grid_vod_workflow -->
<g id="edge17" class="edge">
<title>icechunk_xarray&#45;&gt;store_grid_adapters_complete_grid_vod_workflow</title><style>.edge>path:hover{stroke-width:8}</style>
<path fill="none" stroke="black" d="M806.92,-306.78C806.18,-294.04 806.12,-277.48 808.95,-263.09"/>
</g>
<!-- icechunk_xarray&#45;&gt;store_grid_adapters_grid_storage -->
<g id="edge18" class="edge">
<title>icechunk_xarray&#45;&gt;store_grid_adapters_grid_storage</title><style>.edge>path:hover{stroke-width:8}</style>
<path fill="none" stroke="black" d="M835.28,-311.6C842.81,-307.3 851.1,-302.81 858.95,-299.09 900.26,-279.48 911.7,-276.91 954.95,-262.09 1032.23,-235.6 1148.74,-288.82 1130.95,-209.09"/>
<path fill="none" stroke="black" d="M1130.95,-207.09C1120.17,-163.7 992.41,-141.6 911.97,-131.92"/>
<polygon fill="#bf9f21" stroke="black" points="912.79,-128.49 902.45,-130.81 911.98,-135.44 912.79,-128.49"/>
</g>
<!-- icechunk_xarray&#45;&gt;store_manager -->
<g id="edge19" class="edge">
<title>icechunk_xarray&#45;&gt;store_manager</title><style>.edge>path:hover{stroke-width:8}</style>
<path fill="none" stroke="black" d="M784.09,-311.13C776.32,-306.62 767.52,-302.13 758.95,-299.09 666.83,-266.36 616.46,-326.38 541.95,-263.09"/>
</g>
<!-- icechunk_xarray&#45;&gt;store_store -->
<g id="edge20" class="edge">
<title>icechunk_xarray&#45;&gt;store_store</title><style>.edge>path:hover{stroke-width:8}</style>
<path fill="none" stroke="black" d="M834.17,-311.27C841.89,-306.81 850.56,-302.33 858.95,-299.09 927.76,-272.52 949.49,-281.33 1020.95,-263.09 1071.46,-250.19 1129.01,-233.23 1166.76,-221.78"/>
<polygon fill="#bf9f21" stroke="black" points="1167.34,-225.27 1175.89,-219.01 1165.31,-218.57 1167.34,-225.27"/>
</g>
<!-- IPython -->
<g id="node8" class="node">
<title>IPython</title><style>.edge>path:hover{stroke-width:8}</style>
<ellipse fill="#cc3333" stroke="black" cx="2208.95" cy="-510.74" rx="29.44" ry="18"/>
<text xml:space="preserve" text-anchor="middle" x="2208.95" y="-506.87" font-family="Helvetica,sans-Serif" font-size="10.00" fill="#ffffff">IPython</text>
</g>
<!-- store_viewer -->
<g id="node31" class="node">
<title>store_viewer</title><style>.edge>path:hover{stroke-width:8}</style>
<ellipse fill="#593a88" stroke="black" cx="2384.95" cy="-328.61" rx="40.97" ry="18"/>
<text xml:space="preserve" text-anchor="middle" x="2384.95" y="-324.73" font-family="Helvetica,sans-Serif" font-size="10.00" fill="#ffffff">store.viewer</text>
</g>
<!-- IPython&#45;&gt;store_viewer -->
<g id="edge21" class="edge">
<title>IPython&#45;&gt;store_viewer</title><style>.edge>path:hover{stroke-width:8}</style>
<path fill="none" stroke="black" d="M2230.77,-498.12C2236.36,-495.17 2242.36,-492.03 2247.95,-489.17 2305.37,-459.79 2359.32,-486.41 2377.95,-424.65"/>
<path fill="none" stroke="black" d="M2377.95,-422.65C2384.29,-401.66 2385.88,-376.86 2385.97,-358.14"/>
<polygon fill="#cc3333" stroke="black" points="2389.48,-358.3 2385.87,-348.33 2382.48,-358.37 2389.48,-358.3"/>
</g>
<!-- IPython_display -->
<g id="node9" class="node">
<title>IPython_display</title><style>.edge>path:hover{stroke-width:8}</style>
<ellipse fill="#b34c4c" stroke="black" cx="2293.95" cy="-510.74" rx="37.3" ry="21.57"/>
<text xml:space="preserve" text-anchor="middle" x="2293.95" y="-512.49" font-family="Helvetica,sans-Serif" font-size="10.00" fill="#ffffff">IPython.</text>
<text xml:space="preserve" text-anchor="middle" x="2293.95" y="-501.24" font-family="Helvetica,sans-Serif" font-size="10.00" fill="#ffffff">display</text>
</g>
<!-- IPython_display&#45;&gt;store_viewer -->
<g id="edge22" class="edge">
<title>IPython_display&#45;&gt;store_viewer</title><style>.edge>path:hover{stroke-width:8}</style>
<path fill="none" stroke="black" d="M2318.93,-494.56C2340.2,-479.83 2368.72,-455.26 2377.95,-424.65"/>
</g>
<!-- marimo -->
<g id="node10" class="node">
<title>marimo</title><style>.edge>path:hover{stroke-width:8}</style>
<ellipse fill="#a6c040" stroke="black" cx="2377.95" cy="-510.74" rx="28.55" ry="18"/>
<text xml:space="preserve" text-anchor="middle" x="2377.95" y="-506.87" font-family="Helvetica,sans-Serif" font-size="10.00" fill="#000000">marimo</text>
</g>
<!-- marimo&#45;&gt;store_viewer -->
<g id="edge23" class="edge">
<title>marimo&#45;&gt;store_viewer</title><style>.edge>path:hover{stroke-width:8}</style>
<path fill="none" stroke="black" d="M2375.07,-492.36C2372.83,-474.86 2371.13,-447.28 2377.95,-424.65"/>
</g>
<!-- natsort -->
<g id="node11" class="node">
<title>natsort</title><style>.edge>path:hover{stroke-width:8}</style>
<ellipse fill="#73c040" stroke="black" cx="110.95" cy="-328.61" rx="27.22" ry="18"/>
<text xml:space="preserve" text-anchor="middle" x="110.95" y="-324.73" font-family="Helvetica,sans-Serif" font-size="10.00" fill="#000000">natsort</text>
</g>
<!-- natsort&#45;&gt;store_reader -->
<g id="edge24" class="edge">
<title>natsort&#45;&gt;store_reader</title><style>.edge>path:hover{stroke-width:8}</style>
<path fill="none" stroke="black" d="M220.95,-262.09C185.35,-238.99 138.88,-225.26 104.34,-217.58"/>
<polygon fill="#73c040" stroke="black" points="105.1,-214.16 94.6,-215.52 103.65,-221.01 105.1,-214.16"/>
<path fill="none" stroke="black" d="M128.59,-314.61C135.71,-309.55 144.09,-303.85 151.95,-299.09 181.54,-281.17 249.97,-281.91 220.95,-263.09"/>
</g>
<!-- numcodecs -->
<g id="node12" class="node">
<title>numcodecs</title><style>.edge>path:hover{stroke-width:8}</style>
<ellipse fill="#33cc33" stroke="black" cx="2125.95" cy="-597.83" rx="39.2" ry="18"/>
<text xml:space="preserve" text-anchor="middle" x="2125.95" y="-593.95" font-family="Helvetica,sans-Serif" font-size="10.00" fill="#000000">numcodecs</text>
</g>
<!-- numcodecs&#45;&gt;store_grid_adapters_grid_storage -->
<g id="edge25" class="edge">
<title>numcodecs&#45;&gt;store_grid_adapters_grid_storage</title><style>.edge>path:hover{stroke-width:8}</style>
<path fill="none" stroke="black" d="M2125.95,-509.74C2114.27,-479.52 2099.7,-478.86 2079.95,-453.17 2048.14,-411.79 2027.07,-407.78 2010.95,-358.13 2002.85,-333.17 1994.74,-319.72 2010.95,-299.09 2052.78,-245.86 2189.62,-323.44 2158.95,-263.09"/>
<path fill="none" stroke="black" d="M2128.58,-579.52C2130.63,-562.08 2132.19,-534.54 2125.95,-511.74"/>
<path fill="none" stroke="black" d="M2158.95,-262.09C2131.08,-209.95 2090.05,-235.08 2036.95,-209.09"/>
</g>
<!-- zarr_codecs_Blosc -->
<g id="node38" class="node">
<title>zarr_codecs_Blosc</title><style>.edge>path:hover{stroke-width:8}</style>
<ellipse fill="#ac4971" stroke="black" cx="2055.95" cy="-328.61" rx="35.71" ry="29.52"/>
<text xml:space="preserve" text-anchor="middle" x="2055.95" y="-335.98" font-family="Helvetica,sans-Serif" font-size="10.00" fill="#ffffff">zarr.</text>
<text xml:space="preserve" text-anchor="middle" x="2055.95" y="-324.73" font-family="Helvetica,sans-Serif" font-size="10.00" fill="#ffffff">codecs.</text>
<text xml:space="preserve" text-anchor="middle" x="2055.95" y="-313.48" font-family="Helvetica,sans-Serif" font-size="10.00" fill="#ffffff">Blosc</text>
</g>
<!-- numcodecs&#45;&gt;zarr_codecs_Blosc -->
<g id="edge26" class="edge">
<title>numcodecs&#45;&gt;zarr_codecs_Blosc</title><style>.edge>path:hover{stroke-width:8}</style>
<path fill="none" stroke="black" d="M2125.95,-509.74C2109.66,-459.73 2087.07,-403.41 2072,-367.27"/>
<polygon fill="#33cc33" stroke="black" points="2075.26,-366 2068.17,-358.13 2068.81,-368.7 2075.26,-366"/>
</g>
<!-- numcodecs_Blosc -->
<g id="node13" class="node">
<title>numcodecs_Blosc</title><style>.edge>path:hover{stroke-width:8}</style>
<ellipse fill="#53b653" stroke="black" cx="2158.95" cy="-328.61" rx="48.97" ry="21.57"/>
<text xml:space="preserve" text-anchor="middle" x="2158.95" y="-330.36" font-family="Helvetica,sans-Serif" font-size="10.00" fill="#000000">numcodecs.</text>
<text xml:space="preserve" text-anchor="middle" x="2158.95" y="-319.11" font-family="Helvetica,sans-Serif" font-size="10.00" fill="#000000">Blosc</text>
</g>
<!-- numcodecs_Blosc&#45;&gt;store_grid_adapters_grid_storage -->
<g id="edge27" class="edge">
<title>numcodecs_Blosc&#45;&gt;store_grid_adapters_grid_storage</title><style>.edge>path:hover{stroke-width:8}</style>
<path fill="none" stroke="black" d="M2163.72,-306.93C2165.68,-293.64 2166.07,-276.43 2158.95,-263.09"/>
</g>
<!-- numpy -->
<g id="node14" class="node">
<title>numpy</title><style>.edge>path:hover{stroke-width:8}</style>
<ellipse fill="#06f967" stroke="black" cx="651.95" cy="-510.74" rx="27" ry="18"/>
<text xml:space="preserve" text-anchor="middle" x="651.95" y="-506.87" font-family="Helvetica,sans-Serif" font-size="10.00" fill="#000000">numpy</text>
</g>
<!-- numpy&#45;&gt;icechunk_xarray -->
<g id="edge28" class="edge">
<title>numpy&#45;&gt;icechunk_xarray</title><style>.edge>path:hover{stroke-width:8}</style>
<path fill="none" stroke="black" d="M910.95,-422.65C893.19,-394.68 864.86,-369.78 842.56,-352.8"/>
<polygon fill="#06f967" stroke="black" points="844.76,-350.07 834.64,-346.92 840.59,-355.69 844.76,-350.07"/>
<path fill="none" stroke="black" d="M678.38,-506.31C749.42,-496.48 937.38,-466.25 910.95,-424.65"/>
</g>
<!-- scipy -->
<g id="node20" class="node">
<title>scipy</title><style>.edge>path:hover{stroke-width:8}</style>
<ellipse fill="#2424d0" stroke="black" cx="596.95" cy="-423.65" rx="27" ry="18"/>
<text xml:space="preserve" text-anchor="middle" x="596.95" y="-419.78" font-family="Helvetica,sans-Serif" font-size="10.00" fill="#ffffff">scipy</text>
</g>
<!-- numpy&#45;&gt;scipy -->
<g id="edge29" class="edge">
<title>numpy&#45;&gt;scipy</title><style>.edge>path:hover{stroke-width:8}</style>
<path fill="none" stroke="black" d="M641.61,-493.74C633.69,-481.49 622.63,-464.37 613.49,-450.24"/>
<polygon fill="#06f967" stroke="black" points="616.44,-448.35 608.07,-441.86 610.56,-452.15 616.44,-448.35"/>
</g>
<!-- numpy&#45;&gt;store_grid_adapters_complete_grid_vod_workflow -->
<g id="edge30" class="edge">
<title>numpy&#45;&gt;store_grid_adapters_complete_grid_vod_workflow</title><style>.edge>path:hover{stroke-width:8}</style>
<path fill="none" stroke="black" d="M626.24,-504.34C581.21,-494.78 485.24,-473.91 404.95,-453.17 257.17,-415 178.3,-470.45 74.95,-358.13 45.78,-326.43 67.81,-304.5 55.95,-263.09"/>
<path fill="none" stroke="black" d="M55.95,-262.09C46.4,-236.81 19.16,-250.2 6.95,-226.09 -0.27,-211.81 -3.78,-201.96 6.95,-190.09 41.6,-151.76 361,-135.11 534.69,-128.84"/>
<polygon fill="#06f967" stroke="black" points="534.79,-132.34 544.66,-128.49 534.54,-125.34 534.79,-132.34"/>
</g>
<!-- numpy&#45;&gt;store_grid_adapters_grid_storage -->
<g id="edge31" class="edge">
<title>numpy&#45;&gt;store_grid_adapters_grid_storage</title><style>.edge>path:hover{stroke-width:8}</style>
<path fill="none" stroke="black" d="M650.13,-492.33C646.99,-454.9 643.61,-364.84 674.95,-299.09 704,-238.17 763.38,-185.94 804.17,-155.14"/>
<polygon fill="#06f967" stroke="black" points="806.18,-158.01 812.12,-149.24 802,-152.39 806.18,-158.01"/>
</g>
<!-- numpy&#45;&gt;store_manager -->
<g id="edge32" class="edge">
<title>numpy&#45;&gt;store_manager</title><style>.edge>path:hover{stroke-width:8}</style>
<path fill="none" stroke="black" d="M628.46,-501.67C607.24,-493.1 576.94,-477.39 560.95,-453.17 530.34,-406.81 550.41,-384.52 541.95,-329.61"/>
</g>
<!-- store_preprocessing -->
<g id="node28" class="node">
<title>store_preprocessing</title><style>.edge>path:hover{stroke-width:8}</style>
<ellipse fill="#7149ac" stroke="black" cx="1251.95" cy="-328.61" rx="54.27" ry="21.57"/>
<text xml:space="preserve" text-anchor="middle" x="1251.95" y="-330.36" font-family="Helvetica,sans-Serif" font-size="10.00" fill="#ffffff">store.</text>
<text xml:space="preserve" text-anchor="middle" x="1251.95" y="-319.11" font-family="Helvetica,sans-Serif" font-size="10.00" fill="#ffffff">preprocessing</text>
</g>
<!-- numpy&#45;&gt;store_preprocessing -->
<g id="edge33" class="edge">
<title>numpy&#45;&gt;store_preprocessing</title><style>.edge>path:hover{stroke-width:8}</style>
<path fill="none" stroke="black" d="M678.24,-505.62C727.27,-497.65 835.82,-478.61 924.95,-453.17 1042.86,-419.52 1069.83,-402.98 1183.95,-358.13 1191,-355.36 1198.42,-352.35 1205.66,-349.36"/>
<polygon fill="#06f967" stroke="black" points="1206.8,-352.67 1214.68,-345.6 1204.11,-346.21 1206.8,-352.67"/>
</g>
<!-- numpy&#45;&gt;store_reader -->
<g id="edge34" class="edge">
<title>numpy&#45;&gt;store_reader</title><style>.edge>path:hover{stroke-width:8}</style>
<path fill="none" stroke="black" d="M55.95,-262.09C53.71,-254.24 53.02,-245.47 53.07,-237.36"/>
<polygon fill="#06f967" stroke="black" points="56.56,-237.79 53.53,-227.64 49.57,-237.46 56.56,-237.79"/>
</g>
<!-- numpy&#45;&gt;store_store -->
<g id="edge35" class="edge">
<title>numpy&#45;&gt;store_store</title><style>.edge>path:hover{stroke-width:8}</style>
<path fill="none" stroke="black" d="M1657.95,-262.09C1631,-232.93 1366.68,-216.8 1256.15,-211.28"/>
<polygon fill="#06f967" stroke="black" points="1256.37,-207.79 1246.21,-210.79 1256.03,-214.78 1256.37,-207.79"/>
<path fill="none" stroke="black" d="M1443.95,-327.61C1455.15,-317.28 1450.24,-307.47 1462.95,-299.09 1536.53,-250.58 1717.77,-327.81 1657.95,-263.09"/>
<path fill="none" stroke="black" d="M678.55,-506.42C739.53,-498.63 894.05,-477.99 1021.95,-453.17 1202.61,-418.12 1273.84,-463.16 1424.95,-358.13 1437.46,-349.44 1432.75,-339.93 1443.95,-329.61"/>
</g>
<!-- plotly -->
<g id="node15" class="node">
<title>plotly</title><style>.edge>path:hover{stroke-width:8}</style>
<ellipse fill="#40c0a6" stroke="black" cx="1608.95" cy="-328.61" rx="27" ry="18"/>
<text xml:space="preserve" text-anchor="middle" x="1608.95" y="-324.73" font-family="Helvetica,sans-Serif" font-size="10.00" fill="#000000">plotly</text>
</g>
<!-- plotly&#45;&gt;store_store -->
<g id="edge36" class="edge">
<title>plotly&#45;&gt;store_store</title><style>.edge>path:hover{stroke-width:8}</style>
<path fill="none" stroke="black" d="M1624.6,-313.6C1641.85,-297.39 1666.15,-271.79 1657.95,-263.09"/>
</g>
<!-- plotly_graph_objects -->
<g id="node16" class="node">
<title>plotly_graph_objects</title><style>.edge>path:hover{stroke-width:8}</style>
<ellipse fill="#53b6a2" stroke="black" cx="1707.95" cy="-328.61" rx="54.27" ry="21.57"/>
<text xml:space="preserve" text-anchor="middle" x="1707.95" y="-330.36" font-family="Helvetica,sans-Serif" font-size="10.00" fill="#000000">plotly.</text>
<text xml:space="preserve" text-anchor="middle" x="1707.95" y="-319.11" font-family="Helvetica,sans-Serif" font-size="10.00" fill="#000000">graph_objects</text>
</g>
<!-- plotly_graph_objects&#45;&gt;store_store -->
<g id="edge37" class="edge">
<title>plotly_graph_objects&#45;&gt;store_store</title><style>.edge>path:hover{stroke-width:8}</style>
<path fill="none" stroke="black" d="M1693.79,-307.33C1684.26,-294.2 1671.07,-277.01 1657.95,-263.09"/>
</g>
<!-- polars -->
<g id="node17" class="node">
<title>polars</title><style>.edge>path:hover{stroke-width:8}</style>
<polygon fill="blue" stroke="black" points="1415.95,-346.61 1361.95,-346.61 1361.95,-310.61 1415.95,-310.61 1415.95,-346.61"/>
<text xml:space="preserve" text-anchor="middle" x="1388.95" y="-324.73" font-family="Helvetica,sans-Serif" font-size="10.00" fill="white">polars</text>
</g>
<!-- polars&#45;&gt;store_grid_adapters_complete_grid_vod_workflow -->
<g id="edge38" class="edge">
<title>polars&#45;&gt;store_grid_adapters_complete_grid_vod_workflow</title><style>.edge>path:hover{stroke-width:8}</style>
<path fill="none" stroke="black" d="M1361.61,-315.66C1347.82,-310 1330.72,-303.53 1314.95,-299.09 1229.27,-274.98 1204.57,-283.56 1117.95,-263.09 976.93,-229.75 815.36,-180.15 722.52,-150.51"/>
<polygon fill="blue" stroke="black" points="723.86,-147.26 713.26,-147.55 721.72,-153.93 723.86,-147.26"/>
</g>
<!-- polars&#45;&gt;store_grid_adapters_grid_storage -->
<g id="edge39" class="edge">
<title>polars&#45;&gt;store_grid_adapters_grid_storage</title><style>.edge>path:hover{stroke-width:8}</style>
<path fill="none" stroke="black" d="M1207.95,-262.09C1174.95,-236.85 1140.98,-249.4 1130.95,-209.09"/>
<path fill="none" stroke="black" d="M1367.27,-310.39C1361.26,-306.24 1354.57,-302.12 1347.95,-299.09 1289.55,-272.32 1258.99,-302.11 1207.95,-263.09"/>
</g>
<!-- polars&#45;&gt;store_store -->
<g id="edge40" class="edge">
<title>polars&#45;&gt;store_store</title><style>.edge>path:hover{stroke-width:8}</style>
<path fill="none" stroke="black" d="M1207.95,-262.09C1200.52,-256.41 1198.99,-246.88 1199.85,-237.45"/>
<polygon fill="blue" stroke="black" points="1203.27,-238.23 1201.58,-227.77 1196.38,-237 1203.27,-238.23"/>
</g>
<!-- polars_datatypes -->
<g id="node18" class="node">
<title>polars_datatypes</title><style>.edge>path:hover{stroke-width:8}</style>
<polygon fill="blue" stroke="black" points="1674.33,-441.65 1615.58,-441.65 1615.58,-405.65 1674.33,-405.65 1674.33,-441.65"/>
<text xml:space="preserve" text-anchor="middle" x="1644.95" y="-425.4" font-family="Helvetica,sans-Serif" font-size="10.00" fill="white">polars.</text>
<text xml:space="preserve" text-anchor="middle" x="1644.95" y="-414.15" font-family="Helvetica,sans-Serif" font-size="10.00" fill="white">datatypes</text>
</g>
<!-- polars_datatypes&#45;&gt;polars -->
<g id="edge41" class="edge">
<title>polars_datatypes&#45;&gt;polars</title><style>.edge>path:hover{stroke-width:8}</style>
<path fill="none" stroke="black" d="M1615.35,-416.88C1572.86,-407.92 1492.78,-388.45 1429.95,-358.13 1426.85,-356.63 1423.72,-354.91 1420.66,-353.08"/>
<polygon fill="blue" stroke="black" points="1422.72,-350.25 1412.42,-347.76 1418.93,-356.13 1422.72,-350.25"/>
</g>
<!-- polars_datatypes&#45;&gt;store_grid_adapters_grid_storage -->
<g id="edge42" class="edge">
<title>polars_datatypes&#45;&gt;store_grid_adapters_grid_storage</title><style>.edge>path:hover{stroke-width:8}</style>
<path fill="none" stroke="black" d="M2036.95,-207.09C1959.68,-124.96 1152.48,-123.57 913.35,-124.98"/>
<polygon fill="blue" stroke="black" points="913.55,-121.48 903.58,-125.05 913.6,-128.48 913.55,-121.48"/>
<path fill="none" stroke="black" d="M1674.8,-417.61C1717.56,-409.52 1797.83,-391.12 1858.95,-358.13 1904.35,-333.62 2072.31,-246.66 2036.95,-209.09"/>
</g>
<!-- pydantic -->
<g id="node19" class="node">
<title>pydantic</title><style>.edge>path:hover{stroke-width:8}</style>
<ellipse fill="#4073c0" stroke="black" cx="2294.95" cy="-328.61" rx="31.21" ry="18"/>
<text xml:space="preserve" text-anchor="middle" x="2294.95" y="-324.73" font-family="Helvetica,sans-Serif" font-size="10.00" fill="#ffffff">pydantic</text>
</g>
<!-- pydantic&#45;&gt;store_grid_adapters_grid_storage -->
<g id="edge43" class="edge">
<title>pydantic&#45;&gt;store_grid_adapters_grid_storage</title><style>.edge>path:hover{stroke-width:8}</style>
<path fill="none" stroke="black" d="M2275.71,-314.29C2267.91,-309.19 2258.69,-303.53 2249.95,-299.09 2211.19,-279.36 2179.42,-301.47 2158.95,-263.09"/>
</g>
<!-- scipy&#45;&gt;store_grid_adapters_grid_storage -->
<g id="edge44" class="edge">
<title>scipy&#45;&gt;store_grid_adapters_grid_storage</title><style>.edge>path:hover{stroke-width:8}</style>
<path fill="none" stroke="black" d="M594.35,-405.31C588.95,-362.05 581.58,-248.64 641.95,-190.09 642.65,-189.41 728.56,-162.51 788.93,-143.66"/>
<polygon fill="#2424d0" stroke="black" points="789.93,-147.01 798.43,-140.69 787.85,-140.33 789.93,-147.01"/>
</g>
<!-- scipy_spatial -->
<g id="node21" class="node">
<title>scipy_spatial</title><style>.edge>path:hover{stroke-width:8}</style>
<ellipse fill="#3d3db8" stroke="black" cx="908.95" cy="-328.61" rx="40.97" ry="18"/>
<text xml:space="preserve" text-anchor="middle" x="908.95" y="-324.73" font-family="Helvetica,sans-Serif" font-size="10.00" fill="#ffffff">scipy.spatial</text>
</g>
<!-- scipy_spatial&#45;&gt;store_grid_adapters_grid_storage -->
<g id="edge45" class="edge">
<title>scipy_spatial&#45;&gt;store_grid_adapters_grid_storage</title><style>.edge>path:hover{stroke-width:8}</style>
<path fill="none" stroke="black" d="M1006.95,-262.09C1053.81,-224.72 1145.41,-267.25 1130.95,-209.09"/>
<path fill="none" stroke="black" d="M932.75,-313.63C953.13,-301.27 982.9,-282.27 1006.95,-263.09"/>
</g>
<!-- scipy_spatial_cKDTree -->
<g id="node22" class="node">
<title>scipy_spatial_cKDTree</title><style>.edge>path:hover{stroke-width:8}</style>
<ellipse fill="#4c4cb3" stroke="black" cx="1006.95" cy="-328.61" rx="38.89" ry="29.52"/>
<text xml:space="preserve" text-anchor="middle" x="1006.95" y="-335.98" font-family="Helvetica,sans-Serif" font-size="10.00" fill="#ffffff">scipy.</text>
<text xml:space="preserve" text-anchor="middle" x="1006.95" y="-324.73" font-family="Helvetica,sans-Serif" font-size="10.00" fill="#ffffff">spatial.</text>
<text xml:space="preserve" text-anchor="middle" x="1006.95" y="-313.48" font-family="Helvetica,sans-Serif" font-size="10.00" fill="#ffffff">cKDTree</text>
</g>
<!-- scipy_spatial_cKDTree&#45;&gt;store_grid_adapters_grid_storage -->
<g id="edge46" class="edge">
<title>scipy_spatial_cKDTree&#45;&gt;store_grid_adapters_grid_storage</title><style>.edge>path:hover{stroke-width:8}</style>
<path fill="none" stroke="black" d="M998.05,-299.42C995.79,-286.17 996.44,-271.47 1006.95,-263.09"/>
</g>
<!-- store_grid_adapters_hemigrid_polars_storage_methods -->
<g id="node25" class="node">
<title>store_grid_adapters_hemigrid_polars_storage_methods</title><style>.edge>path:hover{stroke-width:8}</style>
<ellipse fill="#754cb3" stroke="black" cx="645.95" cy="-29.52" rx="116.32" ry="29.52"/>
<text xml:space="preserve" text-anchor="middle" x="645.95" y="-36.9" font-family="Helvetica,sans-Serif" font-size="10.00" fill="#ffffff">store.</text>
<text xml:space="preserve" text-anchor="middle" x="645.95" y="-25.65" font-family="Helvetica,sans-Serif" font-size="10.00" fill="#ffffff">grid_adapters.</text>
<text xml:space="preserve" text-anchor="middle" x="645.95" y="-14.4" font-family="Helvetica,sans-Serif" font-size="10.00" fill="#ffffff">hemigrid_polars_storage_methods</text>
</g>
<!-- store_grid_adapters_complete_grid_vod_workflow&#45;&gt;store_grid_adapters_hemigrid_polars_storage_methods -->
<g id="edge47" class="edge">
<title>store_grid_adapters_complete_grid_vod_workflow&#45;&gt;store_grid_adapters_hemigrid_polars_storage_methods</title><style>.edge>path:hover{stroke-width:8}</style>
<path fill="none" stroke="black" d="M645.95,-94.64C645.95,-87.11 645.95,-78.86 645.95,-70.86"/>
<polygon fill="#6035a1" stroke="black" points="649.45,-70.95 645.95,-60.95 642.45,-70.95 649.45,-70.95"/>
</g>
<!-- tqdm -->
<g id="node32" class="node">
<title>tqdm</title><style>.edge>path:hover{stroke-width:8}</style>
<ellipse fill="#a253b6" stroke="black" cx="220.95" cy="-328.61" rx="27" ry="18"/>
<text xml:space="preserve" text-anchor="middle" x="220.95" y="-324.73" font-family="Helvetica,sans-Serif" font-size="10.00" fill="#ffffff">tqdm</text>
</g>
<!-- tqdm&#45;&gt;store_reader -->
<g id="edge48" class="edge">
<title>tqdm&#45;&gt;store_reader</title><style>.edge>path:hover{stroke-width:8}</style>
<path fill="none" stroke="black" d="M227.48,-310.72C232.32,-295.04 235.8,-272.72 220.95,-263.09"/>
</g>
<!-- xarray -->
<g id="node33" class="node">
<title>xarray</title><style>.edge>path:hover{stroke-width:8}</style>
<ellipse fill="#ef06c0" stroke="black" cx="1225.95" cy="-510.74" rx="27" ry="18"/>
<text xml:space="preserve" text-anchor="middle" x="1225.95" y="-506.87" font-family="Helvetica,sans-Serif" font-size="10.00" fill="#ffffff">xarray</text>
</g>
<!-- xarray&#45;&gt;icechunk_xarray -->
<g id="edge49" class="edge">
<title>xarray&#45;&gt;icechunk_xarray</title><style>.edge>path:hover{stroke-width:8}</style>
<path fill="none" stroke="black" d="M1199.2,-507.02C1128.94,-499.23 942.39,-474.14 910.95,-424.65"/>
</g>
<!-- xarray&#45;&gt;store_grid_adapters_grid_storage -->
<g id="edge50" class="edge">
<title>xarray&#45;&gt;store_grid_adapters_grid_storage</title><style>.edge>path:hover{stroke-width:8}</style>
<path fill="none" stroke="black" d="M2049.95,-422.65C2063.71,-419.47 2052.91,-402.93 2063.95,-394.13 2118.59,-350.6 2173.58,-412.89 2216.95,-358.13 2233.25,-337.56 2229.71,-322.02 2216.95,-299.09 2202.2,-272.57 2173.23,-289.86 2158.95,-263.09"/>
<path fill="none" stroke="black" d="M1251.4,-504.29C1274.62,-499.53 1309.93,-492.84 1340.95,-489.17 1614.63,-456.86 1688.95,-503.19 1959.95,-453.17 2001.22,-445.56 2009.11,-434.29 2049.95,-424.65"/>
</g>
<!-- xarray&#45;&gt;store_manager -->
<g id="edge51" class="edge">
<title>xarray&#45;&gt;store_manager</title><style>.edge>path:hover{stroke-width:8}</style>
<path fill="none" stroke="black" d="M1198.95,-508.59C1106.59,-504.36 804,-488.1 713.95,-453.17 672.42,-437.07 669.12,-420.14 632.95,-394.13 592.7,-365.19 550.28,-378.48 541.95,-329.61"/>
</g>
<!-- xarray&#45;&gt;store_preprocessing -->
<g id="edge52" class="edge">
<title>xarray&#45;&gt;store_preprocessing</title><style>.edge>path:hover{stroke-width:8}</style>
<path fill="none" stroke="black" d="M1228.45,-492.47C1232.8,-462.3 1241.85,-399.6 1247.36,-361.4"/>
<polygon fill="#ef06c0" stroke="black" points="1250.77,-362.29 1248.74,-351.89 1243.84,-361.29 1250.77,-362.29"/>
</g>
<!-- xarray&#45;&gt;store_reader -->
<g id="edge53" class="edge">
<title>xarray&#45;&gt;store_reader</title><style>.edge>path:hover{stroke-width:8}</style>
<path fill="none" stroke="black" d="M1198.94,-508.54C1064.96,-502.51 476.8,-474.86 444.95,-453.17 382.15,-410.42 430.06,-346.82 370.95,-299.09 317.61,-256.01 278.82,-299.85 220.95,-263.09"/>
</g>
<!-- xarray&#45;&gt;store_store -->
<g id="edge54" class="edge">
<title>xarray&#45;&gt;store_store</title><style>.edge>path:hover{stroke-width:8}</style>
<path fill="none" stroke="black" d="M1251.4,-504.31C1274.62,-499.57 1309.94,-492.88 1340.95,-489.17 1405.94,-481.4 1884.11,-500.85 1928.95,-453.17 2128.83,-240.68 1447.87,-213.16 1256.56,-209.61"/>
<polygon fill="#ef06c0" stroke="black" points="1256.77,-206.11 1246.71,-209.44 1256.65,-213.11 1256.77,-206.11"/>
</g>
<!-- xarray&#45;&gt;store_viewer -->
<g id="edge55" class="edge">
<title>xarray&#45;&gt;store_viewer</title><style>.edge>path:hover{stroke-width:8}</style>
<path fill="none" stroke="black" d="M2049.95,-422.65C2063.71,-419.47 2052.49,-402.37 2063.95,-394.13 2162.61,-323.21 2219.82,-396.95 2334.95,-358.13 2341.26,-356 2347.67,-353.05 2353.71,-349.85"/>
<polygon fill="#ef06c0" stroke="black" points="2355.14,-353.06 2362.1,-345.07 2351.68,-346.97 2355.14,-353.06"/>
</g>
<!-- xarray_core -->
<g id="node34" class="node">
<title>xarray_core</title><style>.edge>path:hover{stroke-width:8}</style>
<ellipse fill="#ce3bb1" stroke="black" cx="2270.95" cy="-597.83" rx="37.42" ry="18"/>
<text xml:space="preserve" text-anchor="middle" x="2270.95" y="-593.95" font-family="Helvetica,sans-Serif" font-size="10.00" fill="#ffffff">xarray.core</text>
</g>
<!-- xarray_core&#45;&gt;store_viewer -->
<g id="edge56" class="edge">
<title>xarray_core&#45;&gt;store_viewer</title><style>.edge>path:hover{stroke-width:8}</style>
<path fill="none" stroke="black" d="M2434.95,-509.74C2438.95,-464.4 2364.81,-468.23 2377.95,-424.65"/>
<path fill="none" stroke="black" d="M2301.96,-587.4C2348.77,-572.23 2432.36,-541.14 2434.95,-511.74"/>
</g>
<!-- xarray_core&#45;&gt;xarray -->
<g id="edge57" class="edge">
<title>xarray_core&#45;&gt;xarray</title><style>.edge>path:hover{stroke-width:8}</style>
<path fill="none" stroke="black" d="M2241.67,-586.2C2222.65,-579.79 2197.16,-572.16 2173.95,-568.31 1808.39,-507.59 1709.28,-573.02 1340.95,-532.31 1314.52,-529.39 1284.99,-524.06 1262.47,-519.56"/>
<polygon fill="#ce3bb1" stroke="black" points="1263.37,-516.17 1252.87,-517.6 1261.97,-523.03 1263.37,-516.17"/>
</g>
<!-- xarray_core_formatting_html -->
<g id="node35" class="node">
<title>xarray_core_formatting_html</title><style>.edge>path:hover{stroke-width:8}</style>
<ellipse fill="#ac4998" stroke="black" cx="2434.95" cy="-597.83" rx="59.04" ry="29.52"/>
<text xml:space="preserve" text-anchor="middle" x="2434.95" y="-605.2" font-family="Helvetica,sans-Serif" font-size="10.00" fill="#ffffff">xarray.</text>
<text xml:space="preserve" text-anchor="middle" x="2434.95" y="-593.95" font-family="Helvetica,sans-Serif" font-size="10.00" fill="#ffffff">core.</text>
<text xml:space="preserve" text-anchor="middle" x="2434.95" y="-582.7" font-family="Helvetica,sans-Serif" font-size="10.00" fill="#ffffff">formatting_html</text>
</g>
<!-- xarray_core_formatting_html&#45;&gt;store_viewer -->
<g id="edge58" class="edge">
<title>xarray_core_formatting_html&#45;&gt;store_viewer</title><style>.edge>path:hover{stroke-width:8}</style>
<path fill="none" stroke="black" d="M2433.7,-568.02C2433.29,-551.52 2433.31,-530.43 2434.95,-511.74"/>
</g>
<!-- zarr -->
<g id="node36" class="node">
<title>zarr</title><style>.edge>path:hover{stroke-width:8}</style>
<ellipse fill="#f90667" stroke="black" cx="1376.95" cy="-510.74" rx="27" ry="18"/>
<text xml:space="preserve" text-anchor="middle" x="1376.95" y="-506.87" font-family="Helvetica,sans-Serif" font-size="10.00" fill="#ffffff">zarr</text>
</g>
<!-- zarr&#45;&gt;icechunk_xarray -->
<g id="edge59" class="edge">
<title>zarr&#45;&gt;icechunk_xarray</title><style>.edge>path:hover{stroke-width:8}</style>
<path fill="none" stroke="black" d="M1351.16,-504.44C1274.27,-488.17 1040.72,-435.32 858.95,-358.13 854.22,-356.12 849.37,-353.77 844.64,-351.29"/>
<polygon fill="#f90667" stroke="black" points="846.35,-348.23 835.9,-346.48 842.97,-354.36 846.35,-348.23"/>
</g>
<!-- zarr&#45;&gt;store_grid_adapters_complete_grid_vod_workflow -->
<g id="edge60" class="edge">
<title>zarr&#45;&gt;store_grid_adapters_complete_grid_vod_workflow</title><style>.edge>path:hover{stroke-width:8}</style>
<path fill="none" stroke="black" d="M1351.47,-504.59C1328.22,-500.03 1292.89,-493.46 1261.95,-489.17 1100.48,-466.81 1054.84,-493.73 896.95,-453.17 793,-426.47 739.49,-443.89 674.95,-358.13 632.71,-302 634.26,-215.79 639.74,-165.61"/>
<polygon fill="#f90667" stroke="black" points="643.2,-166.13 640.93,-155.78 636.25,-165.28 643.2,-166.13"/>
</g>
<!-- zarr&#45;&gt;store_grid_adapters_grid_storage -->
<g id="edge61" class="edge">
<title>zarr&#45;&gt;store_grid_adapters_grid_storage</title><style>.edge>path:hover{stroke-width:8}</style>
<path fill="none" stroke="black" d="M1395.21,-497.13C1414.34,-482.33 1441.91,-455.8 1443.95,-424.65"/>
<path fill="none" stroke="black" d="M1443.95,-422.65C1447.2,-373.18 1387.21,-393.97 1352.95,-358.13 1331.39,-335.57 1340.77,-316.62 1314.95,-299.09 1246.38,-252.52 1169.39,-337.04 1131.95,-263.09"/>
</g>
<!-- zarr&#45;&gt;store_store -->
<g id="edge62" class="edge">
<title>zarr&#45;&gt;store_store</title><style>.edge>path:hover{stroke-width:8}</style>
<path fill="none" stroke="black" d="M1443.95,-422.65C1446.66,-381.39 1413.55,-357.64 1443.95,-329.61"/>
</g>
<!-- zarr&#45;&gt;store_viewer -->
<g id="edge63" class="edge">
<title>zarr&#45;&gt;store_viewer</title><style>.edge>path:hover{stroke-width:8}</style>
<path fill="none" stroke="black" d="M1404.16,-509.97C1497.32,-510.25 1811.71,-506.87 2063.95,-453.17 2188.79,-426.6 2218.82,-411.09 2334.95,-358.13 2340.64,-355.54 2346.52,-352.51 2352.18,-349.42"/>
<polygon fill="#f90667" stroke="black" points="2353.71,-352.57 2360.69,-344.6 2350.27,-346.48 2353.71,-352.57"/>
</g>
<!-- zarr_codecs -->
<g id="node37" class="node">
<title>zarr_codecs</title><style>.edge>path:hover{stroke-width:8}</style>
<ellipse fill="#b83d6e" stroke="black" cx="1102.95" cy="-328.61" rx="39.2" ry="18"/>
<text xml:space="preserve" text-anchor="middle" x="1102.95" y="-324.73" font-family="Helvetica,sans-Serif" font-size="10.00" fill="#ffffff">zarr.codecs</text>
</g>
<!-- zarr_codecs&#45;&gt;store_grid_adapters_grid_storage -->
<g id="edge64" class="edge">
<title>zarr_codecs&#45;&gt;store_grid_adapters_grid_storage</title><style>.edge>path:hover{stroke-width:8}</style>
<path fill="none" stroke="black" d="M1118.25,-311.77C1129.04,-298.59 1140.22,-279.41 1131.95,-263.09"/>
<path fill="none" stroke="black" d="M1131.95,-262.09C1121.31,-241.07 1136.64,-231.95 1130.95,-209.09"/>
</g>
<!-- zarr_codecs_Blosc&#45;&gt;store_grid_adapters_grid_storage -->
<g id="edge65" class="edge">
<title>zarr_codecs_Blosc&#45;&gt;store_grid_adapters_grid_storage</title><style>.edge>path:hover{stroke-width:8}</style>
<path fill="none" stroke="black" d="M2084.01,-309.77C2089.62,-306.22 2095.47,-302.53 2100.95,-299.09 2126.65,-282.97 2173.23,-289.86 2158.95,-263.09"/>
</g>
<!-- zarr_dtype -->
<g id="node39" class="node">
<title>zarr_dtype</title><style>.edge>path:hover{stroke-width:8}</style>
<ellipse fill="#b34c75" stroke="black" cx="1814.95" cy="-328.61" rx="34.76" ry="18"/>
<text xml:space="preserve" text-anchor="middle" x="1814.95" y="-324.73" font-family="Helvetica,sans-Serif" font-size="10.00" fill="#ffffff">zarr.dtype</text>
</g>
<!-- zarr_dtype&#45;&gt;store_store -->
<g id="edge66" class="edge">
<title>zarr_dtype&#45;&gt;store_store</title><style>.edge>path:hover{stroke-width:8}</style>
<path fill="none" stroke="black" d="M1795.45,-313.37C1788.04,-308.39 1779.35,-303.06 1770.95,-299.09 1723.3,-276.55 1694.09,-301.46 1657.95,-263.09"/>
</g>
</g>
</svg>
