<svg xmlns="http://www.w3.org/2000/svg" viewBox="0 0 3612.8500000000004 516" width="3612.8500000000004" height="516" style="--bg:#FFFFFF;--fg:#27272A;background:var(--bg)">
<style>
  @import url('https://fonts.googleapis.com/css2?family=Inter:wght@400;500;600;700&amp;display=swap');
  text { font-family: 'Inter', system-ui, sans-serif; }
  svg {
    /* Derived from --bg and --fg (overridable via --line, --accent, etc.) */
    --_text:          var(--fg);
    --_text-sec:      var(--muted, color-mix(in srgb, var(--fg) 60%, var(--bg)));
    --_text-muted:    var(--muted, color-mix(in srgb, var(--fg) 40%, var(--bg)));
    --_text-faint:    color-mix(in srgb, var(--fg) 25%, var(--bg));
    --_line:          var(--line, color-mix(in srgb, var(--fg) 30%, var(--bg)));
    --_arrow:         var(--accent, color-mix(in srgb, var(--fg) 50%, var(--bg)));
    --_node-fill:     var(--surface, color-mix(in srgb, var(--fg) 3%, var(--bg)));
    --_node-stroke:   var(--border, color-mix(in srgb, var(--fg) 20%, var(--bg)));
    --_group-fill:    var(--bg);
    --_group-hdr:     color-mix(in srgb, var(--fg) 5%, var(--bg));
    --_inner-stroke:  color-mix(in srgb, var(--fg) 12%, var(--bg));
    --_key-badge:     color-mix(in srgb, var(--fg) 10%, var(--bg));
  }
</style>
<defs>
  <marker id="arrowhead" markerWidth="8" markerHeight="4.8" refX="8" refY="2.4" orient="auto">
    <polygon points="0 0, 8 2.4, 0 4.8" fill="var(--_arrow)" />
  </marker>
  <marker id="arrowhead-start" markerWidth="8" markerHeight="4.8" refX="0" refY="2.4" orient="auto-start-reverse">
    <polygon points="8 0, 0 2.4, 8 4.8" fill="var(--_arrow)" />
  </marker>
</defs>
<rect x="2928.8500000000004" y="80" width="644" height="346" rx="0" ry="0" fill="var(--_group-fill)" stroke="var(--_node-stroke)" stroke-width="1" />
<rect x="2928.8500000000004" y="80" width="644" height="28" rx="0" ry="0" fill="var(--_group-hdr)" stroke="var(--_node-stroke)" stroke-width="1" />
<text x="2940.8500000000004" y="94" dy="0.35em" font-size="12" font-weight="600" fill="var(--_text-sec)">&quot;Foundation Layer&quot;</text>
<rect x="1452.25" y="40" width="1396.6000000000004" height="216" rx="0" ry="0" fill="var(--_group-fill)" stroke="var(--_node-stroke)" stroke-width="1" />
<rect x="1452.25" y="40" width="1396.6000000000004" height="28" rx="0" ry="0" fill="var(--_group-hdr)" stroke="var(--_node-stroke)" stroke-width="1" />
<text x="1464.25" y="54" dy="0.35em" font-size="12" font-weight="600" fill="var(--_text-sec)">&quot;Data I/O Layer&quot;</text>
<rect x="692.5" y="130" width="679.75" height="166" rx="0" ry="0" fill="var(--_group-fill)" stroke="var(--_node-stroke)" stroke-width="1" />
<rect x="692.5" y="130" width="679.75" height="28" rx="0" ry="0" fill="var(--_group-hdr)" stroke="var(--_node-stroke)" stroke-width="1" />
<text x="704.5" y="144" dy="0.35em" font-size="12" font-weight="600" fill="var(--_text-sec)">&quot;Persistence Layer&quot;</text>
<rect x="1452.25" y="260" width="686.9000000000001" height="206" rx="0" ry="0" fill="var(--_group-fill)" stroke="var(--_node-stroke)" stroke-width="1" />
<rect x="1452.25" y="260" width="686.9000000000001" height="28" rx="0" ry="0" fill="var(--_group-hdr)" stroke="var(--_node-stroke)" stroke-width="1" />
<text x="1464.25" y="274" dy="0.35em" font-size="12" font-weight="600" fill="var(--_text-sec)">&quot;Computation Layer&quot;</text>
<rect x="692.5" y="360" width="679.75" height="116" rx="0" ry="0" fill="var(--_group-fill)" stroke="var(--_node-stroke)" stroke-width="1" />
<rect x="692.5" y="360" width="679.75" height="28" rx="0" ry="0" fill="var(--_group-hdr)" stroke="var(--_node-stroke)" stroke-width="1" />
<text x="704.5" y="374" dy="0.35em" font-size="12" font-weight="600" fill="var(--_text-sec)">&quot;Presentation Layer&quot;</text>
<rect x="40" y="40" width="572.5" height="426" rx="0" ry="0" fill="var(--_group-fill)" stroke="var(--_node-stroke)" stroke-width="1" />
<rect x="40" y="40" width="572.5" height="28" rx="0" ry="0" fill="var(--_group-hdr)" stroke="var(--_node-stroke)" stroke-width="1" />
<text x="52" y="54" dy="0.35em" font-size="12" font-weight="600" fill="var(--_text-sec)">&quot;Orchestration Layer&quot;</text>
<polyline points="2828.85,156 3250.8500000000004,156 3250.8500000000004,228" fill="none" stroke="var(--_line)" stroke-width="0.75" stroke-dasharray="4 4" marker-end="url(#arrowhead)" />
<polyline points="2108.425,176 2139.15,176 2139.15,156 2239.15,156" fill="none" stroke="var(--_line)" stroke-width="0.75" stroke-dasharray="4 4" marker-end="url(#arrowhead)" />
<polyline points="2108.425,176 2139.15,176 2139.15,206 3250.8500000000004,206 3250.8500000000004,228" fill="none" stroke="var(--_line)" stroke-width="0.75" stroke-dasharray="4 4" marker-end="url(#arrowhead)" />
<polyline points="1352.25,236 1372.25,236 1372.25,206 1795.7,206 1795.7,194" fill="none" stroke="var(--_line)" stroke-width="0.75" stroke-dasharray="4 4" marker-end="url(#arrowhead)" />
<polyline points="1352.25,236 2534,236 2534,174" fill="none" stroke="var(--_line)" stroke-width="0.75" stroke-dasharray="4 4" marker-end="url(#arrowhead)" />
<polyline points="1352.25,236 1372.25,236 1372.25,276 3250.8500000000004,276 3250.8500000000004,264" fill="none" stroke="var(--_line)" stroke-width="0.75" stroke-dasharray="4 4" marker-end="url(#arrowhead)" />
<polyline points="2119.15,406 3250.8500000000004,406 3250.8500000000004,264" fill="none" stroke="var(--_line)" stroke-width="0.75" stroke-dasharray="4 4" marker-end="url(#arrowhead)" />
<polyline points="1320.075,436 1795.7,436 1795.7,424" fill="none" stroke="var(--_line)" stroke-width="0.75" stroke-dasharray="4 4" marker-end="url(#arrowhead)" />
<polyline points="592.5,286 612.5,286 612.5,116 2534,116 2534,138" fill="none" stroke="var(--_line)" stroke-width="1.5" marker-end="url(#arrowhead)" />
<polyline points="592.5,286 612.5,286 612.5,146 1795.7,146 1795.7,158" fill="none" stroke="var(--_line)" stroke-width="1.5" marker-end="url(#arrowhead)" />
<polyline points="592.5,286 612.5,286 612.5,236 712.5,236" fill="none" stroke="var(--_line)" stroke-width="1.5" marker-end="url(#arrowhead)" />
<polyline points="592.5,286 612.5,286 612.5,336 1508,336" fill="none" stroke="var(--_line)" stroke-width="1.5" marker-end="url(#arrowhead)" />
<polyline points="592.5,286 612.5,286 612.5,376 1795.7,376 1795.7,388" fill="none" stroke="var(--_line)" stroke-width="1.5" marker-end="url(#arrowhead)" />
<polyline points="592.5,286 612.5,286 612.5,436 744.675,436" fill="none" stroke="var(--_line)" stroke-width="1.5" marker-end="url(#arrowhead)" />
<rect x="2948.8500000000004" y="228" width="604" height="36" rx="0" ry="0" fill="var(--_node-fill)" stroke="var(--_node-stroke)" stroke-width="0.75" />
<rect x="2239.15" y="138" width="589.7" height="36" rx="0" ry="0" fill="var(--_node-fill)" stroke="var(--_node-stroke)" stroke-width="0.75" />
<rect x="1482.975" y="158" width="625.45" height="36" rx="0" ry="0" fill="var(--_node-fill)" stroke="var(--_node-stroke)" stroke-width="0.75" />
<rect x="712.5" y="218" width="639.75" height="36" rx="0" ry="0" fill="var(--_node-fill)" stroke="var(--_node-stroke)" stroke-width="0.75" />
<rect x="1508" y="318" width="575.4000000000001" height="36" rx="0" ry="0" fill="var(--_node-fill)" stroke="var(--_node-stroke)" stroke-width="0.75" />
<rect x="1472.25" y="388" width="646.9000000000001" height="36" rx="0" ry="0" fill="var(--_node-fill)" stroke="var(--_node-stroke)" stroke-width="0.75" />
<rect x="744.675" y="418" width="575.4000000000001" height="36" rx="0" ry="0" fill="var(--_node-fill)" stroke="var(--_node-stroke)" stroke-width="0.75" />
<rect x="60" y="268" width="532.5" height="36" rx="0" ry="0" fill="var(--_node-fill)" stroke="var(--_node-stroke)" stroke-width="0.75" />
<text x="3250.8500000000004" y="246" text-anchor="middle" dy="0.35em" font-size="13" font-weight="500" fill="var(--_text)">&quot;canvod-utils  Configuration (Pydantic) Date utilities (YYYYDOY) Shared tooling&quot;</text>
<text x="2534" y="156" text-anchor="middle" dy="0.35em" font-size="13" font-weight="500" fill="var(--_text)">&quot;canvod-readers  RINEX v3.04 parser Signal ID mapping Data directory matching&quot;</text>
<text x="1795.6999999999998" y="176" text-anchor="middle" dy="0.35em" font-size="13" font-weight="500" fill="var(--_text)">&quot;canvod-auxiliary  SP3/CLK retrieval Hermite interpolation FTP download management&quot;</text>
<text x="1032.375" y="236" text-anchor="middle" dy="0.35em" font-size="13" font-weight="500" fill="var(--_text)">&quot;canvod-store  Icechunk versioned storage Site/receiver management Metadata tracking&quot;</text>
<text x="1795.7" y="336" text-anchor="middle" dy="0.35em" font-size="13" font-weight="500" fill="var(--_text)">&quot;canvod-vod  VOD calculator (ABC) Tau-Omega inversion Extensible algorithms&quot;</text>
<text x="1795.7" y="406" text-anchor="middle" dy="0.35em" font-size="13" font-weight="500" fill="var(--_text)">&quot;canvod-grids  Hemispheric grids (7 types) KDTree cell assignment Grid I/O operations&quot;</text>
<text x="1032.375" y="436" text-anchor="middle" dy="0.35em" font-size="13" font-weight="500" fill="var(--_text)">&quot;canvod-viz  2D polar projections 3D interactive surfaces Time-series plots&quot;</text>
<text x="326.25" y="286" text-anchor="middle" dy="0.35em" font-size="13" font-weight="500" fill="var(--_text)">&quot;canvodpy  Pipeline orchestrator Factory system Public API (3 levels)&quot;</text>
</svg>