<?xml version="1.0" encoding="UTF-8" standalone="no"?>
<!DOCTYPE svg PUBLIC "-//W3C//DTD SVG 1.1//EN"
 "http://www.w3.org/Graphics/SVG/1.1/DTD/svg11.dtd">
<!-- Generated by graphviz version 14.1.1 (20251213.1925)
 -->
<!-- Title: G Pages: 1 -->
<svg width="286pt" height="353pt"
 viewBox="0.00 0.00 286.00 353.00" xmlns="http://www.w3.org/2000/svg" xmlns:xlink="http://www.w3.org/1999/xlink">
<g id="graph0" class="graph" transform="scale(1 1) rotate(0) translate(4 349.4)">
<title>G</title><style>.edge>path:hover{stroke-width:8}</style>
<polygon fill="white" stroke="none" points="-4,4 -4,-349.4 282.03,-349.4 282.03,4 -4,4"/>
<!-- canvodpy -->
<g id="node1" class="node">
<title>canvodpy</title><style>.edge>path:hover{stroke-width:8}</style>
<polygon fill="blue" stroke="black" points="78.96,-36 20.96,-36 20.96,0 78.96,0 78.96,-36"/>
<text xml:space="preserve" text-anchor="middle" x="49.96" y="-14.12" font-family="Helvetica,sans-Serif" font-size="10.00" fill="white">canvodpy</text>
</g>
<!-- canvodpy_api -->
<g id="node2" class="node">
<title>canvodpy_api</title><style>.edge>path:hover{stroke-width:8}</style>
<polygon fill="blue" stroke="black" points="86.08,-111.57 13.83,-111.57 13.83,-75.57 86.08,-75.57 86.08,-111.57"/>
<text xml:space="preserve" text-anchor="middle" x="49.96" y="-89.69" font-family="Helvetica,sans-Serif" font-size="10.00" fill="white">canvodpy.api</text>
</g>
<!-- canvodpy_api&#45;&gt;canvodpy -->
<g id="edge1" class="edge">
<title>canvodpy_api&#45;&gt;canvodpy</title><style>.edge>path:hover{stroke-width:8}</style>
<path fill="none" stroke="black" d="M49.96,-75.13C49.96,-66.89 49.96,-56.83 49.96,-47.51"/>
<polygon fill="blue" stroke="black" points="53.46,-47.82 49.96,-37.82 46.46,-47.82 53.46,-47.82"/>
</g>
<!-- canvodpy_globals -->
<g id="node3" class="node">
<title>canvodpy_globals</title><style>.edge>path:hover{stroke-width:8}</style>
<ellipse fill="#db2f2f" stroke="black" cx="107.96" cy="-323.83" rx="42.07" ry="21.57"/>
<text xml:space="preserve" text-anchor="middle" x="107.96" y="-325.58" font-family="Helvetica,sans-Serif" font-size="10.00" fill="#ffffff">canvodpy.</text>
<text xml:space="preserve" text-anchor="middle" x="107.96" y="-314.33" font-family="Helvetica,sans-Serif" font-size="10.00" fill="#ffffff">globals</text>
</g>
<!-- canvodpy_globals&#45;&gt;canvodpy -->
<g id="edge2" class="edge">
<title>canvodpy_globals&#45;&gt;canvodpy</title><style>.edge>path:hover{stroke-width:8}</style>
<path fill="none" stroke="black" d="M49.96,-168.13C43.81,-137.85 15.61,-144.14 4.96,-115.13 -1.65,-97.14 -1.65,-90 4.96,-72 8.58,-62.12 14.96,-52.82 21.79,-44.86"/>
<polygon fill="#db2f2f" stroke="black" points="24.31,-47.29 28.55,-37.58 19.18,-42.53 24.31,-47.29"/>
<path fill="none" stroke="black" d="M91.74,-303.58C83.74,-293.15 74.62,-279.67 68.96,-266.27 52.02,-226.14 56.56,-213.18 49.96,-170.13"/>
</g>
<!-- canvodpy_globals&#45;&gt;canvodpy_api -->
<g id="edge3" class="edge">
<title>canvodpy_globals&#45;&gt;canvodpy_api</title><style>.edge>path:hover{stroke-width:8}</style>
<path fill="none" stroke="black" d="M49.96,-168.13C46.99,-153.52 46.73,-136.92 47.32,-123.2"/>
<polygon fill="#db2f2f" stroke="black" points="50.8,-123.71 47.93,-113.51 43.81,-123.28 50.8,-123.71"/>
</g>
<!-- canvodpy_logging -->
<g id="node4" class="node">
<title>canvodpy_logging</title><style>.edge>path:hover{stroke-width:8}</style>
<polygon fill="blue" stroke="black" points="137.71,-262.7 78.21,-262.7 78.21,-226.7 137.71,-226.7 137.71,-262.7"/>
<text xml:space="preserve" text-anchor="middle" x="107.96" y="-246.45" font-family="Helvetica,sans-Serif" font-size="10.00" fill="white">canvodpy.</text>
<text xml:space="preserve" text-anchor="middle" x="107.96" y="-235.2" font-family="Helvetica,sans-Serif" font-size="10.00" fill="white">logging</text>
</g>
<!-- canvodpy_globals&#45;&gt;canvodpy_logging -->
<g id="edge4" class="edge">
<title>canvodpy_globals&#45;&gt;canvodpy_logging</title><style>.edge>path:hover{stroke-width:8}</style>
<path fill="none" stroke="black" d="M107.96,-302.16C107.96,-293.66 107.96,-283.67 107.96,-274.47"/>
<polygon fill="#db2f2f" stroke="black" points="111.46,-274.55 107.96,-264.55 104.46,-274.55 111.46,-274.55"/>
</g>
<!-- canvodpy_orchestrator -->
<g id="node5" class="node">
<title>canvodpy_orchestrator</title><style>.edge>path:hover{stroke-width:8}</style>
<polygon fill="blue" stroke="black" points="172.83,-187.13 105.08,-187.13 105.08,-151.13 172.83,-151.13 172.83,-187.13"/>
<text xml:space="preserve" text-anchor="middle" x="138.96" y="-170.88" font-family="Helvetica,sans-Serif" font-size="10.00" fill="white">canvodpy.</text>
<text xml:space="preserve" text-anchor="middle" x="138.96" y="-159.63" font-family="Helvetica,sans-Serif" font-size="10.00" fill="white">orchestrator</text>
</g>
<!-- canvodpy_globals&#45;&gt;canvodpy_orchestrator -->
<g id="edge5" class="edge">
<title>canvodpy_globals&#45;&gt;canvodpy_orchestrator</title><style>.edge>path:hover{stroke-width:8}</style>
<path fill="none" stroke="black" d="M125.48,-303.73C133.72,-293.44 142.67,-280.05 146.96,-266.27 153.8,-244.28 150.99,-218.19 146.91,-198.74"/>
<polygon fill="#db2f2f" stroke="black" points="150.33,-197.99 144.64,-189.06 143.52,-199.59 150.33,-197.99"/>
</g>
<!-- canvodpy_logging&#45;&gt;canvodpy_orchestrator -->
<g id="edge6" class="edge">
<title>canvodpy_logging&#45;&gt;canvodpy_orchestrator</title><style>.edge>path:hover{stroke-width:8}</style>
<path fill="none" stroke="black" d="M115.3,-226.27C118.86,-217.84 123.21,-207.51 127.2,-198.03"/>
<polygon fill="blue" stroke="black" points="130.42,-199.41 131.08,-188.84 123.97,-196.69 130.42,-199.41"/>
</g>
<!-- canvodpy_orchestrator&#45;&gt;canvodpy_api -->
<g id="edge7" class="edge">
<title>canvodpy_orchestrator&#45;&gt;canvodpy_api</title><style>.edge>path:hover{stroke-width:8}</style>
<path fill="none" stroke="black" d="M117.87,-150.7C106.45,-141.26 92.16,-129.45 79.64,-119.1"/>
<polygon fill="blue" stroke="black" points="82,-116.51 72.06,-112.84 77.54,-121.91 82,-116.51"/>
</g>
<!-- canvodpy_research_sites_config -->
<g id="node6" class="node">
<title>canvodpy_research_sites_config</title><style>.edge>path:hover{stroke-width:8}</style>
<ellipse fill="#b65353" stroke="black" cx="182.96" cy="-93.57" rx="78.67" ry="21.57"/>
<text xml:space="preserve" text-anchor="middle" x="182.96" y="-95.32" font-family="Helvetica,sans-Serif" font-size="10.00" fill="#ffffff">canvodpy.</text>
<text xml:space="preserve" text-anchor="middle" x="182.96" y="-84.07" font-family="Helvetica,sans-Serif" font-size="10.00" fill="#ffffff">research_sites_config</text>
</g>
<!-- canvodpy_research_sites_config&#45;&gt;canvodpy -->
<g id="edge8" class="edge">
<title>canvodpy_research_sites_config&#45;&gt;canvodpy</title><style>.edge>path:hover{stroke-width:8}</style>
<path fill="none" stroke="black" d="M149.05,-73.81C130.78,-63.71 108.16,-51.19 89.14,-40.67"/>
<polygon fill="#b65353" stroke="black" points="91.05,-37.73 80.61,-35.95 87.66,-43.86 91.05,-37.73"/>
</g>
<!-- canvodpy_settings -->
<g id="node7" class="node">
<title>canvodpy_settings</title><style>.edge>path:hover{stroke-width:8}</style>
<ellipse fill="#b65353" stroke="black" cx="235.96" cy="-244.7" rx="42.07" ry="21.57"/>
<text xml:space="preserve" text-anchor="middle" x="235.96" y="-246.45" font-family="Helvetica,sans-Serif" font-size="10.00" fill="#ffffff">canvodpy.</text>
<text xml:space="preserve" text-anchor="middle" x="235.96" y="-235.2" font-family="Helvetica,sans-Serif" font-size="10.00" fill="#ffffff">settings</text>
</g>
<!-- canvodpy_settings&#45;&gt;canvodpy_orchestrator -->
<g id="edge9" class="edge">
<title>canvodpy_settings&#45;&gt;canvodpy_orchestrator</title><style>.edge>path:hover{stroke-width:8}</style>
<path fill="none" stroke="black" d="M212.97,-226.27C200.41,-216.74 184.65,-204.79 170.91,-194.37"/>
<polygon fill="#b65353" stroke="black" points="173.07,-191.61 162.99,-188.36 168.84,-197.19 173.07,-191.61"/>
</g>
</g>
</svg>
