<?xml version="1.0" encoding="UTF-8" standalone="no"?>
<!DOCTYPE svg PUBLIC "-//W3C//DTD SVG 1.1//EN"
 "http://www.w3.org/Graphics/SVG/1.1/DTD/svg11.dtd">
<!-- Generated by graphviz version 14.1.1 (20251213.1925)
 -->
<!-- Title: G Pages: 1 -->
<svg width="1109pt" height="1090pt"
 viewBox="0.00 0.00 1109.00 1090.00" xmlns="http://www.w3.org/2000/svg" xmlns:xlink="http://www.w3.org/1999/xlink">
<g id="graph0" class="graph" transform="scale(1 1) rotate(0) translate(4 1086.39)">
<title>G</title><style>.edge>path:hover{stroke-width:8}</style>
<polygon fill="white" stroke="none" points="-4,4 -4,-1086.39 1105.3,-1086.39 1105.3,4 -4,4"/>
<!-- canvod -->
<g id="node1" class="node">
<title>canvod</title><style>.edge>path:hover{stroke-width:8}</style>
<polygon fill="#f38916" stroke="black" points="131.74,-453.61 128.74,-457.61 107.74,-457.61 104.74,-453.61 77.74,-453.61 77.74,-417.61 131.74,-417.61 131.74,-453.61"/>
<text xml:space="preserve" text-anchor="middle" x="104.74" y="-431.73" font-family="Helvetica,sans-Serif" font-size="10.00" fill="#000000">canvod</text>
</g>
<!-- readers -->
<g id="node18" class="node">
<title>readers</title><style>.edge>path:hover{stroke-width:8}</style>
<ellipse fill="#794cb3" stroke="black" cx="206.74" cy="-352.09" rx="28.55" ry="18"/>
<text xml:space="preserve" text-anchor="middle" x="206.74" y="-348.21" font-family="Helvetica,sans-Serif" font-size="10.00" fill="#ffffff">readers</text>
</g>
<!-- canvod&#45;&gt;readers -->
<g id="edge1" class="edge">
<title>canvod&#45;&gt;readers</title><style>.edge>path:hover{stroke-width:8}</style>
<path fill="none" stroke="black" d="M126.62,-417.12C142.53,-404.41 164.11,-387.16 180.87,-373.76"/>
<polygon fill="#f38916" stroke="black" points="182.81,-376.7 188.44,-367.72 178.44,-371.23 182.81,-376.7"/>
</g>
<!-- readers_gnss_specs_bands -->
<g id="node20" class="node">
<title>readers_gnss_specs_bands</title><style>.edge>path:hover{stroke-width:8}</style>
<ellipse fill="#5c3a88" stroke="black" cx="499.74" cy="-196.57" rx="50.56" ry="29.52"/>
<text xml:space="preserve" text-anchor="middle" x="499.74" y="-203.94" font-family="Helvetica,sans-Serif" font-size="10.00" fill="#ffffff">readers.</text>
<text xml:space="preserve" text-anchor="middle" x="499.74" y="-192.69" font-family="Helvetica,sans-Serif" font-size="10.00" fill="#ffffff">gnss_specs.</text>
<text xml:space="preserve" text-anchor="middle" x="499.74" y="-181.44" font-family="Helvetica,sans-Serif" font-size="10.00" fill="#ffffff">bands</text>
</g>
<!-- canvod&#45;&gt;readers_gnss_specs_bands -->
<g id="edge2" class="edge">
<title>canvod&#45;&gt;readers_gnss_specs_bands</title><style>.edge>path:hover{stroke-width:8}</style>
<path fill="none" stroke="black" d="M126.88,-417.15C132.77,-413.09 139.3,-409.09 145.74,-406.09 227.54,-367.98 260.53,-392.42 341.74,-353.09"/>
<path fill="none" stroke="black" d="M341.74,-351.09C383.07,-331.07 390.65,-318.17 417.74,-281.09"/>
<path fill="none" stroke="black" d="M417.74,-279.09C430.93,-261.03 448.16,-243.26 463.43,-228.94"/>
<polygon fill="#f38916" stroke="black" points="465.56,-231.73 470.55,-222.38 460.82,-226.58 465.56,-231.73"/>
</g>
<!-- readers_gnss_specs_metadata -->
<g id="node24" class="node">
<title>readers_gnss_specs_metadata</title><style>.edge>path:hover{stroke-width:8}</style>
<ellipse fill="#7449ac" stroke="black" cx="70.74" cy="-196.57" rx="50.56" ry="29.52"/>
<text xml:space="preserve" text-anchor="middle" x="70.74" y="-203.94" font-family="Helvetica,sans-Serif" font-size="10.00" fill="#ffffff">readers.</text>
<text xml:space="preserve" text-anchor="middle" x="70.74" y="-192.69" font-family="Helvetica,sans-Serif" font-size="10.00" fill="#ffffff">gnss_specs.</text>
<text xml:space="preserve" text-anchor="middle" x="70.74" y="-181.44" font-family="Helvetica,sans-Serif" font-size="10.00" fill="#ffffff">metadata</text>
</g>
<!-- canvod&#45;&gt;readers_gnss_specs_metadata -->
<g id="edge3" class="edge">
<title>canvod&#45;&gt;readers_gnss_specs_metadata</title><style>.edge>path:hover{stroke-width:8}</style>
<path fill="none" stroke="black" d="M149.74,-279.09C149.74,-256.43 133.81,-237.68 116.26,-223.9"/>
<polygon fill="#f38916" stroke="black" points="118.37,-221.11 108.23,-218.05 114.24,-226.77 118.37,-221.11"/>
<path fill="none" stroke="black" d="M113.42,-417.14C126.49,-389.14 149.74,-332.19 149.74,-281.09"/>
</g>
<!-- readers_gnss_specs_models -->
<g id="node25" class="node">
<title>readers_gnss_specs_models</title><style>.edge>path:hover{stroke-width:8}</style>
<ellipse fill="#5c3a88" stroke="black" cx="744.74" cy="-196.57" rx="50.56" ry="29.52"/>
<text xml:space="preserve" text-anchor="middle" x="744.74" y="-203.94" font-family="Helvetica,sans-Serif" font-size="10.00" fill="#ffffff">readers.</text>
<text xml:space="preserve" text-anchor="middle" x="744.74" y="-192.69" font-family="Helvetica,sans-Serif" font-size="10.00" fill="#ffffff">gnss_specs.</text>
<text xml:space="preserve" text-anchor="middle" x="744.74" y="-181.44" font-family="Helvetica,sans-Serif" font-size="10.00" fill="#ffffff">models</text>
</g>
<!-- canvod&#45;&gt;readers_gnss_specs_models -->
<g id="edge4" class="edge">
<title>canvod&#45;&gt;readers_gnss_specs_models</title><style>.edge>path:hover{stroke-width:8}</style>
<path fill="none" stroke="black" d="M341.74,-351.09C408.68,-318.66 429.94,-319.31 493.74,-281.09"/>
<path fill="none" stroke="black" d="M493.74,-279.09C554.16,-242.89 632.52,-220.77 685.49,-208.87"/>
<polygon fill="#f38916" stroke="black" points="686.22,-212.29 695.25,-206.74 684.73,-205.45 686.22,-212.29"/>
</g>
<!-- readers_gnss_specs_signals -->
<g id="node26" class="node">
<title>readers_gnss_specs_signals</title><style>.edge>path:hover{stroke-width:8}</style>
<ellipse fill="#794cb3" stroke="black" cx="228.74" cy="-196.57" rx="50.56" ry="29.52"/>
<text xml:space="preserve" text-anchor="middle" x="228.74" y="-203.94" font-family="Helvetica,sans-Serif" font-size="10.00" fill="#ffffff">readers.</text>
<text xml:space="preserve" text-anchor="middle" x="228.74" y="-192.69" font-family="Helvetica,sans-Serif" font-size="10.00" fill="#ffffff">gnss_specs.</text>
<text xml:space="preserve" text-anchor="middle" x="228.74" y="-181.44" font-family="Helvetica,sans-Serif" font-size="10.00" fill="#ffffff">signals</text>
</g>
<!-- canvod&#45;&gt;readers_gnss_specs_signals -->
<g id="edge5" class="edge">
<title>canvod&#45;&gt;readers_gnss_specs_signals</title><style>.edge>path:hover{stroke-width:8}</style>
<path fill="none" stroke="black" d="M149.74,-279.09C151.63,-256.85 167.32,-238.33 184.21,-224.59"/>
<polygon fill="#f38916" stroke="black" points="186.04,-227.6 191.89,-218.77 181.81,-222.02 186.04,-227.6"/>
</g>
<!-- readers_rinex_v3_04 -->
<g id="node31" class="node">
<title>readers_rinex_v3_04</title><style>.edge>path:hover{stroke-width:8}</style>
<ellipse fill="#5c3a88" stroke="black" cx="635.74" cy="-29.52" rx="36.24" ry="29.52"/>
<text xml:space="preserve" text-anchor="middle" x="635.74" y="-36.9" font-family="Helvetica,sans-Serif" font-size="10.00" fill="#ffffff">readers.</text>
<text xml:space="preserve" text-anchor="middle" x="635.74" y="-25.65" font-family="Helvetica,sans-Serif" font-size="10.00" fill="#ffffff">rinex.</text>
<text xml:space="preserve" text-anchor="middle" x="635.74" y="-14.4" font-family="Helvetica,sans-Serif" font-size="10.00" fill="#ffffff">v3_04</text>
</g>
<!-- canvod&#45;&gt;readers_rinex_v3_04 -->
<g id="edge6" class="edge">
<title>canvod&#45;&gt;readers_rinex_v3_04</title><style>.edge>path:hover{stroke-width:8}</style>
<path fill="none" stroke="black" d="M149.74,-279.09C154.02,-228.76 136.7,-206.09 168.74,-167.04 210.69,-115.94 256.48,-155.8 307.74,-114.04"/>
</g>
<!-- certifi -->
<g id="node2" class="node">
<title>certifi</title><style>.edge>path:hover{stroke-width:8}</style>
<polygon fill="#b6a053" stroke="black" points="788.74,-806.35 785.74,-810.35 764.74,-810.35 761.74,-806.35 734.74,-806.35 734.74,-770.35 788.74,-770.35 788.74,-806.35"/>
<text xml:space="preserve" text-anchor="middle" x="761.74" y="-784.48" font-family="Helvetica,sans-Serif" font-size="10.00" fill="#000000">certifi</text>
</g>
<!-- matplotlib -->
<g id="node8" class="node">
<title>matplotlib</title><style>.edge>path:hover{stroke-width:8}</style>
<polygon fill="blue" stroke="black" points="754.74,-722.83 751.74,-726.83 730.74,-726.83 727.74,-722.83 696.74,-722.83 696.74,-686.83 754.74,-686.83 754.74,-722.83"/>
<text xml:space="preserve" text-anchor="middle" x="725.74" y="-700.95" font-family="Helvetica,sans-Serif" font-size="10.00" fill="white">matplotlib</text>
</g>
<!-- certifi&#45;&gt;matplotlib -->
<g id="edge7" class="edge">
<title>certifi&#45;&gt;matplotlib</title><style>.edge>path:hover{stroke-width:8}</style>
<path fill="none" stroke="black" d="M754.11,-770.06C749.43,-759.47 743.34,-745.67 738,-733.58"/>
<polygon fill="#b6a053" stroke="black" points="741.22,-732.21 733.98,-724.48 734.81,-735.04 741.22,-732.21"/>
</g>
<!-- charset_normalizer -->
<g id="node3" class="node">
<title>charset_normalizer</title><style>.edge>path:hover{stroke-width:8}</style>
<polygon fill="#b1b653" stroke="black" points="356.99,-806.35 353.99,-810.35 332.99,-810.35 329.99,-806.35 258.49,-806.35 258.49,-770.35 356.99,-770.35 356.99,-806.35"/>
<text xml:space="preserve" text-anchor="middle" x="307.74" y="-784.48" font-family="Helvetica,sans-Serif" font-size="10.00" fill="#000000">charset_normalizer</text>
</g>
<!-- requests -->
<g id="node34" class="node">
<title>requests</title><style>.edge>path:hover{stroke-width:8}</style>
<polygon fill="blue" stroke="black" points="411.74,-722.83 408.74,-726.83 387.74,-726.83 384.74,-722.83 357.74,-722.83 357.74,-686.83 411.74,-686.83 411.74,-722.83"/>
<text xml:space="preserve" text-anchor="middle" x="384.74" y="-700.95" font-family="Helvetica,sans-Serif" font-size="10.00" fill="white">requests</text>
</g>
<!-- charset_normalizer&#45;&gt;requests -->
<g id="edge8" class="edge">
<title>charset_normalizer&#45;&gt;requests</title><style>.edge>path:hover{stroke-width:8}</style>
<path fill="none" stroke="black" d="M324.07,-770.06C334.69,-758.82 348.72,-743.97 360.61,-731.38"/>
<polygon fill="#b1b653" stroke="black" points="363.07,-733.87 367.4,-724.19 357.99,-729.06 363.07,-733.87"/>
</g>
<!-- cryptography -->
<g id="node4" class="node">
<title>cryptography</title><style>.edge>path:hover{stroke-width:8}</style>
<polygon fill="#9ecc33" stroke="black" points="568.87,-1082.39 565.87,-1086.39 544.87,-1086.39 541.87,-1082.39 496.62,-1082.39 496.62,-1046.39 568.87,-1046.39 568.87,-1082.39"/>
<text xml:space="preserve" text-anchor="middle" x="532.74" y="-1060.52" font-family="Helvetica,sans-Serif" font-size="10.00" fill="#000000">cryptography</text>
</g>
<!-- cryptography&#45;&gt;requests -->
<g id="edge9" class="edge">
<title>cryptography&#45;&gt;requests</title><style>.edge>path:hover{stroke-width:8}</style>
<path fill="none" stroke="black" d="M532.74,-991.39C516.24,-886.64 442.77,-780.15 405.94,-732.15"/>
<polygon fill="#9ecc33" stroke="black" points="408.71,-730.02 399.81,-724.28 403.19,-734.32 408.71,-730.02"/>
</g>
<!-- urllib3 -->
<g id="node37" class="node">
<title>urllib3</title><style>.edge>path:hover{stroke-width:8}</style>
<polygon fill="#df0b7a" stroke="black" points="394.74,-889.87 391.74,-893.87 370.74,-893.87 367.74,-889.87 340.74,-889.87 340.74,-853.87 394.74,-853.87 394.74,-889.87"/>
<text xml:space="preserve" text-anchor="middle" x="367.74" y="-868" font-family="Helvetica,sans-Serif" font-size="10.00" fill="#ffffff">urllib3</text>
</g>
<!-- cryptography&#45;&gt;urllib3 -->
<g id="edge10" class="edge">
<title>cryptography&#45;&gt;urllib3</title><style>.edge>path:hover{stroke-width:8}</style>
<path fill="none" stroke="black" d="M532.74,-991.39C514.85,-934.44 448.48,-900.99 405.57,-884.86"/>
<polygon fill="#9ecc33" stroke="black" points="406.96,-881.64 396.36,-881.54 404.59,-888.22 406.96,-881.64"/>
<path fill="none" stroke="black" d="M534.24,-1046.02C535.1,-1031.78 535.54,-1011.16 532.74,-993.39"/>
</g>
<!-- cycler -->
<g id="node5" class="node">
<title>cycler</title><style>.edge>path:hover{stroke-width:8}</style>
<polygon fill="#7bce3b" stroke="black" points="733.74,-889.87 730.74,-893.87 709.74,-893.87 706.74,-889.87 679.74,-889.87 679.74,-853.87 733.74,-853.87 733.74,-889.87"/>
<text xml:space="preserve" text-anchor="middle" x="706.74" y="-868" font-family="Helvetica,sans-Serif" font-size="10.00" fill="#000000">cycler</text>
</g>
<!-- cycler&#45;&gt;matplotlib -->
<g id="edge11" class="edge">
<title>cycler&#45;&gt;matplotlib</title><style>.edge>path:hover{stroke-width:8}</style>
<path fill="none" stroke="black" d="M708.74,-853.52C712,-825.17 718.51,-768.63 722.46,-734.32"/>
<polygon fill="#7bce3b" stroke="black" points="725.9,-735.03 723.57,-724.7 718.95,-734.23 725.9,-735.03"/>
</g>
<!-- georinex -->
<g id="node6" class="node">
<title>georinex</title><style>.edge>path:hover{stroke-width:8}</style>
<polygon fill="#407934" stroke="black" points="279.74,-298.09 276.74,-302.09 255.74,-302.09 252.74,-298.09 225.74,-298.09 225.74,-262.09 279.74,-262.09 279.74,-298.09"/>
<text xml:space="preserve" text-anchor="middle" x="252.74" y="-276.21" font-family="Helvetica,sans-Serif" font-size="10.00" fill="#ffffff">georinex</text>
</g>
<!-- georinex&#45;&gt;readers_rinex_v3_04 -->
<g id="edge12" class="edge">
<title>georinex&#45;&gt;readers_rinex_v3_04</title><style>.edge>path:hover{stroke-width:8}</style>
<path fill="none" stroke="black" d="M307.74,-195.57C307.74,-159.33 278.62,-135.6 307.74,-114.04"/>
<path fill="none" stroke="black" d="M273.53,-261.6C289.11,-246.45 307.74,-223 307.74,-197.57"/>
</g>
<!-- IPython -->
<g id="node7" class="node">
<title>IPython</title><style>.edge>path:hover{stroke-width:8}</style>
<polygon fill="#dd1818" stroke="black" points="811.74,-453.61 808.74,-457.61 787.74,-457.61 784.74,-453.61 757.74,-453.61 757.74,-417.61 811.74,-417.61 811.74,-453.61"/>
<text xml:space="preserve" text-anchor="middle" x="784.74" y="-431.73" font-family="Helvetica,sans-Serif" font-size="10.00" fill="#ffffff">IPython</text>
</g>
<!-- PIL -->
<g id="node13" class="node">
<title>PIL</title><style>.edge>path:hover{stroke-width:8}</style>
<polygon fill="#e64f19" stroke="black" points="789.74,-298.09 786.74,-302.09 765.74,-302.09 762.74,-298.09 735.74,-298.09 735.74,-262.09 789.74,-262.09 789.74,-298.09"/>
<text xml:space="preserve" text-anchor="middle" x="762.74" y="-276.21" font-family="Helvetica,sans-Serif" font-size="10.00" fill="#ffffff">PIL</text>
</g>
<!-- IPython&#45;&gt;PIL -->
<g id="edge14" class="edge">
<title>IPython&#45;&gt;PIL</title><style>.edge>path:hover{stroke-width:8}</style>
<path fill="none" stroke="black" d="M782.26,-417.3C778.51,-391.15 771.37,-341.3 766.84,-309.7"/>
<polygon fill="#dd1818" stroke="black" points="770.35,-309.47 765.46,-300.07 763.42,-310.47 770.35,-309.47"/>
</g>
<!-- matplotlib&#45;&gt;IPython -->
<g id="edge15" class="edge">
<title>matplotlib&#45;&gt;IPython</title><style>.edge>path:hover{stroke-width:8}</style>
<path fill="none" stroke="black" d="M731.96,-675.65C743.27,-624.45 767.07,-516.67 778.43,-465.17"/>
<polygon fill="blue" stroke="black" points="728.59,-674.71 729.85,-685.23 735.42,-676.22 728.59,-674.71"/>
<polygon fill="blue" stroke="black" points="781.85,-465.93 780.59,-455.41 775.02,-464.42 781.85,-465.93"/>
</g>
<!-- matplotlib&#45;&gt;readers_gnss_specs_bands -->
<g id="edge16" class="edge">
<title>matplotlib&#45;&gt;readers_gnss_specs_bands</title><style>.edge>path:hover{stroke-width:8}</style>
<path fill="none" stroke="black" d="M721.45,-686.63C707.52,-631.28 663.08,-458.32 638.74,-406.09 608.29,-340.74 559.01,-272.62 528.05,-232.69"/>
<polygon fill="blue" stroke="black" points="530.83,-230.56 521.91,-224.84 525.31,-234.88 530.83,-230.56"/>
</g>
<!-- xarray -->
<g id="node38" class="node">
<title>xarray</title><style>.edge>path:hover{stroke-width:8}</style>
<polygon fill="blue" stroke="black" points="739.74,-453.61 736.74,-457.61 715.74,-457.61 712.74,-453.61 685.74,-453.61 685.74,-417.61 739.74,-417.61 739.74,-453.61"/>
<text xml:space="preserve" text-anchor="middle" x="712.74" y="-431.73" font-family="Helvetica,sans-Serif" font-size="10.00" fill="white">xarray</text>
</g>
<!-- matplotlib&#45;&gt;xarray -->
<g id="edge17" class="edge">
<title>matplotlib&#45;&gt;xarray</title><style>.edge>path:hover{stroke-width:8}</style>
<path fill="none" stroke="black" d="M724.25,-686.57C722.98,-667.81 721.9,-637 725.74,-610.79"/>
</g>
<!-- natsort -->
<g id="node9" class="node">
<title>natsort</title><style>.edge>path:hover{stroke-width:8}</style>
<polygon fill="blue" stroke="black" points="623.74,-889.87 620.74,-893.87 599.74,-893.87 596.74,-889.87 569.74,-889.87 569.74,-853.87 623.74,-853.87 623.74,-889.87"/>
<text xml:space="preserve" text-anchor="middle" x="596.74" y="-868" font-family="Helvetica,sans-Serif" font-size="10.00" fill="white">natsort</text>
</g>
<!-- readers_gnss_specs_constellations -->
<g id="node23" class="node">
<title>readers_gnss_specs_constellations</title><style>.edge>path:hover{stroke-width:8}</style>
<ellipse fill="#6a439d" stroke="black" cx="575.74" cy="-435.61" rx="53.74" ry="29.52"/>
<text xml:space="preserve" text-anchor="middle" x="575.74" y="-442.98" font-family="Helvetica,sans-Serif" font-size="10.00" fill="#ffffff">readers.</text>
<text xml:space="preserve" text-anchor="middle" x="575.74" y="-431.73" font-family="Helvetica,sans-Serif" font-size="10.00" fill="#ffffff">gnss_specs.</text>
<text xml:space="preserve" text-anchor="middle" x="575.74" y="-420.48" font-family="Helvetica,sans-Serif" font-size="10.00" fill="#ffffff">constellations</text>
</g>
<!-- natsort&#45;&gt;readers_gnss_specs_constellations -->
<g id="edge18" class="edge">
<title>natsort&#45;&gt;readers_gnss_specs_constellations</title><style>.edge>path:hover{stroke-width:8}</style>
<path fill="none" stroke="black" d="M585.64,-853.46C567.97,-824.3 534.84,-763.15 528.74,-705.83"/>
<path fill="none" stroke="black" d="M528.74,-703.83C526.59,-682.54 451.18,-542.84 460.74,-523.7"/>
</g>
<!-- readers_matching_dir_matcher -->
<g id="node29" class="node">
<title>readers_matching_dir_matcher</title><style>.edge>path:hover{stroke-width:8}</style>
<ellipse fill="#723db8" stroke="black" cx="573.74" cy="-609.79" rx="47.38" ry="29.52"/>
<text xml:space="preserve" text-anchor="middle" x="573.74" y="-617.16" font-family="Helvetica,sans-Serif" font-size="10.00" fill="#ffffff">readers.</text>
<text xml:space="preserve" text-anchor="middle" x="573.74" y="-605.91" font-family="Helvetica,sans-Serif" font-size="10.00" fill="#ffffff">matching.</text>
<text xml:space="preserve" text-anchor="middle" x="573.74" y="-594.66" font-family="Helvetica,sans-Serif" font-size="10.00" fill="#ffffff">dir_matcher</text>
</g>
<!-- natsort&#45;&gt;readers_matching_dir_matcher -->
<g id="edge19" class="edge">
<title>natsort&#45;&gt;readers_matching_dir_matcher</title><style>.edge>path:hover{stroke-width:8}</style>
<path fill="none" stroke="black" d="M528.74,-703.83C526.55,-683.25 535.47,-662.32 545.94,-645.54"/>
<polygon fill="blue" stroke="black" points="548.71,-647.69 551.36,-637.43 542.89,-643.8 548.71,-647.69"/>
</g>
<!-- numpy -->
<g id="node10" class="node">
<title>numpy</title><style>.edge>path:hover{stroke-width:8}</style>
<polygon fill="blue" stroke="black" points="474.74,-1010.39 471.74,-1014.39 450.74,-1014.39 447.74,-1010.39 420.74,-1010.39 420.74,-974.39 474.74,-974.39 474.74,-1010.39"/>
<text xml:space="preserve" text-anchor="middle" x="447.74" y="-988.52" font-family="Helvetica,sans-Serif" font-size="10.00" fill="white">numpy</text>
</g>
<!-- numpy&#45;&gt;georinex -->
<g id="edge20" class="edge">
<title>numpy&#45;&gt;georinex</title><style>.edge>path:hover{stroke-width:8}</style>
<path fill="none" stroke="black" d="M159.74,-521.7C144.98,-471.76 142.62,-443.6 178.74,-406.09 234.42,-348.26 304.95,-432.25 355.74,-370.09 365.87,-357.7 364.07,-347.75 355.74,-334.09 348.22,-321.75 316.68,-306.56 290.47,-295.61"/>
<polygon fill="blue" stroke="black" points="292,-292.46 281.41,-291.92 289.35,-298.94 292,-292.46"/>
</g>
<!-- numpy&#45;&gt;matplotlib -->
<g id="edge21" class="edge">
<title>numpy&#45;&gt;matplotlib</title><style>.edge>path:hover{stroke-width:8}</style>
<path fill="none" stroke="black" d="M668.74,-787.35C674.36,-766.65 687.94,-746.84 700.44,-731.94"/>
<polygon fill="blue" stroke="black" points="703.04,-734.29 707.01,-724.46 697.78,-729.67 703.04,-734.29"/>
</g>
<!-- pandas -->
<g id="node12" class="node">
<title>pandas</title><style>.edge>path:hover{stroke-width:8}</style>
<polygon fill="blue" stroke="black" points="486.74,-722.83 483.74,-726.83 462.74,-726.83 459.74,-722.83 432.74,-722.83 432.74,-686.83 486.74,-686.83 486.74,-722.83"/>
<text xml:space="preserve" text-anchor="middle" x="459.74" y="-700.95" font-family="Helvetica,sans-Serif" font-size="10.00" fill="white">pandas</text>
</g>
<!-- numpy&#45;&gt;pandas -->
<g id="edge22" class="edge">
<title>numpy&#45;&gt;pandas</title><style>.edge>path:hover{stroke-width:8}</style>
<path fill="none" stroke="black" d="M418.74,-937.39C394.47,-905.93 430.81,-788.43 449.63,-733.93"/>
<polygon fill="blue" stroke="black" points="452.84,-735.33 452.85,-724.74 446.24,-733.02 452.84,-735.33"/>
</g>
<!-- pint -->
<g id="node14" class="node">
<title>pint</title><style>.edge>path:hover{stroke-width:8}</style>
<polygon fill="blue" stroke="black" points="257.74,-722.83 254.74,-726.83 233.74,-726.83 230.74,-722.83 203.74,-722.83 203.74,-686.83 257.74,-686.83 257.74,-722.83"/>
<text xml:space="preserve" text-anchor="middle" x="230.74" y="-700.95" font-family="Helvetica,sans-Serif" font-size="10.00" fill="white">pint</text>
</g>
<!-- numpy&#45;&gt;pint -->
<g id="edge23" class="edge">
<title>numpy&#45;&gt;pint</title><style>.edge>path:hover{stroke-width:8}</style>
<path fill="none" stroke="black" d="M230.74,-787.35C223.68,-770.68 223.68,-750.31 225.44,-734.1"/>
<polygon fill="blue" stroke="black" points="228.84,-735.03 226.75,-724.65 221.91,-734.07 228.84,-735.03"/>
</g>
<!-- numpy&#45;&gt;readers_gnss_specs_metadata -->
<g id="edge24" class="edge">
<title>numpy&#45;&gt;readers_gnss_specs_metadata</title><style>.edge>path:hover{stroke-width:8}</style>
<path fill="none" stroke="black" d="M70.74,-279.09C68.78,-265.66 68.29,-250.85 68.44,-237.58"/>
<polygon fill="blue" stroke="black" points="71.93,-237.98 68.68,-227.9 64.93,-237.81 71.93,-237.98"/>
</g>
<!-- numpy&#45;&gt;readers_rinex_v3_04 -->
<g id="edge25" class="edge">
<title>numpy&#45;&gt;readers_rinex_v3_04</title><style>.edge>path:hover{stroke-width:8}</style>
<path fill="none" stroke="black" d="M159.74,-521.7C146.67,-475.9 91.88,-506.75 68.74,-465.13 29,-393.63 82.57,-362.03 70.74,-281.09"/>
<path fill="none" stroke="black" d="M70.74,-279.09C64.25,-244.1 25.37,-258.52 10.74,-226.09 -0.05,-202.17 -6.11,-187.16 10.74,-167.04 96.82,-64.24 204.73,-199.87 307.74,-114.04"/>
<path fill="none" stroke="black" d="M440.21,-974.26C435.02,-963.41 427.48,-949.4 418.74,-938.39"/>
<path fill="none" stroke="black" d="M230.74,-787.35C219.64,-761.13 205.32,-760.79 194.74,-734.35 159.48,-646.24 183.5,-615.58 159.74,-523.7"/>
<path fill="none" stroke="black" d="M307.74,-112.04C349.71,-75.83 508.42,-48.66 588.67,-36.92"/>
<polygon fill="blue" stroke="black" points="589.02,-40.4 598.42,-35.51 588.03,-33.47 589.02,-40.4"/>
<path fill="none" stroke="black" d="M418.74,-937.39C392.72,-904.62 365.93,-925.53 331.74,-901.39 276.97,-862.73 254.28,-852.13 230.74,-789.35"/>
</g>
<!-- numpy&#45;&gt;xarray -->
<g id="edge26" class="edge">
<title>numpy&#45;&gt;xarray</title><style>.edge>path:hover{stroke-width:8}</style>
<path fill="none" stroke="black" d="M725.74,-608.79C731.23,-571.37 731.02,-561.14 725.74,-523.7"/>
<path fill="none" stroke="black" d="M475.17,-985.32C515.44,-975 590.38,-950.23 632.74,-901.39 667.01,-861.88 655.05,-839.83 668.74,-789.35"/>
<path fill="none" stroke="black" d="M668.74,-787.35C683.51,-739.05 670.42,-722.75 687.74,-675.31 699.16,-644.05 720.91,-643.71 725.74,-610.79"/>
<path fill="none" stroke="black" d="M725.74,-521.7C723.07,-502.76 719.83,-481.5 717.24,-464.97"/>
<polygon fill="blue" stroke="black" points="720.74,-464.7 715.73,-455.36 713.83,-465.78 720.74,-464.7"/>
</g>
<!-- packaging -->
<g id="node11" class="node">
<title>packaging</title><style>.edge>path:hover{stroke-width:8}</style>
<polygon fill="#22e7cd" stroke="black" points="943.87,-889.87 940.87,-893.87 919.87,-893.87 916.87,-889.87 883.62,-889.87 883.62,-853.87 943.87,-853.87 943.87,-889.87"/>
<text xml:space="preserve" text-anchor="middle" x="913.74" y="-868" font-family="Helvetica,sans-Serif" font-size="10.00" fill="#000000">packaging</text>
</g>
<!-- packaging&#45;&gt;matplotlib -->
<g id="edge27" class="edge">
<title>packaging&#45;&gt;matplotlib</title><style>.edge>path:hover{stroke-width:8}</style>
<path fill="none" stroke="black" d="M816.74,-787.35C799.53,-766.03 776.51,-745.47 757.94,-730.33"/>
<polygon fill="#22e7cd" stroke="black" points="760.13,-727.6 750.14,-724.09 755.76,-733.07 760.13,-727.6"/>
<path fill="none" stroke="black" d="M887.86,-853.42C866.82,-838.28 837.34,-814.85 816.74,-789.35"/>
</g>
<!-- packaging&#45;&gt;xarray -->
<g id="edge28" class="edge">
<title>packaging&#45;&gt;xarray</title><style>.edge>path:hover{stroke-width:8}</style>
<path fill="none" stroke="black" d="M816.74,-787.35C777.8,-739.13 742.86,-583.27 725.74,-523.7"/>
</g>
<!-- pandas&#45;&gt;readers_gnss_specs_constellations -->
<g id="edge29" class="edge">
<title>pandas&#45;&gt;readers_gnss_specs_constellations</title><style>.edge>path:hover{stroke-width:8}</style>
<path fill="none" stroke="black" d="M458.88,-686.62C458.19,-667.89 457.76,-637.11 460.74,-610.79"/>
<path fill="none" stroke="black" d="M460.74,-608.79C464.99,-571.21 443.91,-557.56 460.74,-523.7"/>
</g>
<!-- pandas&#45;&gt;xarray -->
<g id="edge30" class="edge">
<title>pandas&#45;&gt;xarray</title><style>.edge>path:hover{stroke-width:8}</style>
<path fill="none" stroke="black" d="M460.74,-608.79C472.17,-507.77 543.6,-500.94 638.74,-465.13 650.46,-460.72 663.19,-455.84 674.74,-451.39"/>
<polygon fill="blue" stroke="black" points="675.89,-454.69 683.96,-447.82 673.37,-448.17 675.89,-454.69"/>
</g>
<!-- PIL&#45;&gt;matplotlib -->
<g id="edge31" class="edge">
<title>PIL&#45;&gt;matplotlib</title><style>.edge>path:hover{stroke-width:8}</style>
<path fill="none" stroke="black" d="M778.32,-298.55C800.82,-325.64 839.74,-380.34 839.74,-434.61 839.74,-523.7 839.74,-523.7 839.74,-523.7 839.74,-587.33 788.32,-646.74 754.55,-678.9"/>
<polygon fill="#e64f19" stroke="black" points="752.45,-676.07 747.5,-685.44 757.21,-681.2 752.45,-676.07"/>
</g>
<!-- pint&#45;&gt;readers_gnss_specs_bands -->
<g id="edge32" class="edge">
<title>pint&#45;&gt;readers_gnss_specs_bands</title><style>.edge>path:hover{stroke-width:8}</style>
<path fill="none" stroke="black" d="M417.74,-351.09C397.81,-327.2 399.39,-306.21 417.74,-281.09"/>
</g>
<!-- readers_gnss_specs_constants -->
<g id="node21" class="node">
<title>readers_gnss_specs_constants</title><style>.edge>path:hover{stroke-width:8}</style>
<ellipse fill="#794cb3" stroke="black" cx="238.74" cy="-435.61" rx="50.56" ry="29.52"/>
<text xml:space="preserve" text-anchor="middle" x="238.74" y="-442.98" font-family="Helvetica,sans-Serif" font-size="10.00" fill="#ffffff">readers.</text>
<text xml:space="preserve" text-anchor="middle" x="238.74" y="-431.73" font-family="Helvetica,sans-Serif" font-size="10.00" fill="#ffffff">gnss_specs.</text>
<text xml:space="preserve" text-anchor="middle" x="238.74" y="-420.48" font-family="Helvetica,sans-Serif" font-size="10.00" fill="#ffffff">constants</text>
</g>
<!-- pint&#45;&gt;readers_gnss_specs_constants -->
<g id="edge33" class="edge">
<title>pint&#45;&gt;readers_gnss_specs_constants</title><style>.edge>path:hover{stroke-width:8}</style>
<path fill="none" stroke="black" d="M422.74,-521.7C435.46,-462.47 353.65,-490.7 298.74,-465.13 295.18,-463.47 291.51,-461.75 287.82,-460.01"/>
<polygon fill="blue" stroke="black" points="289.34,-456.86 278.8,-455.76 286.35,-463.19 289.34,-456.86"/>
<path fill="none" stroke="black" d="M258.05,-691.4C306.56,-667.31 404.42,-609.05 422.74,-523.7"/>
</g>
<!-- readers_gnss_specs_constants_CLEANED -->
<g id="node22" class="node">
<title>readers_gnss_specs_constants_CLEANED</title><style>.edge>path:hover{stroke-width:8}</style>
<ellipse fill="#794cb3" stroke="black" cx="386.74" cy="-435.61" rx="79.2" ry="29.52"/>
<text xml:space="preserve" text-anchor="middle" x="386.74" y="-442.98" font-family="Helvetica,sans-Serif" font-size="10.00" fill="#ffffff">readers.</text>
<text xml:space="preserve" text-anchor="middle" x="386.74" y="-431.73" font-family="Helvetica,sans-Serif" font-size="10.00" fill="#ffffff">gnss_specs.</text>
<text xml:space="preserve" text-anchor="middle" x="386.74" y="-420.48" font-family="Helvetica,sans-Serif" font-size="10.00" fill="#ffffff">constants_CLEANED</text>
</g>
<!-- pint&#45;&gt;readers_gnss_specs_constants_CLEANED -->
<g id="edge34" class="edge">
<title>pint&#45;&gt;readers_gnss_specs_constants_CLEANED</title><style>.edge>path:hover{stroke-width:8}</style>
<path fill="none" stroke="black" d="M422.74,-521.7C427.25,-505.64 422.16,-488.58 414.52,-473.99"/>
<polygon fill="blue" stroke="black" points="417.71,-472.53 409.67,-465.64 411.66,-476.04 417.71,-472.53"/>
</g>
<!-- pint&#45;&gt;readers_gnss_specs_constellations -->
<g id="edge35" class="edge">
<title>pint&#45;&gt;readers_gnss_specs_constellations</title><style>.edge>path:hover{stroke-width:8}</style>
<path fill="none" stroke="black" d="M422.74,-521.7C426.54,-508.17 435.04,-508.9 446.74,-501.13 470.73,-485.2 499.19,-470.57 523.27,-459.27"/>
<polygon fill="blue" stroke="black" points="524.66,-462.49 532.27,-455.12 521.73,-456.13 524.66,-462.49"/>
</g>
<!-- pint&#45;&gt;readers_gnss_specs_models -->
<g id="edge36" class="edge">
<title>pint&#45;&gt;readers_gnss_specs_models</title><style>.edge>path:hover{stroke-width:8}</style>
<path fill="none" stroke="black" d="M493.74,-434.61C502.49,-366.94 435.21,-316.16 493.74,-281.09"/>
</g>
<!-- pint&#45;&gt;readers_rinex_v3_04 -->
<g id="edge37" class="edge">
<title>pint&#45;&gt;readers_rinex_v3_04</title><style>.edge>path:hover{stroke-width:8}</style>
<path fill="none" stroke="black" d="M417.74,-351.09C387.76,-315.15 354.4,-335.84 326.74,-298.09 299.87,-261.41 307.74,-243.03 307.74,-197.57"/>
<path fill="none" stroke="black" d="M422.74,-521.7C436.06,-474.28 489.31,-485.66 493.74,-436.61"/>
<path fill="none" stroke="black" d="M493.74,-434.61C495.11,-419.44 484.91,-417.43 474.74,-406.09 458.11,-387.53 449.29,-387.78 431.74,-370.09 424.85,-363.14 423.84,-360.75 417.74,-353.09"/>
</g>
<!-- pydantic -->
<g id="node15" class="node">
<title>pydantic</title><style>.edge>path:hover{stroke-width:8}</style>
<polygon fill="blue" stroke="black" points="970.74,-453.61 967.74,-457.61 946.74,-457.61 943.74,-453.61 916.74,-453.61 916.74,-417.61 970.74,-417.61 970.74,-453.61"/>
<text xml:space="preserve" text-anchor="middle" x="943.74" y="-431.73" font-family="Helvetica,sans-Serif" font-size="10.00" fill="white">pydantic</text>
</g>
<!-- readers_base -->
<g id="node19" class="node">
<title>readers_base</title><style>.edge>path:hover{stroke-width:8}</style>
<ellipse fill="#7449ac" stroke="black" cx="888.74" cy="-280.09" rx="42.75" ry="18"/>
<text xml:space="preserve" text-anchor="middle" x="888.74" y="-276.21" font-family="Helvetica,sans-Serif" font-size="10.00" fill="#ffffff">readers.base</text>
</g>
<!-- pydantic&#45;&gt;readers_base -->
<g id="edge38" class="edge">
<title>pydantic&#45;&gt;readers_base</title><style>.edge>path:hover{stroke-width:8}</style>
<path fill="none" stroke="black" d="M959.74,-351.09C956.89,-330.01 940.42,-313.04 924.06,-301.09"/>
<polygon fill="blue" stroke="black" points="926.04,-298.2 915.79,-295.49 922.11,-303.99 926.04,-298.2"/>
<path fill="none" stroke="black" d="M950.54,-417.22C956.16,-400.78 962.76,-375.38 959.74,-353.09"/>
</g>
<!-- pydantic&#45;&gt;readers_gnss_specs_bands -->
<g id="edge39" class="edge">
<title>pydantic&#45;&gt;readers_gnss_specs_bands</title><style>.edge>path:hover{stroke-width:8}</style>
<path fill="none" stroke="black" d="M959.74,-279.09C900.25,-187.16 854.07,-251.04 684.74,-226.09 642.97,-219.93 595.94,-212.67 559.75,-207.02"/>
<polygon fill="blue" stroke="black" points="560.32,-203.57 549.9,-205.48 559.24,-210.49 560.32,-203.57"/>
<path fill="none" stroke="black" d="M959.74,-351.09C955.57,-320.26 976.64,-307.21 959.74,-281.09"/>
</g>
<!-- pydantic&#45;&gt;readers_gnss_specs_models -->
<g id="edge40" class="edge">
<title>pydantic&#45;&gt;readers_gnss_specs_models</title><style>.edge>path:hover{stroke-width:8}</style>
<path fill="none" stroke="black" d="M959.74,-279.09C953.59,-269.57 950.55,-267.76 940.74,-262.09 928.19,-254.83 853.17,-230.96 799.68,-214.38"/>
<polygon fill="blue" stroke="black" points="800.99,-211.13 790.41,-211.52 798.93,-217.81 800.99,-211.13"/>
</g>
<!-- pydantic&#45;&gt;readers_rinex_v3_04 -->
<g id="edge41" class="edge">
<title>pydantic&#45;&gt;readers_rinex_v3_04</title><style>.edge>path:hover{stroke-width:8}</style>
<path fill="none" stroke="black" d="M959.74,-279.09C915.06,-210.05 995.74,-156.18 940.74,-95.04 906.96,-57.49 760.28,-40.4 683.3,-33.89"/>
<polygon fill="blue" stroke="black" points="683.79,-30.42 673.53,-33.1 683.22,-37.4 683.79,-30.42"/>
</g>
<!-- readers_utils_date_utils -->
<g id="node33" class="node">
<title>readers_utils_date_utils</title><style>.edge>path:hover{stroke-width:8}</style>
<ellipse fill="#723db8" stroke="black" cx="890.74" cy="-196.57" rx="41.01" ry="29.52"/>
<text xml:space="preserve" text-anchor="middle" x="890.74" y="-203.94" font-family="Helvetica,sans-Serif" font-size="10.00" fill="#ffffff">readers.</text>
<text xml:space="preserve" text-anchor="middle" x="890.74" y="-192.69" font-family="Helvetica,sans-Serif" font-size="10.00" fill="#ffffff">utils.</text>
<text xml:space="preserve" text-anchor="middle" x="890.74" y="-181.44" font-family="Helvetica,sans-Serif" font-size="10.00" fill="#ffffff">date_utils</text>
</g>
<!-- pydantic&#45;&gt;readers_utils_date_utils -->
<g id="edge42" class="edge">
<title>pydantic&#45;&gt;readers_utils_date_utils</title><style>.edge>path:hover{stroke-width:8}</style>
<path fill="none" stroke="black" d="M959.74,-279.09C948.56,-261.81 934.11,-244.2 921.32,-229.78"/>
<polygon fill="blue" stroke="black" points="923.93,-227.45 914.63,-222.37 918.74,-232.14 923.93,-227.45"/>
</g>
<!-- pydantic_core -->
<g id="node16" class="node">
<title>pydantic_core</title><style>.edge>path:hover{stroke-width:8}</style>
<polygon fill="blue" stroke="black" points="944.12,-627.79 941.12,-631.79 920.12,-631.79 917.12,-627.79 867.37,-627.79 867.37,-591.79 944.12,-591.79 944.12,-627.79"/>
<text xml:space="preserve" text-anchor="middle" x="905.74" y="-605.91" font-family="Helvetica,sans-Serif" font-size="10.00" fill="white">pydantic_core</text>
</g>
<!-- pydantic_core&#45;&gt;pydantic -->
<g id="edge43" class="edge">
<title>pydantic_core&#45;&gt;pydantic</title><style>.edge>path:hover{stroke-width:8}</style>
<path fill="none" stroke="black" d="M877.74,-521.7C878.35,-497.82 894.78,-476.59 911.1,-461.31"/>
<polygon fill="blue" stroke="black" points="913.21,-464.11 918.4,-454.87 908.58,-458.86 913.21,-464.11"/>
</g>
<!-- pydantic_core&#45;&gt;readers_gnss_specs_models -->
<g id="edge44" class="edge">
<title>pydantic_core&#45;&gt;readers_gnss_specs_models</title><style>.edge>path:hover{stroke-width:8}</style>
<path fill="none" stroke="black" d="M877.74,-521.7C880.82,-401.13 861.35,-365.17 798.74,-262.09 792.36,-251.59 784.35,-241.02 776.46,-231.56"/>
<polygon fill="blue" stroke="black" points="779.15,-229.33 769.97,-224.03 773.84,-233.89 779.15,-229.33"/>
<path fill="none" stroke="black" d="M896.26,-591.41C888.01,-574.58 877.4,-548.11 877.74,-523.7"/>
</g>
<!-- pytz -->
<g id="node17" class="node">
<title>pytz</title><style>.edge>path:hover{stroke-width:8}</style>
<polygon fill="blue" stroke="black" points="389.74,-298.09 386.74,-302.09 365.74,-302.09 362.74,-298.09 335.74,-298.09 335.74,-262.09 389.74,-262.09 389.74,-298.09"/>
<text xml:space="preserve" text-anchor="middle" x="362.74" y="-276.21" font-family="Helvetica,sans-Serif" font-size="10.00" fill="white">pytz</text>
</g>
<!-- pytz&#45;&gt;readers_rinex_v3_04 -->
<g id="edge45" class="edge">
<title>pytz&#45;&gt;readers_rinex_v3_04</title><style>.edge>path:hover{stroke-width:8}</style>
<path fill="none" stroke="black" d="M341.95,-261.6C326.37,-246.45 307.74,-223 307.74,-197.57"/>
</g>
<!-- readers_gnss_specs_utils -->
<g id="node27" class="node">
<title>readers_gnss_specs_utils</title><style>.edge>path:hover{stroke-width:8}</style>
<ellipse fill="#794cb3" stroke="black" cx="1050.74" cy="-871.87" rx="50.56" ry="29.52"/>
<text xml:space="preserve" text-anchor="middle" x="1050.74" y="-879.25" font-family="Helvetica,sans-Serif" font-size="10.00" fill="#ffffff">readers.</text>
<text xml:space="preserve" text-anchor="middle" x="1050.74" y="-868" font-family="Helvetica,sans-Serif" font-size="10.00" fill="#ffffff">gnss_specs.</text>
<text xml:space="preserve" text-anchor="middle" x="1050.74" y="-856.75" font-family="Helvetica,sans-Serif" font-size="10.00" fill="#ffffff">utils</text>
</g>
<!-- readers_matching -->
<g id="node28" class="node">
<title>readers_matching</title><style>.edge>path:hover{stroke-width:8}</style>
<ellipse fill="#7449ac" stroke="black" cx="588.74" cy="-522.7" rx="39.42" ry="21.57"/>
<text xml:space="preserve" text-anchor="middle" x="588.74" y="-524.45" font-family="Helvetica,sans-Serif" font-size="10.00" fill="#ffffff">readers.</text>
<text xml:space="preserve" text-anchor="middle" x="588.74" y="-513.2" font-family="Helvetica,sans-Serif" font-size="10.00" fill="#ffffff">matching</text>
</g>
<!-- readers_matching_dir_matcher&#45;&gt;readers_matching -->
<g id="edge46" class="edge">
<title>readers_matching_dir_matcher&#45;&gt;readers_matching</title><style>.edge>path:hover{stroke-width:8}</style>
<path fill="none" stroke="black" d="M578.82,-579.98C580.2,-572.14 581.71,-563.6 583.12,-555.6"/>
<polygon fill="#723db8" stroke="black" points="586.54,-556.36 584.83,-545.9 579.64,-555.14 586.54,-556.36"/>
</g>
<!-- readers_matching_models -->
<g id="node30" class="node">
<title>readers_matching_models</title><style>.edge>path:hover{stroke-width:8}</style>
<ellipse fill="#7b3bce" stroke="black" cx="598.74" cy="-704.83" rx="41.54" ry="29.52"/>
<text xml:space="preserve" text-anchor="middle" x="598.74" y="-712.2" font-family="Helvetica,sans-Serif" font-size="10.00" fill="#ffffff">readers.</text>
<text xml:space="preserve" text-anchor="middle" x="598.74" y="-700.95" font-family="Helvetica,sans-Serif" font-size="10.00" fill="#ffffff">matching.</text>
<text xml:space="preserve" text-anchor="middle" x="598.74" y="-689.7" font-family="Helvetica,sans-Serif" font-size="10.00" fill="#ffffff">models</text>
</g>
<!-- readers_matching_models&#45;&gt;readers_matching -->
<g id="edge47" class="edge">
<title>readers_matching_models&#45;&gt;readers_matching</title><style>.edge>path:hover{stroke-width:8}</style>
<path fill="none" stroke="black" d="M614.86,-677.19C620.78,-665.92 626.76,-652.39 629.74,-639.31 635.57,-613.72 637.84,-605.23 629.74,-580.26 626.36,-569.84 620.26,-559.73 613.78,-551.01"/>
<polygon fill="#7b3bce" stroke="black" points="616.63,-548.97 607.66,-543.33 611.16,-553.33 616.63,-548.97"/>
</g>
<!-- readers_matching_models&#45;&gt;readers_matching_dir_matcher -->
<g id="edge48" class="edge">
<title>readers_matching_models&#45;&gt;readers_matching_dir_matcher</title><style>.edge>path:hover{stroke-width:8}</style>
<path fill="none" stroke="black" d="M591.1,-675.41C588.97,-667.46 586.61,-658.67 584.33,-650.2"/>
<polygon fill="#7b3bce" stroke="black" points="587.79,-649.56 581.81,-640.82 581.03,-651.38 587.79,-649.56"/>
</g>
<!-- readers_utils -->
<g id="node32" class="node">
<title>readers_utils</title><style>.edge>path:hover{stroke-width:8}</style>
<ellipse fill="#794cb3" stroke="black" cx="890.74" cy="-113.04" rx="40.97" ry="18"/>
<text xml:space="preserve" text-anchor="middle" x="890.74" y="-109.17" font-family="Helvetica,sans-Serif" font-size="10.00" fill="#ffffff">readers.utils</text>
</g>
<!-- readers_utils_date_utils&#45;&gt;readers_utils -->
<g id="edge49" class="edge">
<title>readers_utils_date_utils&#45;&gt;readers_utils</title><style>.edge>path:hover{stroke-width:8}</style>
<path fill="none" stroke="black" d="M890.74,-166.59C890.74,-158.91 890.74,-150.6 890.74,-142.92"/>
<polygon fill="#723db8" stroke="black" points="894.24,-143.05 890.74,-133.05 887.24,-143.05 894.24,-143.05"/>
</g>
<!-- requests&#45;&gt;readers_gnss_specs_constellations -->
<g id="edge50" class="edge">
<title>requests&#45;&gt;readers_gnss_specs_constellations</title><style>.edge>path:hover{stroke-width:8}</style>
<path fill="none" stroke="black" d="M391.27,-686.37C403.63,-653.82 431.81,-581.9 460.74,-523.7"/>
<path fill="none" stroke="black" d="M460.74,-521.7C474.15,-494.84 500.53,-474.38 524.64,-460.26"/>
<polygon fill="blue" stroke="black" points="526.1,-463.46 533.12,-455.52 522.68,-457.35 526.1,-463.46"/>
</g>
<!-- tomli -->
<g id="node35" class="node">
<title>tomli</title><style>.edge>path:hover{stroke-width:8}</style>
<polygon fill="#b153b6" stroke="black" points="1077.74,-1082.39 1074.74,-1086.39 1053.74,-1086.39 1050.74,-1082.39 1023.74,-1082.39 1023.74,-1046.39 1077.74,-1046.39 1077.74,-1082.39"/>
<text xml:space="preserve" text-anchor="middle" x="1050.74" y="-1060.52" font-family="Helvetica,sans-Serif" font-size="10.00" fill="#ffffff">tomli</text>
</g>
<!-- tomli&#45;&gt;readers_gnss_specs_utils -->
<g id="edge51" class="edge">
<title>tomli&#45;&gt;readers_gnss_specs_utils</title><style>.edge>path:hover{stroke-width:8}</style>
<path fill="none" stroke="black" d="M1050.74,-1046.15C1050.74,-1016.24 1050.74,-954 1050.74,-912.84"/>
<polygon fill="#b153b6" stroke="black" points="1054.24,-913.08 1050.74,-903.08 1047.24,-913.08 1054.24,-913.08"/>
</g>
<!-- typing_extensions -->
<g id="node36" class="node">
<title>typing_extensions</title><style>.edge>path:hover{stroke-width:8}</style>
<polygon fill="#f910c7" stroke="black" points="1019.12,-1010.39 1016.12,-1014.39 995.12,-1014.39 992.12,-1010.39 924.37,-1010.39 924.37,-974.39 1019.12,-974.39 1019.12,-1010.39"/>
<text xml:space="preserve" text-anchor="middle" x="971.74" y="-988.52" font-family="Helvetica,sans-Serif" font-size="10.00" fill="#ffffff">typing_extensions</text>
</g>
<!-- typing_extensions&#45;&gt;matplotlib -->
<g id="edge52" class="edge">
<title>typing_extensions&#45;&gt;matplotlib</title><style>.edge>path:hover{stroke-width:8}</style>
<path fill="none" stroke="black" d="M971.74,-937.39C936.19,-882.03 1002.54,-847.49 971.74,-789.35"/>
<path fill="none" stroke="black" d="M971.74,-787.35C952.74,-749.87 830.51,-723.69 765.8,-712.27"/>
<polygon fill="#f910c7" stroke="black" points="766.74,-708.88 756.29,-710.63 765.55,-715.77 766.74,-708.88"/>
</g>
<!-- typing_extensions&#45;&gt;natsort -->
<g id="edge53" class="edge">
<title>typing_extensions&#45;&gt;natsort</title><style>.edge>path:hover{stroke-width:8}</style>
<path fill="none" stroke="black" d="M971.74,-937.39C935.34,-880.71 736.12,-917.63 670.74,-901.39 658.69,-898.4 645.95,-893.98 634.5,-889.5"/>
<polygon fill="#f910c7" stroke="black" points="635.96,-886.32 625.38,-885.81 633.33,-892.81 635.96,-886.32"/>
<path fill="none" stroke="black" d="M976.2,-974.32C978.08,-963.22 978.5,-948.92 971.74,-938.39"/>
</g>
<!-- typing_extensions&#45;&gt;packaging -->
<g id="edge54" class="edge">
<title>typing_extensions&#45;&gt;packaging</title><style>.edge>path:hover{stroke-width:8}</style>
<path fill="none" stroke="black" d="M971.74,-937.39C962.79,-923.46 950.83,-909.59 940.09,-898.3"/>
<polygon fill="#f910c7" stroke="black" points="942.74,-896 933.25,-891.3 937.73,-900.89 942.74,-896"/>
</g>
<!-- typing_extensions&#45;&gt;pydantic -->
<g id="edge55" class="edge">
<title>typing_extensions&#45;&gt;pydantic</title><style>.edge>path:hover{stroke-width:8}</style>
<path fill="none" stroke="black" d="M971.74,-703.83C957.19,-617.54 948.93,-514.21 945.55,-465.16"/>
<polygon fill="#f910c7" stroke="black" points="949.06,-465.16 944.9,-455.41 942.08,-465.63 949.06,-465.16"/>
</g>
<!-- typing_extensions&#45;&gt;pydantic_core -->
<g id="edge56" class="edge">
<title>typing_extensions&#45;&gt;pydantic_core</title><style>.edge>path:hover{stroke-width:8}</style>
<path fill="none" stroke="black" d="M971.74,-703.83C967.3,-677.48 949.2,-653.06 933.09,-635.86"/>
<polygon fill="#f910c7" stroke="black" points="935.96,-633.79 926.46,-629.09 930.96,-638.68 935.96,-633.79"/>
<path fill="none" stroke="black" d="M971.74,-787.35C955.36,-755.04 977.77,-741.56 971.74,-705.83"/>
</g>
<!-- urllib3&#45;&gt;requests -->
<g id="edge57" class="edge">
<title>urllib3&#45;&gt;requests</title><style>.edge>path:hover{stroke-width:8}</style>
<path fill="none" stroke="black" d="M369.53,-853.52C372.45,-825.17 378.27,-768.63 381.81,-734.32"/>
<polygon fill="#df0b7a" stroke="black" points="385.25,-735.01 382.8,-724.7 378.29,-734.29 385.25,-735.01"/>
</g>
<!-- xarray&#45;&gt;georinex -->
<g id="edge58" class="edge">
<title>xarray&#45;&gt;georinex</title><style>.edge>path:hover{stroke-width:8}</style>
<path fill="none" stroke="black" d="M685.41,-423.83C671.48,-418.39 654.25,-411.77 638.74,-406.09 547.28,-372.57 524.47,-363.92 431.74,-334.09 383.37,-318.52 327.11,-302.14 290.77,-291.79"/>
<polygon fill="blue" stroke="black" points="292.19,-288.55 281.61,-289.19 290.28,-295.29 292.19,-288.55"/>
</g>
<!-- xarray&#45;&gt;readers_base -->
<g id="edge59" class="edge">
<title>xarray&#45;&gt;readers_base</title><style>.edge>path:hover{stroke-width:8}</style>
<path fill="none" stroke="black" d="M732.59,-417.3C764.41,-389.54 826.88,-335.05 862.4,-304.06"/>
<polygon fill="blue" stroke="black" points="864.44,-306.93 869.67,-297.72 859.84,-301.65 864.44,-306.93"/>
</g>
<!-- xarray&#45;&gt;readers_gnss_specs_models -->
<g id="edge60" class="edge">
<title>xarray&#45;&gt;readers_gnss_specs_models</title><style>.edge>path:hover{stroke-width:8}</style>
<path fill="none" stroke="black" d="M707.74,-279.09C703.72,-263.46 709.05,-247.1 716.8,-233.18"/>
<polygon fill="blue" stroke="black" points="719.7,-235.15 721.98,-224.8 713.74,-231.47 719.7,-235.15"/>
</g>
<!-- xarray&#45;&gt;readers_rinex_v3_04 -->
<g id="edge61" class="edge">
<title>xarray&#45;&gt;readers_rinex_v3_04</title><style>.edge>path:hover{stroke-width:8}</style>
<path fill="none" stroke="black" d="M707.74,-279.09C687.19,-199.19 634.81,-201.26 559.74,-167.04 455.6,-119.58 215.74,-182.12 307.74,-114.04"/>
<path fill="none" stroke="black" d="M713.49,-417.45C714.43,-388.95 715.14,-330.13 707.74,-281.09"/>
</g>
</g>
</svg>
