<?xml version="1.0" encoding="UTF-8" standalone="no"?>
<!DOCTYPE svg PUBLIC "-//W3C//DTD SVG 1.1//EN"
 "http://www.w3.org/Graphics/SVG/1.1/DTD/svg11.dtd">
<!-- Generated by graphviz version 14.1.1 (20251213.1925)
 -->
<!-- Title: G Pages: 1 -->
<svg width="289pt" height="336pt"
 viewBox="0.00 0.00 289.00 336.00" xmlns="http://www.w3.org/2000/svg" xmlns:xlink="http://www.w3.org/1999/xlink">
<g id="graph0" class="graph" transform="scale(1 1) rotate(0) translate(4 332)">
<title>G</title><style>.edge>path:hover{stroke-width:8}</style>
<polygon fill="white" stroke="none" points="-4,4 -4,-332 285.38,-332 285.38,4 -4,4"/>
<!-- canvod -->
<g id="node1" class="node">
<title>canvod</title><style>.edge>path:hover{stroke-width:8}</style>
<polygon fill="#b34c4c" stroke="black" points="209.38,-36 206.38,-40 185.38,-40 182.38,-36 155.38,-36 155.38,0 209.38,0 209.38,-36"/>
<text xml:space="preserve" text-anchor="middle" x="182.38" y="-14.12" font-family="Helvetica,sans-Serif" font-size="10.00" fill="#ffffff">canvod</text>
</g>
<!-- click -->
<g id="node2" class="node">
<title>click</title><style>.edge>path:hover{stroke-width:8}</style>
<polygon fill="#c8b023" stroke="black" points="209.38,-328 206.38,-332 185.38,-332 182.38,-328 155.38,-328 155.38,-292 209.38,-292 209.38,-328"/>
<text xml:space="preserve" text-anchor="middle" x="182.38" y="-306.12" font-family="Helvetica,sans-Serif" font-size="10.00" fill="#000000">click</text>
</g>
<!-- typer -->
<g id="node6" class="node">
<title>typer</title><style>.edge>path:hover{stroke-width:8}</style>
<polygon fill="blue" stroke="black" points="209.38,-219 206.38,-223 185.38,-223 182.38,-219 155.38,-219 155.38,-183 209.38,-183 209.38,-219"/>
<text xml:space="preserve" text-anchor="middle" x="182.38" y="-197.12" font-family="Helvetica,sans-Serif" font-size="10.00" fill="white">typer</text>
</g>
<!-- click&#45;&gt;typer -->
<g id="edge1" class="edge">
<title>click&#45;&gt;typer</title><style>.edge>path:hover{stroke-width:8}</style>
<path fill="none" stroke="black" d="M182.38,-291.81C182.38,-275.27 182.38,-249.98 182.38,-230.44"/>
<polygon fill="#c8b023" stroke="black" points="185.88,-230.66 182.38,-220.66 178.88,-230.66 185.88,-230.66"/>
</g>
<!-- pydantic -->
<g id="node3" class="node">
<title>pydantic</title><style>.edge>path:hover{stroke-width:8}</style>
<polygon fill="blue" stroke="black" points="65.38,-219 62.38,-223 41.38,-223 38.38,-219 11.38,-219 11.38,-183 65.38,-183 65.38,-219"/>
<text xml:space="preserve" text-anchor="middle" x="38.38" y="-197.12" font-family="Helvetica,sans-Serif" font-size="10.00" fill="white">pydantic</text>
</g>
<!-- pydantic&#45;&gt;canvod -->
<g id="edge2" class="edge">
<title>pydantic&#45;&gt;canvod</title><style>.edge>path:hover{stroke-width:8}</style>
<path fill="none" stroke="black" d="M65.74,-186.66C68.64,-185.38 71.55,-184.13 74.38,-183 121.33,-164.16 167.82,-195.46 182.38,-147"/>
<path fill="none" stroke="black" d="M182.38,-146C192.18,-113.37 190.15,-73.86 187,-47.66"/>
<polygon fill="blue" stroke="black" points="190.47,-47.24 185.66,-37.8 183.53,-48.18 190.47,-47.24"/>
</g>
<!-- pydantic_core -->
<g id="node4" class="node">
<title>pydantic_core</title><style>.edge>path:hover{stroke-width:8}</style>
<polygon fill="blue" stroke="black" points="76.75,-328 73.75,-332 52.75,-332 49.75,-328 0,-328 0,-292 76.75,-292 76.75,-328"/>
<text xml:space="preserve" text-anchor="middle" x="38.38" y="-306.12" font-family="Helvetica,sans-Serif" font-size="10.00" fill="white">pydantic_core</text>
</g>
<!-- pydantic_core&#45;&gt;pydantic -->
<g id="edge3" class="edge">
<title>pydantic_core&#45;&gt;pydantic</title><style>.edge>path:hover{stroke-width:8}</style>
<path fill="none" stroke="black" d="M38.38,-291.81C38.38,-275.27 38.38,-249.98 38.38,-230.44"/>
<polygon fill="blue" stroke="black" points="41.88,-230.66 38.38,-220.66 34.88,-230.66 41.88,-230.66"/>
</g>
<!-- rich -->
<g id="node5" class="node">
<title>rich</title><style>.edge>path:hover{stroke-width:8}</style>
<polygon fill="blue" stroke="black" points="137.38,-219 134.38,-223 113.38,-223 110.38,-219 83.38,-219 83.38,-183 137.38,-183 137.38,-219"/>
<text xml:space="preserve" text-anchor="middle" x="110.38" y="-197.12" font-family="Helvetica,sans-Serif" font-size="10.00" fill="white">rich</text>
</g>
<!-- rich&#45;&gt;canvod -->
<g id="edge4" class="edge">
<title>rich&#45;&gt;canvod</title><style>.edge>path:hover{stroke-width:8}</style>
<path fill="none" stroke="black" d="M137.81,-184.59C156.78,-173.13 179.16,-157.7 182.38,-147"/>
</g>
<!-- typer&#45;&gt;canvod -->
<g id="edge5" class="edge">
<title>typer&#45;&gt;canvod</title><style>.edge>path:hover{stroke-width:8}</style>
<path fill="none" stroke="black" d="M179.92,-182.93C178.99,-172.36 178.88,-158.63 182.38,-147"/>
</g>
<!-- yaml -->
<g id="node7" class="node">
<title>yaml</title><style>.edge>path:hover{stroke-width:8}</style>
<polygon fill="blue" stroke="black" points="281.38,-219 278.38,-223 257.38,-223 254.38,-219 227.38,-219 227.38,-183 281.38,-183 281.38,-219"/>
<text xml:space="preserve" text-anchor="middle" x="254.38" y="-197.12" font-family="Helvetica,sans-Serif" font-size="10.00" fill="white">yaml</text>
</g>
<!-- yaml&#45;&gt;canvod -->
<g id="edge6" class="edge">
<title>yaml&#45;&gt;canvod</title><style>.edge>path:hover{stroke-width:8}</style>
<path fill="none" stroke="black" d="M227.13,-186.69C205.34,-175.08 178.96,-158.37 182.38,-147"/>
</g>
</g>
</svg>
