<?xml version="1.0" encoding="UTF-8" standalone="no"?>
<!DOCTYPE svg PUBLIC "-//W3C//DTD SVG 1.1//EN"
 "http://www.w3.org/Graphics/SVG/1.1/DTD/svg11.dtd">
<!-- Generated by graphviz version 14.1.1 (20251213.1925)
 -->
<!-- Title: G Pages: 1 -->
<svg width="2043pt" height="858pt"
 viewBox="0.00 0.00 2043.00 858.00" xmlns="http://www.w3.org/2000/svg" xmlns:xlink="http://www.w3.org/1999/xlink">
<g id="graph0" class="graph" transform="scale(1 1) rotate(0) translate(4 854.17)">
<title>G</title><style>.edge>path:hover{stroke-width:8}</style>
<polygon fill="white" stroke="none" points="-4,4 -4,-854.17 2038.71,-854.17 2038.71,4 -4,4"/>
<!-- aux -->
<g id="node1" class="node">
<title>aux</title><style>.edge>path:hover{stroke-width:8}</style>
<ellipse fill="#b34c4c" stroke="black" cx="476.31" cy="-280.09" rx="27" ry="18"/>
<text xml:space="preserve" text-anchor="middle" x="476.31" y="-276.21" font-family="Helvetica,sans-Serif" font-size="10.00" fill="#ffffff">aux</text>
</g>
<!-- aux__internal -->
<g id="node2" class="node">
<title>aux__internal</title><style>.edge>path:hover{stroke-width:8}</style>
<ellipse fill="#b34c4c" stroke="black" cx="42.31" cy="-196.57" rx="42.31" ry="18"/>
<text xml:space="preserve" text-anchor="middle" x="42.31" y="-192.69" font-family="Helvetica,sans-Serif" font-size="10.00" fill="#ffffff">aux._internal</text>
</g>
<!-- aux__internal_date_utils -->
<g id="node3" class="node">
<title>aux__internal_date_utils</title><style>.edge>path:hover{stroke-width:8}</style>
<ellipse fill="#ac4949" stroke="black" cx="1817.31" cy="-101.52" rx="41.01" ry="29.52"/>
<text xml:space="preserve" text-anchor="middle" x="1817.31" y="-108.9" font-family="Helvetica,sans-Serif" font-size="10.00" fill="#ffffff">aux.</text>
<text xml:space="preserve" text-anchor="middle" x="1817.31" y="-97.65" font-family="Helvetica,sans-Serif" font-size="10.00" fill="#ffffff">_internal.</text>
<text xml:space="preserve" text-anchor="middle" x="1817.31" y="-86.4" font-family="Helvetica,sans-Serif" font-size="10.00" fill="#ffffff">date_utils</text>
</g>
<!-- aux__internal_units -->
<g id="node4" class="node">
<title>aux__internal_units</title><style>.edge>path:hover{stroke-width:8}</style>
<ellipse fill="#b34c4c" stroke="black" cx="1528.31" cy="-363.61" rx="39.42" ry="29.52"/>
<text xml:space="preserve" text-anchor="middle" x="1528.31" y="-370.98" font-family="Helvetica,sans-Serif" font-size="10.00" fill="#ffffff">aux.</text>
<text xml:space="preserve" text-anchor="middle" x="1528.31" y="-359.73" font-family="Helvetica,sans-Serif" font-size="10.00" fill="#ffffff">_internal.</text>
<text xml:space="preserve" text-anchor="middle" x="1528.31" y="-348.48" font-family="Helvetica,sans-Serif" font-size="10.00" fill="#ffffff">units</text>
</g>
<!-- aux_augmentation -->
<g id="node5" class="node">
<title>aux_augmentation</title><style>.edge>path:hover{stroke-width:8}</style>
<ellipse fill="#a44646" stroke="black" cx="612.31" cy="-196.57" rx="52.68" ry="21.57"/>
<text xml:space="preserve" text-anchor="middle" x="612.31" y="-198.32" font-family="Helvetica,sans-Serif" font-size="10.00" fill="#ffffff">aux.</text>
<text xml:space="preserve" text-anchor="middle" x="612.31" y="-187.07" font-family="Helvetica,sans-Serif" font-size="10.00" fill="#ffffff">augmentation</text>
</g>
<!-- aux_clock -->
<g id="node6" class="node">
<title>aux_clock</title><style>.edge>path:hover{stroke-width:8}</style>
<ellipse fill="#b34c4c" stroke="black" cx="137.31" cy="-196.57" rx="34.32" ry="18"/>
<text xml:space="preserve" text-anchor="middle" x="137.31" y="-192.69" font-family="Helvetica,sans-Serif" font-size="10.00" fill="#ffffff">aux.clock</text>
</g>
<!-- aux_clock_parser -->
<g id="node7" class="node">
<title>aux_clock_parser</title><style>.edge>path:hover{stroke-width:8}</style>
<ellipse fill="#b34c4c" stroke="black" cx="1348.31" cy="-674.65" rx="30.41" ry="29.52"/>
<text xml:space="preserve" text-anchor="middle" x="1348.31" y="-682.03" font-family="Helvetica,sans-Serif" font-size="10.00" fill="#ffffff">aux.</text>
<text xml:space="preserve" text-anchor="middle" x="1348.31" y="-670.78" font-family="Helvetica,sans-Serif" font-size="10.00" fill="#ffffff">clock.</text>
<text xml:space="preserve" text-anchor="middle" x="1348.31" y="-659.53" font-family="Helvetica,sans-Serif" font-size="10.00" fill="#ffffff">parser</text>
</g>
<!-- aux_clock_reader -->
<g id="node8" class="node">
<title>aux_clock_reader</title><style>.edge>path:hover{stroke-width:8}</style>
<ellipse fill="#9d4343" stroke="black" cx="2004.31" cy="-101.52" rx="30.41" ry="29.52"/>
<text xml:space="preserve" text-anchor="middle" x="2004.31" y="-108.9" font-family="Helvetica,sans-Serif" font-size="10.00" fill="#ffffff">aux.</text>
<text xml:space="preserve" text-anchor="middle" x="2004.31" y="-97.65" font-family="Helvetica,sans-Serif" font-size="10.00" fill="#ffffff">clock.</text>
<text xml:space="preserve" text-anchor="middle" x="2004.31" y="-86.4" font-family="Helvetica,sans-Serif" font-size="10.00" fill="#ffffff">reader</text>
</g>
<!-- aux_clock_validator -->
<g id="node9" class="node">
<title>aux_clock_validator</title><style>.edge>path:hover{stroke-width:8}</style>
<ellipse fill="#ac4949" stroke="black" cx="892.31" cy="-101.52" rx="37.3" ry="29.52"/>
<text xml:space="preserve" text-anchor="middle" x="892.31" y="-108.9" font-family="Helvetica,sans-Serif" font-size="10.00" fill="#ffffff">aux.</text>
<text xml:space="preserve" text-anchor="middle" x="892.31" y="-97.65" font-family="Helvetica,sans-Serif" font-size="10.00" fill="#ffffff">clock.</text>
<text xml:space="preserve" text-anchor="middle" x="892.31" y="-86.4" font-family="Helvetica,sans-Serif" font-size="10.00" fill="#ffffff">validator</text>
</g>
<!-- aux_container -->
<g id="node10" class="node">
<title>aux_container</title><style>.edge>path:hover{stroke-width:8}</style>
<ellipse fill="#9d4343" stroke="black" cx="1533.31" cy="-196.57" rx="44.08" ry="18"/>
<text xml:space="preserve" text-anchor="middle" x="1533.31" y="-192.69" font-family="Helvetica,sans-Serif" font-size="10.00" fill="#ffffff">aux.container</text>
</g>
<!-- aux_core_base -->
<g id="node11" class="node">
<title>aux_core_base</title><style>.edge>path:hover{stroke-width:8}</style>
<ellipse fill="#a44646" stroke="black" cx="1582.31" cy="-101.52" rx="45.86" ry="18"/>
<text xml:space="preserve" text-anchor="middle" x="1582.31" y="-97.65" font-family="Helvetica,sans-Serif" font-size="10.00" fill="#ffffff">aux.core.base</text>
</g>
<!-- aux_core_downloader -->
<g id="node12" class="node">
<title>aux_core_downloader</title><style>.edge>path:hover{stroke-width:8}</style>
<ellipse fill="#b34c4c" stroke="black" cx="1425.31" cy="-196.57" rx="46.32" ry="29.52"/>
<text xml:space="preserve" text-anchor="middle" x="1425.31" y="-203.94" font-family="Helvetica,sans-Serif" font-size="10.00" fill="#ffffff">aux.</text>
<text xml:space="preserve" text-anchor="middle" x="1425.31" y="-192.69" font-family="Helvetica,sans-Serif" font-size="10.00" fill="#ffffff">core.</text>
<text xml:space="preserve" text-anchor="middle" x="1425.31" y="-181.44" font-family="Helvetica,sans-Serif" font-size="10.00" fill="#ffffff">downloader</text>
</g>
<!-- aux_ephemeris -->
<g id="node13" class="node">
<title>aux_ephemeris</title><style>.edge>path:hover{stroke-width:8}</style>
<ellipse fill="#b34c4c" stroke="black" cx="237.31" cy="-196.57" rx="47.19" ry="18"/>
<text xml:space="preserve" text-anchor="middle" x="237.31" y="-192.69" font-family="Helvetica,sans-Serif" font-size="10.00" fill="#ffffff">aux.ephemeris</text>
</g>
<!-- aux_ephemeris_parser -->
<g id="node14" class="node">
<title>aux_ephemeris_parser</title><style>.edge>path:hover{stroke-width:8}</style>
<ellipse fill="#ac4949" stroke="black" cx="993.31" cy="-101.52" rx="45.25" ry="29.52"/>
<text xml:space="preserve" text-anchor="middle" x="993.31" y="-108.9" font-family="Helvetica,sans-Serif" font-size="10.00" fill="#ffffff">aux.</text>
<text xml:space="preserve" text-anchor="middle" x="993.31" y="-97.65" font-family="Helvetica,sans-Serif" font-size="10.00" fill="#ffffff">ephemeris.</text>
<text xml:space="preserve" text-anchor="middle" x="993.31" y="-86.4" font-family="Helvetica,sans-Serif" font-size="10.00" fill="#ffffff">parser</text>
</g>
<!-- aux_ephemeris_reader -->
<g id="node15" class="node">
<title>aux_ephemeris_reader</title><style>.edge>path:hover{stroke-width:8}</style>
<ellipse fill="#9d4343" stroke="black" cx="1473.31" cy="-101.52" rx="45.25" ry="29.52"/>
<text xml:space="preserve" text-anchor="middle" x="1473.31" y="-108.9" font-family="Helvetica,sans-Serif" font-size="10.00" fill="#ffffff">aux.</text>
<text xml:space="preserve" text-anchor="middle" x="1473.31" y="-97.65" font-family="Helvetica,sans-Serif" font-size="10.00" fill="#ffffff">ephemeris.</text>
<text xml:space="preserve" text-anchor="middle" x="1473.31" y="-86.4" font-family="Helvetica,sans-Serif" font-size="10.00" fill="#ffffff">reader</text>
</g>
<!-- aux_ephemeris_validator -->
<g id="node16" class="node">
<title>aux_ephemeris_validator</title><style>.edge>path:hover{stroke-width:8}</style>
<ellipse fill="#b34c4c" stroke="black" cx="1102.31" cy="-101.52" rx="45.25" ry="29.52"/>
<text xml:space="preserve" text-anchor="middle" x="1102.31" y="-108.9" font-family="Helvetica,sans-Serif" font-size="10.00" fill="#ffffff">aux.</text>
<text xml:space="preserve" text-anchor="middle" x="1102.31" y="-97.65" font-family="Helvetica,sans-Serif" font-size="10.00" fill="#ffffff">ephemeris.</text>
<text xml:space="preserve" text-anchor="middle" x="1102.31" y="-86.4" font-family="Helvetica,sans-Serif" font-size="10.00" fill="#ffffff">validator</text>
</g>
<!-- aux_interpolation -->
<g id="node17" class="node">
<title>aux_interpolation</title><style>.edge>path:hover{stroke-width:8}</style>
<ellipse fill="#b34c4c" stroke="black" cx="351.31" cy="-196.57" rx="48.44" ry="21.57"/>
<text xml:space="preserve" text-anchor="middle" x="351.31" y="-198.32" font-family="Helvetica,sans-Serif" font-size="10.00" fill="#ffffff">aux.</text>
<text xml:space="preserve" text-anchor="middle" x="351.31" y="-187.07" font-family="Helvetica,sans-Serif" font-size="10.00" fill="#ffffff">interpolation</text>
</g>
<!-- aux_interpolation_interpolator -->
<g id="node18" class="node">
<title>aux_interpolation_interpolator</title><style>.edge>path:hover{stroke-width:8}</style>
<ellipse fill="#8f3d3d" stroke="black" cx="1359.31" cy="-101.52" rx="50.56" ry="29.52"/>
<text xml:space="preserve" text-anchor="middle" x="1359.31" y="-108.9" font-family="Helvetica,sans-Serif" font-size="10.00" fill="#ffffff">aux.</text>
<text xml:space="preserve" text-anchor="middle" x="1359.31" y="-97.65" font-family="Helvetica,sans-Serif" font-size="10.00" fill="#ffffff">interpolation.</text>
<text xml:space="preserve" text-anchor="middle" x="1359.31" y="-86.4" font-family="Helvetica,sans-Serif" font-size="10.00" fill="#ffffff">interpolator</text>
</g>
<!-- aux_matching -->
<g id="node19" class="node">
<title>aux_matching</title><style>.edge>path:hover{stroke-width:8}</style>
<ellipse fill="#b34c4c" stroke="black" cx="1228.31" cy="-18" rx="44.08" ry="18"/>
<text xml:space="preserve" text-anchor="middle" x="1228.31" y="-14.12" font-family="Helvetica,sans-Serif" font-size="10.00" fill="#ffffff">aux.matching</text>
</g>
<!-- aux_matching_dataset_matcher -->
<g id="node20" class="node">
<title>aux_matching_dataset_matcher</title><style>.edge>path:hover{stroke-width:8}</style>
<ellipse fill="#c04040" stroke="black" cx="1228.31" cy="-101.52" rx="62.76" ry="29.52"/>
<text xml:space="preserve" text-anchor="middle" x="1228.31" y="-108.9" font-family="Helvetica,sans-Serif" font-size="10.00" fill="#ffffff">aux.</text>
<text xml:space="preserve" text-anchor="middle" x="1228.31" y="-97.65" font-family="Helvetica,sans-Serif" font-size="10.00" fill="#ffffff">matching.</text>
<text xml:space="preserve" text-anchor="middle" x="1228.31" y="-86.4" font-family="Helvetica,sans-Serif" font-size="10.00" fill="#ffffff">dataset_matcher</text>
</g>
<!-- aux_matching_dataset_matcher&#45;&gt;aux_matching -->
<g id="edge1" class="edge">
<title>aux_matching_dataset_matcher&#45;&gt;aux_matching</title><style>.edge>path:hover{stroke-width:8}</style>
<path fill="none" stroke="black" d="M1228.31,-71.55C1228.31,-63.86 1228.31,-55.56 1228.31,-47.88"/>
<polygon fill="#c04040" stroke="black" points="1231.81,-48 1228.31,-38 1224.81,-48 1231.81,-48"/>
</g>
<!-- aux_pipeline -->
<g id="node21" class="node">
<title>aux_pipeline</title><style>.edge>path:hover{stroke-width:8}</style>
<ellipse fill="#a44646" stroke="black" cx="723.31" cy="-196.57" rx="40.09" ry="18"/>
<text xml:space="preserve" text-anchor="middle" x="723.31" y="-192.69" font-family="Helvetica,sans-Serif" font-size="10.00" fill="#ffffff">aux.pipeline</text>
</g>
<!-- aux_position -->
<g id="node22" class="node">
<title>aux_position</title><style>.edge>path:hover{stroke-width:8}</style>
<ellipse fill="#ac4949" stroke="black" cx="740.31" cy="-18" rx="40.53" ry="18"/>
<text xml:space="preserve" text-anchor="middle" x="740.31" y="-14.12" font-family="Helvetica,sans-Serif" font-size="10.00" fill="#ffffff">aux.position</text>
</g>
<!-- aux_position_position -->
<g id="node23" class="node">
<title>aux_position_position</title><style>.edge>path:hover{stroke-width:8}</style>
<ellipse fill="#b83d3d" stroke="black" cx="799.31" cy="-101.52" rx="37.3" ry="29.52"/>
<text xml:space="preserve" text-anchor="middle" x="799.31" y="-108.9" font-family="Helvetica,sans-Serif" font-size="10.00" fill="#ffffff">aux.</text>
<text xml:space="preserve" text-anchor="middle" x="799.31" y="-97.65" font-family="Helvetica,sans-Serif" font-size="10.00" fill="#ffffff">position.</text>
<text xml:space="preserve" text-anchor="middle" x="799.31" y="-86.4" font-family="Helvetica,sans-Serif" font-size="10.00" fill="#ffffff">position</text>
</g>
<!-- aux_position_position&#45;&gt;aux_position -->
<g id="edge2" class="edge">
<title>aux_position_position&#45;&gt;aux_position</title><style>.edge>path:hover{stroke-width:8}</style>
<path fill="none" stroke="black" d="M781.28,-75.62C774.09,-65.68 765.82,-54.26 758.61,-44.29"/>
<polygon fill="#b83d3d" stroke="black" points="761.66,-42.54 752.96,-36.49 755.99,-46.64 761.66,-42.54"/>
</g>
<!-- aux_position_spherical_coords -->
<g id="node24" class="node">
<title>aux_position_spherical_coords</title><style>.edge>path:hover{stroke-width:8}</style>
<ellipse fill="#a83838" stroke="black" cx="680.31" cy="-101.52" rx="63.29" ry="29.52"/>
<text xml:space="preserve" text-anchor="middle" x="680.31" y="-108.9" font-family="Helvetica,sans-Serif" font-size="10.00" fill="#ffffff">aux.</text>
<text xml:space="preserve" text-anchor="middle" x="680.31" y="-97.65" font-family="Helvetica,sans-Serif" font-size="10.00" fill="#ffffff">position.</text>
<text xml:space="preserve" text-anchor="middle" x="680.31" y="-86.4" font-family="Helvetica,sans-Serif" font-size="10.00" fill="#ffffff">spherical_coords</text>
</g>
<!-- aux_position_spherical_coords&#45;&gt;aux_position -->
<g id="edge3" class="edge">
<title>aux_position_spherical_coords&#45;&gt;aux_position</title><style>.edge>path:hover{stroke-width:8}</style>
<path fill="none" stroke="black" d="M700.29,-73.38C707.17,-64.03 714.84,-53.6 721.62,-44.39"/>
<polygon fill="#a83838" stroke="black" points="724.28,-46.69 727.38,-36.56 718.64,-42.54 724.28,-46.69"/>
</g>
<!-- aux_preprocessing -->
<g id="node25" class="node">
<title>aux_preprocessing</title><style>.edge>path:hover{stroke-width:8}</style>
<ellipse fill="#a44646" stroke="black" cx="911.31" cy="-196.57" rx="54.27" ry="21.57"/>
<text xml:space="preserve" text-anchor="middle" x="911.31" y="-198.32" font-family="Helvetica,sans-Serif" font-size="10.00" fill="#ffffff">aux.</text>
<text xml:space="preserve" text-anchor="middle" x="911.31" y="-187.07" font-family="Helvetica,sans-Serif" font-size="10.00" fill="#ffffff">preprocessing</text>
</g>
<!-- aux_products -->
<g id="node26" class="node">
<title>aux_products</title><style>.edge>path:hover{stroke-width:8}</style>
<ellipse fill="#b34c4c" stroke="black" cx="460.31" cy="-196.57" rx="42.75" ry="18"/>
<text xml:space="preserve" text-anchor="middle" x="460.31" y="-192.69" font-family="Helvetica,sans-Serif" font-size="10.00" fill="#ffffff">aux.products</text>
</g>
<!-- aux_products_models -->
<g id="node27" class="node">
<title>aux_products_models</title><style>.edge>path:hover{stroke-width:8}</style>
<ellipse fill="#b34c4c" stroke="black" cx="1916.31" cy="-101.52" rx="39.95" ry="29.52"/>
<text xml:space="preserve" text-anchor="middle" x="1916.31" y="-108.9" font-family="Helvetica,sans-Serif" font-size="10.00" fill="#ffffff">aux.</text>
<text xml:space="preserve" text-anchor="middle" x="1916.31" y="-97.65" font-family="Helvetica,sans-Serif" font-size="10.00" fill="#ffffff">products.</text>
<text xml:space="preserve" text-anchor="middle" x="1916.31" y="-86.4" font-family="Helvetica,sans-Serif" font-size="10.00" fill="#ffffff">models</text>
</g>
<!-- aux_products_registry_config -->
<g id="node28" class="node">
<title>aux_products_registry_config</title><style>.edge>path:hover{stroke-width:8}</style>
<ellipse fill="#b34c4c" stroke="black" cx="1702.31" cy="-101.52" rx="56.39" ry="29.52"/>
<text xml:space="preserve" text-anchor="middle" x="1702.31" y="-108.9" font-family="Helvetica,sans-Serif" font-size="10.00" fill="#ffffff">aux.</text>
<text xml:space="preserve" text-anchor="middle" x="1702.31" y="-97.65" font-family="Helvetica,sans-Serif" font-size="10.00" fill="#ffffff">products.</text>
<text xml:space="preserve" text-anchor="middle" x="1702.31" y="-86.4" font-family="Helvetica,sans-Serif" font-size="10.00" fill="#ffffff">registry_config</text>
</g>
<!-- canvod -->
<g id="node29" class="node">
<title>canvod</title><style>.edge>path:hover{stroke-width:8}</style>
<polygon fill="#f98510" stroke="black" points="558.31,-381.61 555.31,-385.61 534.31,-385.61 531.31,-381.61 504.31,-381.61 504.31,-345.61 558.31,-345.61 558.31,-381.61"/>
<text xml:space="preserve" text-anchor="middle" x="531.31" y="-359.73" font-family="Helvetica,sans-Serif" font-size="10.00" fill="#000000">canvod</text>
</g>
<!-- canvod&#45;&gt;aux -->
<g id="edge4" class="edge">
<title>canvod&#45;&gt;aux</title><style>.edge>path:hover{stroke-width:8}</style>
<path fill="none" stroke="black" d="M519.64,-345.32C512.03,-334.03 501.96,-319.11 493.44,-306.48"/>
<polygon fill="#f98510" stroke="black" points="496.36,-304.56 487.87,-298.22 490.56,-308.47 496.36,-304.56"/>
</g>
<!-- canvod&#45;&gt;aux__internal -->
<g id="edge5" class="edge">
<title>canvod&#45;&gt;aux__internal</title><style>.edge>path:hover{stroke-width:8}</style>
<path fill="none" stroke="black" d="M237.31,-279.09C199.21,-223.03 155.96,-254.24 94.31,-226.09 88.37,-223.37 82.18,-220.26 76.23,-217.1"/>
<polygon fill="#f98510" stroke="black" points="78.31,-214.25 67.86,-212.54 74.96,-220.39 78.31,-214.25"/>
<path fill="none" stroke="black" d="M504.09,-359.48C437.16,-351.13 267.75,-325.88 237.31,-281.09"/>
</g>
<!-- canvod&#45;&gt;aux_augmentation -->
<g id="edge6" class="edge">
<title>canvod&#45;&gt;aux_augmentation</title><style>.edge>path:hover{stroke-width:8}</style>
<path fill="none" stroke="black" d="M531.31,-279.09C536.83,-255.02 555.94,-235.17 574.21,-221.09"/>
<polygon fill="#f98510" stroke="black" points="575.81,-224.26 581.83,-215.54 571.69,-218.6 575.81,-224.26"/>
</g>
<!-- canvod&#45;&gt;aux_clock -->
<g id="edge7" class="edge">
<title>canvod&#45;&gt;aux_clock</title><style>.edge>path:hover{stroke-width:8}</style>
<path fill="none" stroke="black" d="M237.31,-279.09C227.44,-264.57 192.16,-237.26 166.29,-218.28"/>
<polygon fill="#f98510" stroke="black" points="168.62,-215.64 158.48,-212.59 164.5,-221.3 168.62,-215.64"/>
</g>
<!-- canvod&#45;&gt;aux_ephemeris -->
<g id="edge8" class="edge">
<title>canvod&#45;&gt;aux_ephemeris</title><style>.edge>path:hover{stroke-width:8}</style>
<path fill="none" stroke="black" d="M237.31,-279.09C226.84,-263.68 227.13,-242.56 229.89,-225.68"/>
<polygon fill="#f98510" stroke="black" points="233.24,-226.78 231.79,-216.28 226.38,-225.39 233.24,-226.78"/>
</g>
<!-- canvod&#45;&gt;aux_interpolation -->
<g id="edge9" class="edge">
<title>canvod&#45;&gt;aux_interpolation</title><style>.edge>path:hover{stroke-width:8}</style>
<path fill="none" stroke="black" d="M237.31,-279.09C231.84,-271.04 277.71,-241.22 312.9,-219.98"/>
<polygon fill="#f98510" stroke="black" points="314.41,-223.16 321.19,-215.02 310.82,-217.15 314.41,-223.16"/>
</g>
<!-- canvod&#45;&gt;aux_pipeline -->
<g id="edge10" class="edge">
<title>canvod&#45;&gt;aux_pipeline</title><style>.edge>path:hover{stroke-width:8}</style>
<path fill="none" stroke="black" d="M551.49,-345.26C586.34,-315.3 657.79,-253.88 696.67,-220.46"/>
<polygon fill="#f98510" stroke="black" points="698.91,-223.15 704.21,-213.98 694.35,-217.84 698.91,-223.15"/>
</g>
<!-- canvod&#45;&gt;aux_position_spherical_coords -->
<g id="edge11" class="edge">
<title>canvod&#45;&gt;aux_position_spherical_coords</title><style>.edge>path:hover{stroke-width:8}</style>
<path fill="none" stroke="black" d="M531.31,-279.09C542.61,-229.86 520.18,-207.58 550.31,-167.04 566.28,-145.55 591.39,-130.78 615.3,-120.86"/>
<polygon fill="#f98510" stroke="black" points="616.35,-124.21 624.4,-117.32 613.81,-117.69 616.35,-124.21"/>
<path fill="none" stroke="black" d="M528.83,-345.12C527.04,-328.4 525.79,-302.61 531.31,-281.09"/>
</g>
<!-- canvod&#45;&gt;aux_preprocessing -->
<g id="edge12" class="edge">
<title>canvod&#45;&gt;aux_preprocessing</title><style>.edge>path:hover{stroke-width:8}</style>
<path fill="none" stroke="black" d="M558.65,-363.14C650.72,-364.18 944.4,-361.21 955.31,-281.09"/>
<path fill="none" stroke="black" d="M955.31,-279.09C957.93,-259.82 948.26,-240.57 937.32,-225.61"/>
<polygon fill="#f98510" stroke="black" points="940.33,-223.77 931.39,-218.09 934.83,-228.11 940.33,-223.77"/>
</g>
<!-- canvod&#45;&gt;aux_products -->
<g id="edge13" class="edge">
<title>canvod&#45;&gt;aux_products</title><style>.edge>path:hover{stroke-width:8}</style>
<path fill="none" stroke="black" d="M237.31,-279.09C192.58,-213.28 335.06,-257.15 408.31,-226.09 414.38,-223.51 420.67,-220.44 426.69,-217.28"/>
<polygon fill="#f98510" stroke="black" points="428.03,-220.53 435.14,-212.68 424.69,-214.38 428.03,-220.53"/>
</g>
<!-- numpy -->
<g id="node30" class="node">
<title>numpy</title><style>.edge>path:hover{stroke-width:8}</style>
<polygon fill="blue" stroke="black" points="1433.31,-850.17 1430.31,-854.17 1409.31,-854.17 1406.31,-850.17 1379.31,-850.17 1379.31,-814.17 1433.31,-814.17 1433.31,-850.17"/>
<text xml:space="preserve" text-anchor="middle" x="1406.31" y="-828.3" font-family="Helvetica,sans-Serif" font-size="10.00" fill="white">numpy</text>
</g>
<!-- numpy&#45;&gt;aux_augmentation -->
<g id="edge14" class="edge">
<title>numpy&#45;&gt;aux_augmentation</title><style>.edge>path:hover{stroke-width:8}</style>
<path fill="none" stroke="black" d="M1409.51,-813.73C1412.18,-795.21 1414.39,-765.33 1406.31,-741.17"/>
<path fill="none" stroke="black" d="M1406.31,-740.17C1388.49,-697.78 1350.47,-724.67 1309.31,-704.17 1079.39,-589.72 1025.34,-550.41 822.31,-393.13 751.71,-338.44 677.02,-264.46 638.58,-225.01"/>
<polygon fill="blue" stroke="black" points="641.47,-222.97 631.99,-218.23 636.44,-227.84 641.47,-222.97"/>
</g>
<!-- numpy&#45;&gt;aux_clock_parser -->
<g id="edge15" class="edge">
<title>numpy&#45;&gt;aux_clock_parser</title><style>.edge>path:hover{stroke-width:8}</style>
<path fill="none" stroke="black" d="M1406.31,-740.17C1401.36,-725.38 1390.91,-711.99 1380.24,-701.29"/>
<polygon fill="blue" stroke="black" points="1382.9,-698.99 1373.21,-694.7 1378.11,-704.1 1382.9,-698.99"/>
</g>
<!-- numpy&#45;&gt;aux_clock_reader -->
<g id="edge16" class="edge">
<title>numpy&#45;&gt;aux_clock_reader</title><style>.edge>path:hover{stroke-width:8}</style>
<path fill="none" stroke="black" d="M1406.31,-740.17C1394.96,-680.87 1486.33,-736.53 1537.31,-704.17 1772.07,-555.19 1936.25,-245.02 1987.4,-138.98"/>
<polygon fill="blue" stroke="black" points="1990.47,-140.69 1991.62,-130.16 1984.15,-137.67 1990.47,-140.69"/>
</g>
<!-- numpy&#45;&gt;aux_clock_validator -->
<g id="edge17" class="edge">
<title>numpy&#45;&gt;aux_clock_validator</title><style>.edge>path:hover{stroke-width:8}</style>
<path fill="none" stroke="black" d="M993.31,-362.61C985.12,-289.71 1011.04,-268.74 993.31,-197.57"/>
<path fill="none" stroke="black" d="M993.31,-195.57C989.33,-180.86 984.64,-178.23 974.31,-167.04 960.97,-152.61 944.21,-138.82 929.33,-127.73"/>
<polygon fill="blue" stroke="black" points="931.71,-125.13 921.57,-122.07 927.59,-130.79 931.71,-125.13"/>
</g>
<!-- numpy&#45;&gt;aux_ephemeris_parser -->
<g id="edge18" class="edge">
<title>numpy&#45;&gt;aux_ephemeris_parser</title><style>.edge>path:hover{stroke-width:8}</style>
<path fill="none" stroke="black" d="M993.31,-195.57C989.02,-178.37 988.41,-158.83 989.11,-142.11"/>
<polygon fill="blue" stroke="black" points="992.58,-142.75 989.68,-132.56 985.59,-142.33 992.58,-142.75"/>
</g>
<!-- numpy&#45;&gt;aux_ephemeris_reader -->
<g id="edge19" class="edge">
<title>numpy&#45;&gt;aux_ephemeris_reader</title><style>.edge>path:hover{stroke-width:8}</style>
<path fill="none" stroke="black" d="M1351.31,-362.61C1345.22,-275.49 1324.36,-241.31 1370.31,-167.04 1374.11,-160.9 1403.34,-142.85 1429.69,-127.4"/>
<polygon fill="blue" stroke="black" points="1431.4,-130.46 1438.29,-122.4 1427.88,-124.41 1431.4,-130.46"/>
</g>
<!-- numpy&#45;&gt;aux_interpolation_interpolator -->
<g id="edge20" class="edge">
<title>numpy&#45;&gt;aux_interpolation_interpolator</title><style>.edge>path:hover{stroke-width:8}</style>
<path fill="none" stroke="black" d="M1351.31,-518.13C1342.53,-450.47 1368.75,-430.57 1351.31,-364.61"/>
<path fill="none" stroke="black" d="M1351.31,-362.61C1327.91,-278.67 1323.05,-253.01 1337.31,-167.04 1338.72,-158.52 1341.12,-149.61 1343.82,-141.23"/>
<polygon fill="blue" stroke="black" points="1347.04,-142.61 1347,-132.02 1340.43,-140.33 1347.04,-142.61"/>
</g>
<!-- numpy&#45;&gt;aux_pipeline -->
<g id="edge21" class="edge">
<title>numpy&#45;&gt;aux_pipeline</title><style>.edge>path:hover{stroke-width:8}</style>
<path fill="none" stroke="black" d="M791.31,-279.09C780.96,-257.14 763.28,-236.21 748.54,-221.06"/>
<polygon fill="blue" stroke="black" points="751.34,-218.91 741.79,-214.33 746.4,-223.87 751.34,-218.91"/>
<path fill="none" stroke="black" d="M1351.31,-590.13C1293.82,-526.72 1060.8,-500.75 993.31,-448.13"/>
<path fill="none" stroke="black" d="M1406.31,-673.65C1406.43,-669.9 1371.86,-617.25 1351.31,-592.13"/>
<path fill="none" stroke="black" d="M993.31,-446.13C954.31,-418.89 937.93,-422.25 900.31,-393.13 845.36,-350.61 820.92,-343.93 791.31,-281.09"/>
<path fill="none" stroke="black" d="M1406.31,-740.17C1397.21,-712.98 1405.34,-704.31 1406.31,-675.65"/>
</g>
<!-- numpy&#45;&gt;aux_position_spherical_coords -->
<g id="edge22" class="edge">
<title>numpy&#45;&gt;aux_position_spherical_coords</title><style>.edge>path:hover{stroke-width:8}</style>
<path fill="none" stroke="black" d="M791.31,-279.09C764.92,-236.02 799.29,-209.74 772.31,-167.04 762.73,-151.89 748.18,-139.31 733.46,-129.39"/>
<polygon fill="blue" stroke="black" points="735.4,-126.48 725.08,-124.08 731.65,-132.39 735.4,-126.48"/>
</g>
<!-- numpy&#45;&gt;aux_preprocessing -->
<g id="edge23" class="edge">
<title>numpy&#45;&gt;aux_preprocessing</title><style>.edge>path:hover{stroke-width:8}</style>
<path fill="none" stroke="black" d="M993.31,-362.61C988.84,-322.88 949.91,-320.7 955.31,-281.09"/>
<path fill="none" stroke="black" d="M993.31,-446.13C964.73,-423.85 997.35,-400.61 993.31,-364.61"/>
</g>
<!-- pandas -->
<g id="node31" class="node">
<title>pandas</title><style>.edge>path:hover{stroke-width:8}</style>
<polygon fill="blue" stroke="black" points="1433.31,-609.13 1430.31,-613.13 1409.31,-613.13 1406.31,-609.13 1379.31,-609.13 1379.31,-573.13 1433.31,-573.13 1433.31,-609.13"/>
<text xml:space="preserve" text-anchor="middle" x="1406.31" y="-587.26" font-family="Helvetica,sans-Serif" font-size="10.00" fill="white">pandas</text>
</g>
<!-- numpy&#45;&gt;pandas -->
<g id="edge24" class="edge">
<title>numpy&#45;&gt;pandas</title><style>.edge>path:hover{stroke-width:8}</style>
<path fill="none" stroke="black" d="M1406.31,-673.65C1406.9,-656.07 1406.92,-636.34 1406.78,-620.69"/>
<polygon fill="blue" stroke="black" points="1410.28,-621.1 1406.67,-611.14 1403.28,-621.18 1410.28,-621.1"/>
</g>
<!-- pint -->
<g id="node32" class="node">
<title>pint</title><style>.edge>path:hover{stroke-width:8}</style>
<polygon fill="blue" stroke="black" points="1505.31,-609.13 1502.31,-613.13 1481.31,-613.13 1478.31,-609.13 1451.31,-609.13 1451.31,-573.13 1505.31,-573.13 1505.31,-609.13"/>
<text xml:space="preserve" text-anchor="middle" x="1478.31" y="-587.26" font-family="Helvetica,sans-Serif" font-size="10.00" fill="white">pint</text>
</g>
<!-- numpy&#45;&gt;pint -->
<g id="edge25" class="edge">
<title>numpy&#45;&gt;pint</title><style>.edge>path:hover{stroke-width:8}</style>
<path fill="none" stroke="black" d="M1406.31,-673.65C1407.11,-649.87 1424.58,-629.74 1442.1,-615.44"/>
<polygon fill="blue" stroke="black" points="1444.16,-618.27 1449.98,-609.42 1439.91,-612.71 1444.16,-618.27"/>
</g>
<!-- pymap3d -->
<g id="node35" class="node">
<title>pymap3d</title><style>.edge>path:hover{stroke-width:8}</style>
<polygon fill="blue" stroke="black" points="965.18,-381.61 962.18,-385.61 941.18,-385.61 938.18,-381.61 909.43,-381.61 909.43,-345.61 965.18,-345.61 965.18,-381.61"/>
<text xml:space="preserve" text-anchor="middle" x="937.31" y="-359.73" font-family="Helvetica,sans-Serif" font-size="10.00" fill="white">pymap3d</text>
</g>
<!-- numpy&#45;&gt;pymap3d -->
<g id="edge26" class="edge">
<title>numpy&#45;&gt;pymap3d</title><style>.edge>path:hover{stroke-width:8}</style>
<path fill="none" stroke="black" d="M993.31,-446.13C974.74,-431.66 960,-409.31 950.31,-391.67"/>
<polygon fill="blue" stroke="black" points="953.65,-390.49 945.9,-383.26 947.45,-393.74 953.65,-390.49"/>
</g>
<!-- scipy -->
<g id="node36" class="node">
<title>scipy</title><style>.edge>path:hover{stroke-width:8}</style>
<polygon fill="blue" stroke="black" points="1323.31,-537.13 1320.31,-541.13 1299.31,-541.13 1296.31,-537.13 1269.31,-537.13 1269.31,-501.13 1323.31,-501.13 1323.31,-537.13"/>
<text xml:space="preserve" text-anchor="middle" x="1296.31" y="-515.26" font-family="Helvetica,sans-Serif" font-size="10.00" fill="white">scipy</text>
</g>
<!-- numpy&#45;&gt;scipy -->
<g id="edge27" class="edge">
<title>numpy&#45;&gt;scipy</title><style>.edge>path:hover{stroke-width:8}</style>
<path fill="none" stroke="black" d="M1351.31,-590.13C1338.78,-576.31 1325.83,-559.96 1315.66,-546.54"/>
<polygon fill="blue" stroke="black" points="1318.48,-544.48 1309.68,-538.57 1312.88,-548.67 1318.48,-544.48"/>
</g>
<!-- xarray -->
<g id="node39" class="node">
<title>xarray</title><style>.edge>path:hover{stroke-width:8}</style>
<polygon fill="blue" stroke="black" points="1132.31,-381.61 1129.31,-385.61 1108.31,-385.61 1105.31,-381.61 1078.31,-381.61 1078.31,-345.61 1132.31,-345.61 1132.31,-381.61"/>
<text xml:space="preserve" text-anchor="middle" x="1105.31" y="-359.73" font-family="Helvetica,sans-Serif" font-size="10.00" fill="white">xarray</text>
</g>
<!-- numpy&#45;&gt;xarray -->
<g id="edge28" class="edge">
<title>numpy&#45;&gt;xarray</title><style>.edge>path:hover{stroke-width:8}</style>
<path fill="none" stroke="black" d="M1351.31,-518.13C1346.75,-483.02 1342.38,-468.33 1313.31,-448.13"/>
<path fill="none" stroke="black" d="M1313.31,-446.13C1259.95,-409.05 1187.35,-385.59 1143.54,-373.8"/>
<polygon fill="blue" stroke="black" points="1144.55,-370.45 1133.99,-371.3 1142.78,-377.22 1144.55,-370.45"/>
<path fill="none" stroke="black" d="M1351.31,-590.13C1330.41,-567.08 1355.31,-550.98 1351.31,-520.13"/>
</g>
<!-- pandas&#45;&gt;aux_container -->
<g id="edge29" class="edge">
<title>pandas&#45;&gt;aux_container</title><style>.edge>path:hover{stroke-width:8}</style>
<path fill="none" stroke="black" d="M1406.31,-518.13C1403.83,-489.76 1430.19,-490.9 1442.31,-465.13 1468.11,-410.25 1460.87,-391.53 1480.31,-334.09 1493.27,-295.77 1510.59,-252.36 1521.84,-224.98"/>
<polygon fill="blue" stroke="black" points="1524.96,-226.61 1525.54,-216.03 1518.49,-223.93 1524.96,-226.61"/>
</g>
<!-- tqdm -->
<g id="node37" class="node">
<title>tqdm</title><style>.edge>path:hover{stroke-width:8}</style>
<polygon fill="blue" stroke="black" points="1433.31,-465.13 1430.31,-469.13 1409.31,-469.13 1406.31,-465.13 1379.31,-465.13 1379.31,-429.13 1433.31,-429.13 1433.31,-465.13"/>
<text xml:space="preserve" text-anchor="middle" x="1406.31" y="-443.26" font-family="Helvetica,sans-Serif" font-size="10.00" fill="white">tqdm</text>
</g>
<!-- pandas&#45;&gt;tqdm -->
<g id="edge30" class="edge">
<title>pandas&#45;&gt;tqdm</title><style>.edge>path:hover{stroke-width:8}</style>
<path fill="none" stroke="black" d="M1406.31,-518.13C1405.12,-504.55 1404.97,-489.44 1405.18,-476.73"/>
<polygon fill="blue" stroke="black" points="1408.68,-477.03 1405.43,-466.94 1401.68,-476.85 1408.68,-477.03"/>
</g>
<!-- pandas&#45;&gt;xarray -->
<g id="edge31" class="edge">
<title>pandas&#45;&gt;xarray</title><style>.edge>path:hover{stroke-width:8}</style>
<path fill="none" stroke="black" d="M1407.14,-572.83C1407.63,-558.64 1407.87,-538.05 1406.31,-520.13"/>
<path fill="none" stroke="black" d="M1406.31,-518.13C1401.81,-466.59 1355.79,-477.65 1313.31,-448.13"/>
</g>
<!-- pint&#45;&gt;aux__internal_units -->
<g id="edge32" class="edge">
<title>pint&#45;&gt;aux__internal_units</title><style>.edge>path:hover{stroke-width:8}</style>
<path fill="none" stroke="black" d="M1482.15,-572.81C1490.1,-536.93 1508.56,-453.68 1519.57,-404"/>
<polygon fill="blue" stroke="black" points="1522.93,-405.04 1521.67,-394.52 1516.09,-403.53 1522.93,-405.04"/>
</g>
<!-- pydantic -->
<g id="node33" class="node">
<title>pydantic</title><style>.edge>path:hover{stroke-width:8}</style>
<polygon fill="blue" stroke="black" points="1679.31,-381.61 1676.31,-385.61 1655.31,-385.61 1652.31,-381.61 1625.31,-381.61 1625.31,-345.61 1679.31,-345.61 1679.31,-381.61"/>
<text xml:space="preserve" text-anchor="middle" x="1652.31" y="-359.73" font-family="Helvetica,sans-Serif" font-size="10.00" fill="white">pydantic</text>
</g>
<!-- pydantic&#45;&gt;aux__internal_date_utils -->
<g id="edge33" class="edge">
<title>pydantic&#45;&gt;aux__internal_date_utils</title><style>.edge>path:hover{stroke-width:8}</style>
<path fill="none" stroke="black" d="M1702.31,-195.57C1701.41,-176.01 1742.37,-146.75 1775.64,-126.28"/>
<polygon fill="blue" stroke="black" points="1777.18,-129.44 1783.93,-121.27 1773.56,-123.45 1777.18,-129.44"/>
</g>
<!-- pydantic&#45;&gt;aux_clock_reader -->
<g id="edge34" class="edge">
<title>pydantic&#45;&gt;aux_clock_reader</title><style>.edge>path:hover{stroke-width:8}</style>
<path fill="none" stroke="black" d="M1702.31,-195.57C1701.55,-179.02 1711.85,-175.14 1726.31,-167.04 1820.04,-114.57 1865.97,-171.93 1965.31,-131.04 1967.64,-130.08 1969.96,-128.96 1972.24,-127.71"/>
<polygon fill="blue" stroke="black" points="1973.98,-130.75 1980.62,-122.49 1970.28,-124.81 1973.98,-130.75"/>
</g>
<!-- pydantic&#45;&gt;aux_container -->
<g id="edge35" class="edge">
<title>pydantic&#45;&gt;aux_container</title><style>.edge>path:hover{stroke-width:8}</style>
<path fill="none" stroke="black" d="M1702.31,-279.09C1695.94,-228.78 1634.83,-209.51 1587.9,-202.13"/>
<polygon fill="blue" stroke="black" points="1588.51,-198.69 1578.12,-200.75 1587.54,-205.62 1588.51,-198.69"/>
<path fill="none" stroke="black" d="M1672.23,-345.27C1687.49,-329.85 1705.45,-305.96 1702.31,-281.09"/>
</g>
<!-- pydantic&#45;&gt;aux_core_base -->
<g id="edge36" class="edge">
<title>pydantic&#45;&gt;aux_core_base</title><style>.edge>path:hover{stroke-width:8}</style>
<path fill="none" stroke="black" d="M1702.31,-195.57C1701.33,-174.23 1653.53,-142.64 1618.56,-122.31"/>
<polygon fill="blue" stroke="black" points="1620.37,-119.32 1609.95,-117.39 1616.9,-125.39 1620.37,-119.32"/>
</g>
<!-- pydantic&#45;&gt;aux_ephemeris_reader -->
<g id="edge37" class="edge">
<title>pydantic&#45;&gt;aux_ephemeris_reader</title><style>.edge>path:hover{stroke-width:8}</style>
<path fill="none" stroke="black" d="M1702.31,-195.57C1698.52,-112.76 1603.01,-164.81 1527.31,-131.04 1524.01,-129.57 1520.64,-127.99 1517.27,-126.35"/>
<polygon fill="blue" stroke="black" points="1519.11,-123.36 1508.6,-122 1515.97,-129.62 1519.11,-123.36"/>
</g>
<!-- pydantic&#45;&gt;aux_interpolation_interpolator -->
<g id="edge38" class="edge">
<title>pydantic&#45;&gt;aux_interpolation_interpolator</title><style>.edge>path:hover{stroke-width:8}</style>
<path fill="none" stroke="black" d="M1702.31,-279.09C1697.76,-243.14 1703.96,-233.76 1702.31,-197.57"/>
<path fill="none" stroke="black" d="M1702.31,-195.57C1699.88,-142.53 1638.04,-178.98 1586.31,-167.04 1512.32,-149.98 1491.18,-155.51 1419.31,-131.04 1415.19,-129.64 1410.98,-128.03 1406.79,-126.31"/>
<polygon fill="blue" stroke="black" points="1408.47,-123.22 1397.91,-122.44 1405.68,-129.64 1408.47,-123.22"/>
</g>
<!-- pydantic&#45;&gt;aux_products_models -->
<g id="edge39" class="edge">
<title>pydantic&#45;&gt;aux_products_models</title><style>.edge>path:hover{stroke-width:8}</style>
<path fill="none" stroke="black" d="M1702.31,-195.57C1699.37,-131.35 1772.39,-169.9 1867.31,-131.04 1870.3,-129.82 1873.32,-128.44 1876.33,-126.97"/>
<polygon fill="blue" stroke="black" points="1877.83,-130.13 1885.05,-122.38 1874.57,-123.94 1877.83,-130.13"/>
</g>
<!-- pydantic&#45;&gt;aux_products_registry_config -->
<g id="edge40" class="edge">
<title>pydantic&#45;&gt;aux_products_registry_config</title><style>.edge>path:hover{stroke-width:8}</style>
<path fill="none" stroke="black" d="M1702.31,-195.57C1701.52,-178.3 1701.39,-159.2 1701.5,-142.83"/>
<polygon fill="blue" stroke="black" points="1705,-143.01 1701.61,-132.97 1698,-142.93 1705,-143.01"/>
</g>
<!-- pydantic_core -->
<g id="node34" class="node">
<title>pydantic_core</title><style>.edge>path:hover{stroke-width:8}</style>
<polygon fill="blue" stroke="black" points="1671.68,-537.13 1668.68,-541.13 1647.68,-541.13 1644.68,-537.13 1594.93,-537.13 1594.93,-501.13 1671.68,-501.13 1671.68,-537.13"/>
<text xml:space="preserve" text-anchor="middle" x="1633.31" y="-515.26" font-family="Helvetica,sans-Serif" font-size="10.00" fill="white">pydantic_core</text>
</g>
<!-- pydantic_core&#45;&gt;pydantic -->
<g id="edge41" class="edge">
<title>pydantic_core&#45;&gt;pydantic</title><style>.edge>path:hover{stroke-width:8}</style>
<path fill="none" stroke="black" d="M1600.27,-500.86C1581.8,-488.56 1563.22,-470.31 1567.31,-448.13"/>
</g>
<!-- pymap3d&#45;&gt;aux_position_position -->
<g id="edge42" class="edge">
<title>pymap3d&#45;&gt;aux_position_position</title><style>.edge>path:hover{stroke-width:8}</style>
<path fill="none" stroke="black" d="M829.31,-195.57C822.32,-177.96 815.73,-158.03 810.51,-141.15"/>
<polygon fill="blue" stroke="black" points="813.99,-140.54 807.73,-131.99 807.29,-142.58 813.99,-140.54"/>
</g>
<!-- pymap3d&#45;&gt;aux_position_spherical_coords -->
<g id="edge43" class="edge">
<title>pymap3d&#45;&gt;aux_position_spherical_coords</title><style>.edge>path:hover{stroke-width:8}</style>
<path fill="none" stroke="black" d="M829.31,-195.57C823.2,-180.17 818.25,-177.38 805.31,-167.04 785.04,-150.86 760.08,-137 737.81,-126.32"/>
<polygon fill="blue" stroke="black" points="739.37,-123.19 728.83,-122.13 736.41,-129.53 739.37,-123.19"/>
<path fill="none" stroke="black" d="M909.02,-347.69C890.44,-336.47 867.11,-319.38 853.31,-298.09 828.32,-259.54 846.24,-240.26 829.31,-197.57"/>
</g>
<!-- scipy&#45;&gt;aux_interpolation_interpolator -->
<g id="edge44" class="edge">
<title>scipy&#45;&gt;aux_interpolation_interpolator</title><style>.edge>path:hover{stroke-width:8}</style>
<path fill="none" stroke="black" d="M1161.31,-446.13C1120.27,-397.63 1183.55,-216.6 1223.31,-167.04 1246.94,-137.57 1266.19,-147.26 1300.31,-131.04 1303.75,-129.41 1307.3,-127.71 1310.88,-125.99"/>
<polygon fill="blue" stroke="black" points="1312.08,-129.3 1319.57,-121.81 1309.05,-122.99 1312.08,-129.3"/>
</g>
<!-- scipy&#45;&gt;xarray -->
<g id="edge45" class="edge">
<title>scipy&#45;&gt;xarray</title><style>.edge>path:hover{stroke-width:8}</style>
<path fill="none" stroke="black" d="M1161.31,-446.13C1146.7,-428.87 1132.31,-407.8 1121.77,-391.4"/>
<polygon fill="blue" stroke="black" points="1124.85,-389.73 1116.55,-383.15 1118.94,-393.47 1124.85,-389.73"/>
<path fill="none" stroke="black" d="M1269.03,-510.84C1238.56,-501.32 1189.78,-481.79 1161.31,-448.13"/>
</g>
<!-- tqdm&#45;&gt;aux_core_downloader -->
<g id="edge46" class="edge">
<title>tqdm&#45;&gt;aux_core_downloader</title><style>.edge>path:hover{stroke-width:8}</style>
<path fill="none" stroke="black" d="M1407.64,-428.65C1410.65,-389.32 1418.01,-293.02 1422.22,-237.95"/>
<polygon fill="blue" stroke="black" points="1425.7,-238.28 1422.98,-228.04 1418.72,-237.74 1425.7,-238.28"/>
</g>
<!-- typing_extensions -->
<g id="node38" class="node">
<title>typing_extensions</title><style>.edge>path:hover{stroke-width:8}</style>
<polygon fill="#f910f9" stroke="black" points="1528.68,-692.65 1525.68,-696.65 1504.68,-696.65 1501.68,-692.65 1433.93,-692.65 1433.93,-656.65 1528.68,-656.65 1528.68,-692.65"/>
<text xml:space="preserve" text-anchor="middle" x="1481.31" y="-670.78" font-family="Helvetica,sans-Serif" font-size="10.00" fill="#ffffff">typing_extensions</text>
</g>
<!-- typing_extensions&#45;&gt;pydantic -->
<g id="edge47" class="edge">
<title>typing_extensions&#45;&gt;pydantic</title><style>.edge>path:hover{stroke-width:8}</style>
<path fill="none" stroke="black" d="M1567.31,-446.13C1572.2,-419.57 1594.67,-398.72 1615.28,-384.75"/>
<polygon fill="#f910f9" stroke="black" points="1617.03,-387.78 1623.58,-379.45 1613.26,-381.88 1617.03,-387.78"/>
<path fill="none" stroke="black" d="M1567.31,-590.13C1603.71,-538.58 1555.87,-510.2 1567.31,-448.13"/>
<path fill="none" stroke="black" d="M1503.52,-656.36C1522.23,-640.98 1548.83,-617.1 1567.31,-592.13"/>
</g>
<!-- typing_extensions&#45;&gt;pydantic_core -->
<g id="edge48" class="edge">
<title>typing_extensions&#45;&gt;pydantic_core</title><style>.edge>path:hover{stroke-width:8}</style>
<path fill="none" stroke="black" d="M1567.31,-590.13C1578.61,-574.13 1593.41,-558.09 1606.13,-545.41"/>
<polygon fill="#f910f9" stroke="black" points="1608.34,-548.15 1613.05,-538.66 1603.45,-543.14 1608.34,-548.15"/>
</g>
<!-- xarray&#45;&gt;aux_augmentation -->
<g id="edge49" class="edge">
<title>xarray&#45;&gt;aux_augmentation</title><style>.edge>path:hover{stroke-width:8}</style>
<path fill="none" stroke="black" d="M867.31,-279.09C784.28,-247.17 757.88,-256.55 674.31,-226.09 668.1,-223.83 661.66,-221.2 655.38,-218.47"/>
<polygon fill="blue" stroke="black" points="656.97,-215.34 646.41,-214.45 654.1,-221.73 656.97,-215.34"/>
<path fill="none" stroke="black" d="M1077.94,-353.97C1033.43,-339.74 942.73,-310.08 867.31,-281.09"/>
</g>
<!-- xarray&#45;&gt;aux_clock_reader -->
<g id="edge50" class="edge">
<title>xarray&#45;&gt;aux_clock_reader</title><style>.edge>path:hover{stroke-width:8}</style>
<path fill="none" stroke="black" d="M1313.31,-279.09C1361.91,-251.54 1323.58,-197.68 1370.31,-167.04 1481.09,-94.42 1840.69,-175.96 1965.31,-131.04 1967.68,-130.19 1970.03,-129.14 1972.34,-127.96"/>
<polygon fill="blue" stroke="black" points="1974.01,-131.03 1980.76,-122.86 1970.39,-125.04 1974.01,-131.03"/>
<path fill="none" stroke="black" d="M1132.65,-353.85C1173.16,-340.45 1251.01,-313.03 1313.31,-281.09"/>
</g>
<!-- xarray&#45;&gt;aux_clock_validator -->
<g id="edge51" class="edge">
<title>xarray&#45;&gt;aux_clock_validator</title><style>.edge>path:hover{stroke-width:8}</style>
<path fill="none" stroke="black" d="M1102.31,-195.57C1072.61,-123.53 1009.08,-165.72 939.31,-131.04 936.46,-129.63 933.56,-128.1 930.67,-126.51"/>
<polygon fill="blue" stroke="black" points="932.69,-123.64 922.27,-121.71 929.21,-129.71 932.69,-123.64"/>
</g>
<!-- xarray&#45;&gt;aux_container -->
<g id="edge52" class="edge">
<title>xarray&#45;&gt;aux_container</title><style>.edge>path:hover{stroke-width:8}</style>
<path fill="none" stroke="black" d="M1313.31,-279.09C1381.05,-240.69 1408.6,-256.45 1480.31,-226.09 1486.47,-223.48 1492.87,-220.39 1499,-217.22"/>
<polygon fill="blue" stroke="black" points="1500.46,-220.41 1507.63,-212.61 1497.16,-214.23 1500.46,-220.41"/>
</g>
<!-- xarray&#45;&gt;aux_core_base -->
<g id="edge53" class="edge">
<title>xarray&#45;&gt;aux_core_base</title><style>.edge>path:hover{stroke-width:8}</style>
<path fill="none" stroke="black" d="M1199.31,-279.09C1222.43,-253.36 1233.35,-251.97 1256.31,-226.09 1277.85,-201.8 1271.61,-183.98 1299.31,-167.04 1386.82,-113.51 1429.85,-163.07 1527.31,-131.04 1534.21,-128.77 1541.31,-125.71 1548.01,-122.44"/>
<polygon fill="blue" stroke="black" points="1549.51,-125.6 1556.79,-117.9 1546.3,-119.38 1549.51,-125.6"/>
</g>
<!-- xarray&#45;&gt;aux_ephemeris_parser -->
<g id="edge54" class="edge">
<title>xarray&#45;&gt;aux_ephemeris_parser</title><style>.edge>path:hover{stroke-width:8}</style>
<path fill="none" stroke="black" d="M1102.31,-195.57C1090.04,-165.82 1062.35,-142.38 1037.95,-126.47"/>
<polygon fill="blue" stroke="black" points="1040.07,-123.66 1029.73,-121.33 1036.36,-129.6 1040.07,-123.66"/>
</g>
<!-- xarray&#45;&gt;aux_ephemeris_reader -->
<g id="edge55" class="edge">
<title>xarray&#45;&gt;aux_ephemeris_reader</title><style>.edge>path:hover{stroke-width:8}</style>
<path fill="none" stroke="black" d="M1130.83,-345.36C1151.49,-330.35 1180.2,-306.99 1199.31,-281.09"/>
<path fill="none" stroke="black" d="M1199.31,-279.09C1233.1,-233.29 1215.82,-201.25 1261.31,-167.04 1318.87,-123.76 1351.77,-156.08 1419.31,-131.04 1422.74,-129.77 1426.22,-128.33 1429.69,-126.77"/>
<polygon fill="blue" stroke="black" points="1431.06,-130 1438.58,-122.53 1428.04,-123.68 1431.06,-130"/>
</g>
<!-- xarray&#45;&gt;aux_ephemeris_validator -->
<g id="edge56" class="edge">
<title>xarray&#45;&gt;aux_ephemeris_validator</title><style>.edge>path:hover{stroke-width:8}</style>
<path fill="none" stroke="black" d="M1102.31,-195.57C1095.5,-179.06 1094.57,-159.47 1095.71,-142.53"/>
<polygon fill="blue" stroke="black" points="1099.17,-143.09 1096.64,-132.81 1092.21,-142.43 1099.17,-143.09"/>
</g>
<!-- xarray&#45;&gt;aux_interpolation_interpolator -->
<g id="edge57" class="edge">
<title>xarray&#45;&gt;aux_interpolation_interpolator</title><style>.edge>path:hover{stroke-width:8}</style>
<path fill="none" stroke="black" d="M1102.31,-195.57C1093.28,-173.67 1125.48,-176.22 1147.31,-167.04 1211.7,-139.97 1234.46,-154.39 1300.31,-131.04 1304.01,-129.73 1307.79,-128.25 1311.56,-126.68"/>
<polygon fill="blue" stroke="black" points="1312.94,-129.89 1320.68,-122.65 1310.12,-123.49 1312.94,-129.89"/>
</g>
<!-- xarray&#45;&gt;aux_matching_dataset_matcher -->
<g id="edge58" class="edge">
<title>xarray&#45;&gt;aux_matching_dataset_matcher</title><style>.edge>path:hover{stroke-width:8}</style>
<path fill="none" stroke="black" d="M1102.31,-195.57C1094.67,-177.05 1137.56,-149.02 1175.34,-128.57"/>
<polygon fill="blue" stroke="black" points="1176.78,-131.77 1183.98,-123.99 1173.5,-125.59 1176.78,-131.77"/>
</g>
<!-- xarray&#45;&gt;aux_pipeline -->
<g id="edge59" class="edge">
<title>xarray&#45;&gt;aux_pipeline</title><style>.edge>path:hover{stroke-width:8}</style>
<path fill="none" stroke="black" d="M867.31,-279.09C825.81,-263.13 781.86,-236.68 753.59,-218.25"/>
<polygon fill="blue" stroke="black" points="755.81,-215.52 745.54,-212.93 751.95,-221.36 755.81,-215.52"/>
</g>
<!-- xarray&#45;&gt;aux_position_position -->
<g id="edge60" class="edge">
<title>xarray&#45;&gt;aux_position_position</title><style>.edge>path:hover{stroke-width:8}</style>
<path fill="none" stroke="black" d="M1102.31,-195.57C1085.5,-154.81 1049.96,-178.2 1007.31,-167.04 936.37,-148.49 914.32,-158.42 846.31,-131.04 843.32,-129.84 840.3,-128.46 837.31,-126.97"/>
<polygon fill="blue" stroke="black" points="839.15,-123.98 828.69,-122.29 835.81,-130.14 839.15,-123.98"/>
</g>
<!-- xarray&#45;&gt;aux_position_spherical_coords -->
<g id="edge61" class="edge">
<title>xarray&#45;&gt;aux_position_spherical_coords</title><style>.edge>path:hover{stroke-width:8}</style>
<path fill="none" stroke="black" d="M1108.95,-345.39C1114.66,-314.43 1123.06,-247.9 1102.31,-197.57"/>
<path fill="none" stroke="black" d="M1102.31,-195.57C1082.43,-156.22 1050.36,-176.5 1007.31,-167.04 895.94,-142.58 863.59,-159.98 753.31,-131.04 747.85,-129.61 742.25,-127.9 736.69,-126.03"/>
<polygon fill="blue" stroke="black" points="738.13,-122.82 727.54,-122.78 735.79,-129.42 738.13,-122.82"/>
</g>
<!-- xarray&#45;&gt;aux_preprocessing -->
<g id="edge62" class="edge">
<title>xarray&#45;&gt;aux_preprocessing</title><style>.edge>path:hover{stroke-width:8}</style>
<path fill="none" stroke="black" d="M1078.03,-354.14C1033.77,-339.55 951.56,-308.62 955.31,-281.09"/>
</g>
</g>
</svg>
